SpaceGrotesk-Light.ufo
<glyph name="exclam" format="2">
  <advance width="234"/>
  <unicode hex="0021"/>
  <outline>
    <component base="period"/>
    <contour>
      <point x="148" y="170" type="line"/>
      <point x="148" y="700" type="line"/>
      <point x="86" y="700" type="line"/>
      <point x="86" y="170" type="line"/>
    </contour>
  </outline>
</glyph>
<glyph name="numbersign" format="2">
  <advance width="625"/>
  <unicode hex="0023"/>
  <outline>
    <contour>
      <point x="234" y="0" type="line"/>
      <point x="234" y="212" type="line"/>
      <point x="390" y="212" type="line"/>
      <point x="390" y="0" type="line"/>
      <point x="446" y="0" type="line"/>
      <point x="446" y="212" type="line"/>
      <point x="581" y="212" type="line"/>
      <point x="581" y="264" type="line"/>
      <point x="446" y="264" type="line"/>
      <point x="446" y="436" type="line"/>
      <point x="581" y="436" type="line"/>
      <point x="581" y="488" type="line"/>
      <point x="446" y="488" type="line"/>
      <point x="446" y="700" type="line"/>
      <point x="390" y="700" type="line"/>
      <point x="390" y="488" type="line"/>
      <point x="234" y="488" type="line"/>
      <point x="234" y="700" type="line"/>
      <point x="178" y="700" type="line"/>
      <point x="178" y="488" type="line"/>
      <point x="44" y="488" type="line"/>
      <point x="44" y="436" type="line"/>
      <point x="178" y="436" type="line"/>
      <point x="178" y="264" type="line"/>
      <point x="44" y="264" type="line"/>
      <point x="44" y="212" type="line"/>
      <point x="178" y="212" type="line"/>
      <point x="178" y="0" type="line"/>
    </contour>
    <contour>
      <point x="234" y="436" type="line"/>
      <point x="390" y="436" type="line"/>
      <point x="390" y="264" type="line"/>
      <point x="234" y="264" type="line"/>
    </contour>
  </outline>
</glyph>
<glyph name="ampersand" format="2">
  <advance width="610"/>
  <unicode hex="0026"/>
  <outline>
    <contour>
      <point x="480" y="0" type="line"/>
      <point x="480" y="326" type="line"/>
      <point x="580" y="326" type="line"/>
      <point x="580" y="380" type="line"/>
      <point x="480" y="380" type="line"/>
      <point x="480" y="495" type="line"/>
      <point x="420" y="495" type="line"/>
      <point x="420" y="380" type="line"/>
      <point x="265" y="380" type="line" smooth="yes"/>
      <point x="186" y="380"/>
      <point x="120" y="420"/>
      <point x="120" y="512" type="curve" smooth="yes"/>
      <point x="120" y="604"/>
      <point x="185" y="646"/>
      <point x="265" y="646" type="curve" smooth="yes"/>
      <point x="393" y="646" type="line"/>
      <point x="393" y="700" type="line"/>
      <point x="260" y="700" type="line" smooth="yes"/>
      <point x="152" y="700"/>
      <point x="58" y="635"/>
      <point x="58" y="515" type="curve" smooth="yes"/>
      <point x="58" y="426"/>
      <point x="112" y="378"/>
      <point x="171" y="359" type="curve"/>
      <point x="171" y="349" type="line"/>
      <point x="111" y="327"/>
      <point x="50" y="272"/>
      <point x="50" y="184" type="curve" smooth="yes"/>
      <point x="50" y="66"/>
      <point x="143" y="0"/>
      <point x="256" y="0" type="curve" smooth="yes"/>
    </contour>
    <contour>
      <point x="261" y="54" type="line" smooth="yes"/>
      <point x="179" y="54"/>
      <point x="112" y="96"/>
      <point x="112" y="190" type="curve" smooth="yes"/>
      <point x="112" y="283"/>
      <point x="178" y="326"/>
      <point x="261" y="326" type="curve" smooth="yes"/>
      <point x="420" y="326" type="line"/>
      <point x="420" y="54" type="line"/>
    </contour>
  </outline>
</glyph>
<glyph name="parenleft" format="2">
  <advance width="371"/>
  <unicode hex="0028"/>
  <outline>
    <contour>
      <point x="361" y="-178" type="line"/>
      <point x="195" y="-175"/>
      <point x="122" y="-89"/>
      <point x="122" y="89" type="curve" smooth="yes"/>
      <point x="122" y="421" type="line" smooth="yes"/>
      <point x="122" y="599"/>
      <point x="195" y="685"/>
      <point x="361" y="688" type="curve"/>
      <point x="361" y="740" type="line"/>
      <point x="179" y="740"/>
      <point x="64" y="651"/>
      <point x="64" y="426" type="curve" smooth="yes"/>
      <point x="64" y="84" type="line" smooth="yes"/>
      <point x="64" y="-141"/>
      <point x="179" y="-230"/>
      <point x="361" y="-230" type="curve"/>
    </contour>
  </outline>
</glyph>
<glyph name="parenright" format="2">
  <advance width="371"/>
  <unicode hex="0029"/>
  <outline>
    <contour>
      <point x="10" y="-230" type="line"/>
      <point x="192" y="-230"/>
      <point x="307" y="-141"/>
      <point x="307" y="84" type="curve" smooth="yes"/>
      <point x="307" y="426" type="line" smooth="yes"/>
      <point x="307" y="651"/>
      <point x="192" y="740"/>
      <point x="10" y="740" type="curve"/>
      <point x="10" y="688" type="line"/>
      <point x="176" y="685"/>
      <point x="249" y="599"/>
      <point x="249" y="421" type="curve" smooth="yes"/>
      <point x="249" y="89" type="line" smooth="yes"/>
      <point x="249" y="-89"/>
      <point x="176" y="-175"/>
      <point x="10" y="-178" type="curve"/>
    </contour>
  </outline>
</glyph>
<glyph name="asterisk" format="2">
  <advance width="512"/>
  <unicode hex="002A"/>
  <outline>
    <contour>
      <point x="136" y="469" type="line"/>
      <point x="204" y="476" type="line"/>
      <point x="209" y="466" type="line"/>
      <point x="155" y="423" type="line"/>
      <point x="93" y="361" type="line"/>
      <point x="125" y="329" type="line"/>
      <point x="187" y="391" type="line"/>
      <point x="230" y="445" type="line"/>
      <point x="240" y="440" type="line"/>
      <point x="233" y="372" type="line"/>
      <point x="233" y="284" type="line"/>
      <point x="279" y="284" type="line"/>
      <point x="279" y="372" type="line"/>
      <point x="272" y="440" type="line"/>
      <point x="282" y="445" type="line"/>
      <point x="325" y="391" type="line"/>
      <point x="387" y="329" type="line"/>
      <point x="419" y="361" type="line"/>
      <point x="357" y="423" type="line"/>
      <point x="303" y="466" type="line"/>
      <point x="308" y="476" type="line"/>
      <point x="376" y="469" type="line"/>
      <point x="464" y="469" type="line"/>
      <point x="464" y="515" type="line"/>
      <point x="376" y="515" type="line"/>
      <point x="308" y="508" type="line"/>
      <point x="303" y="518" type="line"/>
      <point x="357" y="561" type="line"/>
      <point x="419" y="623" type="line"/>
      <point x="387" y="655" type="line"/>
      <point x="325" y="593" type="line"/>
      <point x="282" y="539" type="line"/>
      <point x="272" y="544" type="line"/>
      <point x="279" y="612" type="line"/>
      <point x="279" y="700" type="line"/>
      <point x="233" y="700" type="line"/>
      <point x="233" y="612" type="line"/>
      <point x="240" y="544" type="line"/>
      <point x="230" y="539" type="line"/>
      <point x="187" y="593" type="line"/>
      <point x="125" y="655" type="line"/>
      <point x="93" y="623" type="line"/>
      <point x="155" y="561" type="line"/>
      <point x="209" y="518" type="line"/>
      <point x="204" y="508" type="line"/>
      <point x="136" y="515" type="line"/>
      <point x="48" y="515" type="line"/>
      <point x="48" y="469" type="line"/>
    </contour>
  </outline>
</glyph>
<glyph name="comma" format="2">
  <advance width="234"/>
  <unicode hex="002C"/>
  <outline>
    <contour>
      <point x="99" y="-116" type="line" smooth="yes"/>
      <point x="150" y="-116"/>
      <point x="174" y="-92"/>
      <point x="174" y="-40" type="curve" smooth="yes"/>
      <point x="174" y="43" type="line" smooth="yes"/>
      <point x="174" y="75"/>
      <point x="149" y="100"/>
      <point x="117" y="100" type="curve" smooth="yes"/>
      <point x="85" y="100"/>
      <point x="60" y="77"/>
      <point x="60" y="45" type="curve" smooth="yes"/>
      <point x="60" y="13"/>
      <point x="85" y="-10"/>
      <point x="117" y="-10" type="curve" smooth="yes"/>
      <point x="130" y="-10" type="line"/>
      <point x="130" y="-42" type="line" smooth="yes"/>
      <point x="130" y="-64"/>
      <point x="120" y="-74"/>
      <point x="98" y="-74" type="curve" smooth="yes"/>
      <point x="74" y="-74" type="line"/>
      <point x="74" y="-116" type="line"/>
    </contour>
  </outline>
</glyph>
<glyph name="one" format="2">
  <advance width="404"/>
  <unicode hex="0031"/>
  <outline>
    <contour>
      <point x="318" y="0" type="line"/>
      <point x="318" y="700" type="line"/>
      <point x="197" y="700" type="line"/>
      <point x="20" y="402" type="line"/>
      <point x="90" y="402" type="line"/>
      <point x="243" y="662" type="line"/>
      <point x="256" y="662" type="line"/>
      <point x="256" y="0" type="line"/>
    </contour>
  </outline>
</glyph>
<glyph name="two" format="2">
  <advance width="606"/>
  <unicode hex="0032"/>
  <outline>
    <contour>
      <point x="547" y="0" type="line"/>
      <point x="547" y="56" type="line"/>
      <point x="120" y="56" type="line"/>
      <point x="120" y="79" type="line" smooth="yes"/>
      <point x="120" y="187"/>
      <point x="181" y="214"/>
      <point x="289" y="248" type="curve" smooth="yes"/>
      <point x="339" y="263" type="line" smooth="yes"/>
      <point x="469" y="304"/>
      <point x="553" y="358"/>
      <point x="553" y="494" type="curve" smooth="yes"/>
      <point x="553" y="503" type="line" smooth="yes"/>
      <point x="553" y="629"/>
      <point x="456" y="714"/>
      <point x="312" y="714" type="curve" smooth="yes"/>
      <point x="168" y="714"/>
      <point x="63" y="630"/>
      <point x="63" y="478" type="curve" smooth="yes"/>
      <point x="63" y="465" type="line"/>
      <point x="123" y="465" type="line"/>
      <point x="123" y="478" type="line" smooth="yes"/>
      <point x="123" y="599"/>
      <point x="201" y="658"/>
      <point x="312" y="658" type="curve" smooth="yes"/>
      <point x="416" y="658"/>
      <point x="491" y="598"/>
      <point x="491" y="501" type="curve" smooth="yes"/>
      <point x="491" y="497" type="line" smooth="yes"/>
      <point x="491" y="392"/>
      <point x="423" y="349"/>
      <point x="325" y="319" type="curve" smooth="yes"/>
      <point x="275" y="303" type="line" smooth="yes"/>
      <point x="143" y="262"/>
      <point x="58" y="219"/>
      <point x="58" y="69" type="curve" smooth="yes"/>
      <point x="58" y="0" type="line"/>
    </contour>
  </outline>
</glyph>
<glyph name="three" format="2">
  <advance width="603"/>
  <unicode hex="0033"/>
  <outline>
    <contour>
      <point x="303" y="-14" type="curve" smooth="yes"/>
      <point x="451" y="-14"/>
      <point x="547" y="72"/>
      <point x="547" y="202" type="curve" smooth="yes"/>
      <point x="547" y="212" type="line" smooth="yes"/>
      <point x="547" y="341"/>
      <point x="449" y="409"/>
      <point x="320" y="409" type="curve" smooth="yes"/>
      <point x="265" y="409" type="line"/>
      <point x="265" y="419" type="line"/>
      <point x="546" y="610" type="line"/>
      <point x="546" y="700" type="line"/>
      <point x="66" y="700" type="line"/>
      <point x="66" y="644" type="line"/>
      <point x="484" y="644" type="line"/>
      <point x="484" y="634" type="line"/>
      <point x="200" y="441" type="line"/>
      <point x="200" y="357" type="line"/>
      <point x="303" y="357" type="line" smooth="yes"/>
      <point x="403" y="357"/>
      <point x="485" y="313"/>
      <point x="485" y="210" type="curve" smooth="yes"/>
      <point x="485" y="204" type="line" smooth="yes"/>
      <point x="485" y="111"/>
      <point x="417" y="42"/>
      <point x="303" y="42" type="curve" smooth="yes"/>
      <point x="189" y="42"/>
      <point x="112" y="111"/>
      <point x="112" y="224" type="curve" smooth="yes"/>
      <point x="112" y="244" type="line"/>
      <point x="50" y="244" type="line"/>
      <point x="50" y="225" type="line" smooth="yes"/>
      <point x="50" y="72"/>
      <point x="156" y="-14"/>
    </contour>
  </outline>
</glyph>
<glyph name="four" format="2">
  <advance width="620"/>
  <unicode hex="0034"/>
  <outline>
    <contour>
      <point x="470" y="0" type="line"/>
      <point x="470" y="144" type="line"/>
      <point x="592" y="144" type="line"/>
      <point x="592" y="200" type="line"/>
      <point x="470" y="200" type="line"/>
      <point x="470" y="700" type="line"/>
      <point x="350" y="700" type="line"/>
      <point x="34" y="218" type="line"/>
      <point x="34" y="144" type="line"/>
      <point x="408" y="144" type="line"/>
      <point x="408" y="0" type="line"/>
    </contour>
    <contour>
      <point x="99" y="210" type="line"/>
      <point x="396" y="664" type="line"/>
      <point x="408" y="664" type="line"/>
      <point x="408" y="200" type="line"/>
      <point x="99" y="200" type="line"/>
    </contour>
  </outline>
</glyph>
<glyph name="five" format="2">
  <advance width="598"/>
  <unicode hex="0035"/>
  <outline>
    <contour>
      <point x="301" y="-14" type="curve" smooth="yes"/>
      <point x="452" y="-14"/>
      <point x="545" y="86"/>
      <point x="545" y="226" type="curve" smooth="yes"/>
      <point x="545" y="236" type="line" smooth="yes"/>
      <point x="545" y="380"/>
      <point x="449" y="470"/>
      <point x="328" y="470" type="curve" smooth="yes"/>
      <point x="222" y="470"/>
      <point x="172" y="418"/>
      <point x="151" y="373" type="curve"/>
      <point x="139" y="373" type="line"/>
      <point x="139" y="644" type="line"/>
      <point x="529" y="644" type="line"/>
      <point x="529" y="700" type="line"/>
      <point x="77" y="700" type="line"/>
      <point x="77" y="327" type="line"/>
      <point x="169" y="327" type="line"/>
      <point x="188" y="364"/>
      <point x="225" y="416"/>
      <point x="314" y="416" type="curve" smooth="yes"/>
      <point x="415" y="416"/>
      <point x="483" y="346"/>
      <point x="483" y="235" type="curve" smooth="yes"/>
      <point x="483" y="227" type="line" smooth="yes"/>
      <point x="483" y="111"/>
      <point x="414" y="42"/>
      <point x="300" y="42" type="curve" smooth="yes"/>
      <point x="193" y="42"/>
      <point x="118" y="102"/>
      <point x="118" y="222" type="curve" smooth="yes"/>
      <point x="118" y="232" type="line"/>
      <point x="56" y="232" type="line"/>
      <point x="56" y="219" type="line" smooth="yes"/>
      <point x="56" y="80"/>
      <point x="153" y="-14"/>
    </contour>
  </outline>
</glyph>
<glyph name="eight" format="2">
  <advance width="632"/>
  <unicode hex="0038"/>
  <outline>
    <contour>
      <point x="316" y="-14" type="curve" smooth="yes"/>
      <point x="479" y="-14"/>
      <point x="578" y="65"/>
      <point x="578" y="183" type="curve" smooth="yes"/>
      <point x="578" y="193" type="line" smooth="yes"/>
      <point x="578" y="301"/>
      <point x="493" y="349"/>
      <point x="434" y="358" type="curve"/>
      <point x="434" y="370" type="line"/>
      <point x="493" y="384"/>
      <point x="564" y="430"/>
      <point x="564" y="523" type="curve" smooth="yes"/>
      <point x="564" y="533" type="line" smooth="yes"/>
      <point x="564" y="648"/>
      <point x="458" y="714"/>
      <point x="316" y="714" type="curve" smooth="yes"/>
      <point x="174" y="714"/>
      <point x="68" y="648"/>
      <point x="68" y="533" type="curve" smooth="yes"/>
      <point x="68" y="523" type="line" smooth="yes"/>
      <point x="68" y="430"/>
      <point x="139" y="384"/>
      <point x="198" y="370" type="curve"/>
      <point x="198" y="358" type="line"/>
      <point x="139" y="349"/>
      <point x="54" y="301"/>
      <point x="54" y="193" type="curve" smooth="yes"/>
      <point x="54" y="183" type="line" smooth="yes"/>
      <point x="54" y="65"/>
      <point x="152" y="-14"/>
    </contour>
    <contour>
      <point x="316" y="42" type="curve" smooth="yes"/>
      <point x="195" y="42"/>
      <point x="116" y="90"/>
      <point x="116" y="184" type="curve" smooth="yes"/>
      <point x="116" y="192" type="line" smooth="yes"/>
      <point x="116" y="286"/>
      <point x="194" y="334"/>
      <point x="316" y="334" type="curve" smooth="yes"/>
      <point x="437" y="334"/>
      <point x="516" y="286"/>
      <point x="516" y="192" type="curve" smooth="yes"/>
      <point x="516" y="184" type="line" smooth="yes"/>
      <point x="516" y="90"/>
      <point x="437" y="42"/>
    </contour>
    <contour>
      <point x="316" y="390" type="curve" smooth="yes"/>
      <point x="201" y="390"/>
      <point x="130" y="437"/>
      <point x="130" y="520" type="curve" smooth="yes"/>
      <point x="130" y="528" type="line" smooth="yes"/>
      <point x="130" y="611"/>
      <point x="201" y="658"/>
      <point x="316" y="658" type="curve" smooth="yes"/>
      <point x="431" y="658"/>
      <point x="502" y="611"/>
      <point x="502" y="528" type="curve" smooth="yes"/>
      <point x="502" y="520" type="line" smooth="yes"/>
      <point x="502" y="437"/>
      <point x="431" y="390"/>
    </contour>
  </outline>
</glyph>
<glyph name="nine" format="2">
  <advance width="610"/>
  <unicode hex="0039"/>
  <outline>
    <contour>
      <point x="299" y="-14" type="curve" smooth="yes"/>
      <point x="455" y="-14"/>
      <point x="546" y="80"/>
      <point x="546" y="231" type="curve" smooth="yes"/>
      <point x="546" y="478" type="line" smooth="yes"/>
      <point x="546" y="627"/>
      <point x="440" y="714"/>
      <point x="301" y="714" type="curve" smooth="yes"/>
      <point x="163" y="714"/>
      <point x="56" y="626"/>
      <point x="56" y="483" type="curve" smooth="yes"/>
      <point x="56" y="471" type="line" smooth="yes"/>
      <point x="56" y="330"/>
      <point x="157" y="240"/>
      <point x="286" y="240" type="curve" smooth="yes"/>
      <point x="390" y="240"/>
      <point x="447" y="286"/>
      <point x="472" y="331" type="curve"/>
      <point x="484" y="331" type="line"/>
      <point x="484" y="224" type="line" smooth="yes"/>
      <point x="484" y="111"/>
      <point x="417" y="42"/>
      <point x="299" y="42" type="curve" smooth="yes"/>
      <point x="185" y="42"/>
      <point x="124" y="103"/>
      <point x="124" y="195" type="curve"/>
      <point x="62" y="195" type="line"/>
      <point x="62" y="78"/>
      <point x="145" y="-14"/>
    </contour>
    <contour>
      <point x="301" y="294" type="curve" smooth="yes"/>
      <point x="194" y="294"/>
      <point x="118" y="365"/>
      <point x="118" y="474" type="curve" smooth="yes"/>
      <point x="118" y="482" type="line" smooth="yes"/>
      <point x="118" y="591"/>
      <point x="193" y="658"/>
      <point x="301" y="658" type="curve" smooth="yes"/>
      <point x="409" y="658"/>
      <point x="484" y="591"/>
      <point x="484" y="482" type="curve" smooth="yes"/>
      <point x="484" y="474" type="line" smooth="yes"/>
      <point x="484" y="365"/>
      <point x="408" y="294"/>
    </contour>
  </outline>
</glyph>
<glyph name="equal" format="2">
  <advance width="620"/>
  <unicode hex="003D"/>
  <outline>
    <contour>
      <point x="520" y="392" type="line"/>
      <point x="520" y="448" type="line"/>
      <point x="100" y="448" type="line"/>
      <point x="100" y="392" type="line"/>
    </contour>
    <contour>
      <point x="520" y="252" type="line"/>
      <point x="520" y="308" type="line"/>
      <point x="100" y="308" type="line"/>
      <point x="100" y="252" type="line"/>
    </contour>
  </outline>
</glyph>
<glyph name="A" format="2">
  <advance width="628"/>
  <unicode hex="0041"/>
  <anchor x="314" y="0" name="bottom"/>
  <anchor x="567" y="0" name="ogonek"/>
  <anchor x="314" y="700" name="top"/>
  <outline>
    <contour>
      <point x="95" y="0" type="line"/>
      <point x="155" y="186" type="line"/>
      <point x="473" y="186" type="line"/>
      <point x="533" y="0" type="line"/>
      <point x="600" y="0" type="line"/>
      <point x="371" y="700" type="line"/>
      <point x="257" y="700" type="line"/>
      <point x="28" y="0" type="line"/>
    </contour>
    <contour>
      <point x="308" y="662" type="line"/>
      <point x="320" y="662" type="line"/>
      <point x="455" y="244" type="line"/>
      <point x="173" y="244" type="line"/>
    </contour>
  </outline>
</glyph>
<glyph name="B" format="2">
  <advance width="660"/>
  <unicode hex="0042"/>
  <anchor x="148" y="330" name="stroke"/>
  <outline>
    <contour>
      <point x="392" y="0" type="line" smooth="yes"/>
      <point x="511" y="0"/>
      <point x="602" y="68"/>
      <point x="602" y="182" type="curve" smooth="yes"/>
      <point x="602" y="192" type="line" smooth="yes"/>
      <point x="602" y="290"/>
      <point x="536" y="335"/>
      <point x="484" y="348" type="curve"/>
      <point x="484" y="360" type="line"/>
      <point x="535" y="375"/>
      <point x="602" y="419"/>
      <point x="602" y="517" type="curve" smooth="yes"/>
      <point x="602" y="525" type="line" smooth="yes"/>
      <point x="602" y="629"/>
      <point x="515" y="700"/>
      <point x="395" y="700" type="curve" smooth="yes"/>
      <point x="48" y="700" type="line"/>
      <point x="48" y="642" type="line"/>
      <point x="148" y="642" type="line"/>
      <point x="148" y="58" type="line"/>
      <point x="48" y="58" type="line"/>
      <point x="48" y="0" type="line"/>
    </contour>
    <contour>
      <point x="212" y="324" type="line"/>
      <point x="386" y="324" type="line" smooth="yes"/>
      <point x="486" y="324"/>
      <point x="538" y="274"/>
      <point x="538" y="195" type="curve" smooth="yes"/>
      <point x="538" y="187" type="line" smooth="yes"/>
      <point x="538" y="108"/>
      <point x="486" y="58"/>
      <point x="386" y="58" type="curve" smooth="yes"/>
      <point x="212" y="58" type="line"/>
    </contour>
    <contour>
      <point x="212" y="642" type="line"/>
      <point x="390" y="642" type="line" smooth="yes"/>
      <point x="482" y="642"/>
      <point x="538" y="592"/>
      <point x="538" y="517" type="curve" smooth="yes"/>
      <point x="538" y="507" type="line" smooth="yes"/>
      <point x="538" y="432"/>
      <point x="482" y="382"/>
      <point x="390" y="382" type="curve" smooth="yes"/>
      <point x="212" y="382" type="line"/>
    </contour>
  </outline>
</glyph>
<glyph name="C" format="2">
  <advance width="641"/>
  <unicode hex="0043"/>
  <anchor x="331" y="0" name="bottom"/>
  <anchor x="334" y="700" name="top"/>
  <outline>
    <contour>
      <point x="334" y="-14" type="curve" smooth="yes"/>
      <point x="496" y="-14"/>
      <point x="585" y="84"/>
      <point x="585" y="241" type="curve" smooth="yes"/>
      <point x="585" y="254" type="line"/>
      <point x="521" y="254" type="line"/>
      <point x="521" y="239" type="line" smooth="yes"/>
      <point x="521" y="124"/>
      <point x="462" y="44"/>
      <point x="334" y="44" type="curve" smooth="yes"/>
      <point x="204" y="44"/>
      <point x="128" y="126"/>
      <point x="128" y="269" type="curve" smooth="yes"/>
      <point x="128" y="431" type="line" smooth="yes"/>
      <point x="128" y="574"/>
      <point x="204" y="656"/>
      <point x="334" y="656" type="curve" smooth="yes"/>
      <point x="462" y="656"/>
      <point x="521" y="576"/>
      <point x="521" y="461" type="curve" smooth="yes"/>
      <point x="521" y="454" type="line"/>
      <point x="585" y="454" type="line"/>
      <point x="585" y="459" type="line" smooth="yes"/>
      <point x="585" y="616"/>
      <point x="496" y="714"/>
      <point x="334" y="714" type="curve" smooth="yes"/>
      <point x="170" y="714"/>
      <point x="64" y="616"/>
      <point x="64" y="429" type="curve" smooth="yes"/>
      <point x="64" y="271" type="line" smooth="yes"/>
      <point x="64" y="84"/>
      <point x="170" y="-14"/>
    </contour>
  </outline>
</glyph>
<glyph name="D" format="2">
  <advance width="662"/>
  <unicode hex="0044"/>
  <anchor x="317" y="0" name="bottom"/>
  <anchor x="148" y="486" name="stroke"/>
  <anchor x="317" y="700" name="top"/>
  <outline>
    <contour>
      <point x="314" y="0" type="line" smooth="yes"/>
      <point x="496" y="0"/>
      <point x="604" y="89"/>
      <point x="604" y="285" type="curve" smooth="yes"/>
      <point x="604" y="414" type="line" smooth="yes"/>
      <point x="604" y="610"/>
      <point x="496" y="700"/>
      <point x="314" y="700" type="curve" smooth="yes"/>
      <point x="48" y="700" type="line"/>
      <point x="48" y="642" type="line"/>
      <point x="148" y="642" type="line"/>
      <point x="148" y="58" type="line"/>
      <point x="48" y="58" type="line"/>
      <point x="48" y="0" type="line"/>
    </contour>
    <contour>
      <point x="212" y="641" type="line"/>
      <point x="314" y="641" type="line" smooth="yes"/>
      <point x="460" y="641"/>
      <point x="540" y="575"/>
      <point x="540" y="417" type="curve" smooth="yes"/>
      <point x="540" y="282" type="line" smooth="yes"/>
      <point x="540" y="124"/>
      <point x="460" y="58"/>
      <point x="314" y="58" type="curve" smooth="yes"/>
      <point x="212" y="58" type="line"/>
    </contour>
  </outline>
</glyph>
<glyph name="H" format="2">
  <advance width="656"/>
  <unicode hex="0048"/>
  <anchor x="328" y="0" name="bottom"/>
  <anchor x="328" y="486" name="stroke"/>
  <anchor x="328" y="700" name="top"/>
  <outline>
    <contour>
      <point x="150" y="0" type="line"/>
      <point x="150" y="322" type="line"/>
      <point x="506" y="322" type="line"/>
      <point x="506" y="0" type="line"/>
      <point x="570" y="0" type="line"/>
      <point x="570" y="700" type="line"/>
      <point x="506" y="700" type="line"/>
      <point x="506" y="380" type="line"/>
      <point x="150" y="380" type="line"/>
      <point x="150" y="700" type="line"/>
      <point x="86" y="700" type="line"/>
      <point x="86" y="0" type="line"/>
    </contour>
  </outline>
</glyph>
<glyph name="J" format="2">
  <advance width="588"/>
  <unicode hex="004A"/>
  <anchor x="411" y="700" name="top"/>
  <outline>
    <contour>
      <point x="261" y="-14" type="curve" smooth="yes"/>
      <point x="399" y="-14"/>
      <point x="468" y="64"/>
      <point x="468" y="210" type="curve" smooth="yes"/>
      <point x="468" y="642" type="line"/>
      <point x="542" y="642" type="line"/>
      <point x="542" y="700" type="line"/>
      <point x="280" y="700" type="line"/>
      <point x="280" y="642" type="line"/>
      <point x="404" y="642" type="line"/>
      <point x="404" y="210" type="line" smooth="yes"/>
      <point x="404" y="112"/>
      <point x="368" y="44"/>
      <point x="262" y="44" type="curve" smooth="yes"/>
      <point x="158" y="44"/>
      <point x="108" y="112"/>
      <point x="108" y="210" type="curve" smooth="yes"/>
      <point x="108" y="259" type="line"/>
      <point x="44" y="259" type="line"/>
      <point x="44" y="210" type="line" smooth="yes"/>
      <point x="44" y="64"/>
      <point x="127" y="-14"/>
    </contour>
  </outline>
</glyph>
<glyph name="L" format="2">
  <advance width="547"/>
  <unicode hex="004C"/>
  <anchor x="302" y="0" name="bottom"/>
  <anchor x="149" y="700" name="caron"/>
  <anchor x="150" y="700" name="sidecaron"/>
  <anchor x="117" y="700" name="top"/>
  <outline>
    <contour>
      <point x="518" y="0" type="line"/>
      <point x="518" y="58" type="line"/>
      <point x="150" y="58" type="line"/>
      <point x="150" y="700" type="line"/>
      <point x="86" y="700" type="line"/>
      <point x="86" y="0" type="line"/>
    </contour>
  </outline>
</glyph>
<glyph name="M" format="2">
  <advance width="858"/>
  <unicode hex="004D"/>
  <anchor x="429" y="0" name="bottom"/>
  <outline>
    <contour>
      <point x="148" y="0" type="line"/>
      <point x="148" y="662" type="line"/>
      <point x="160" y="662" type="line"/>
      <point x="372" y="0" type="line"/>
      <point x="486" y="0" type="line"/>
      <point x="698" y="662" type="line"/>
      <point x="710" y="662" type="line"/>
      <point x="710" y="0" type="line"/>
      <point x="772" y="0" type="line"/>
      <point x="772" y="700" type="line"/>
      <point x="647" y="700" type="line"/>
      <point x="435" y="38" type="line"/>
      <point x="423" y="38" type="line"/>
      <point x="211" y="700" type="line"/>
      <point x="86" y="700" type="line"/>
      <point x="86" y="0" type="line"/>
    </contour>
  </outline>
</glyph>
<glyph name="N" format="2">
  <advance width="661"/>
  <unicode hex="004E"/>
  <anchor x="334" y="0" name="bottom"/>
  <anchor x="335" y="700" name="top"/>
  <outline>
    <contour>
      <point x="150" y="0" type="line"/>
      <point x="150" y="663" type="line"/>
      <point x="162" y="663" type="line"/>
      <point x="448" y="0" type="line"/>
      <point x="575" y="0" type="line"/>
      <point x="575" y="700" type="line"/>
      <point x="511" y="700" type="line"/>
      <point x="511" y="38" type="line"/>
      <point x="499" y="38" type="line"/>
      <point x="213" y="700" type="line"/>
      <point x="86" y="700" type="line"/>
      <point x="86" y="0" type="line"/>
    </contour>
  </outline>
</glyph>
<glyph name="O" format="2">
  <advance width="666"/>
  <unicode hex="004F"/>
  <anchor x="333" y="0" name="bottom"/>
  <anchor x="436" y="700" name="horn"/>
  <anchor x="349" y="0" name="ogonek"/>
  <anchor x="333" y="700" name="top"/>
  <outline>
    <contour>
      <point x="333" y="-14" type="curve" smooth="yes"/>
      <point x="497" y="-14"/>
      <point x="602" y="84"/>
      <point x="602" y="271" type="curve" smooth="yes"/>
      <point x="602" y="429" type="line" smooth="yes"/>
      <point x="602" y="616"/>
      <point x="497" y="714"/>
      <point x="333" y="714" type="curve" smooth="yes"/>
      <point x="169" y="714"/>
      <point x="64" y="616"/>
      <point x="64" y="429" type="curve" smooth="yes"/>
      <point x="64" y="271" type="line" smooth="yes"/>
      <point x="64" y="84"/>
      <point x="169" y="-14"/>
    </contour>
    <contour>
      <point x="333" y="44" type="curve" smooth="yes"/>
      <point x="203" y="44"/>
      <point x="128" y="126"/>
      <point x="128" y="269" type="curve" smooth="yes"/>
      <point x="128" y="431" type="line" smooth="yes"/>
      <point x="128" y="574"/>
      <point x="203" y="656"/>
      <point x="333" y="656" type="curve" smooth="yes"/>
      <point x="463" y="656"/>
      <point x="538" y="574"/>
      <point x="538" y="431" type="curve" smooth="yes"/>
      <point x="538" y="269" type="line" smooth="yes"/>
      <point x="538" y="126"/>
      <point x="463" y="44"/>
    </contour>
  </outline>
</glyph>
<glyph name="P" format="2">
  <advance width="600"/>
  <unicode hex="0050"/>
  <outline>
    <contour>
      <point x="150" y="0" type="line"/>
      <point x="150" y="292" type="line"/>
      <point x="345" y="292" type="line" smooth="yes"/>
      <point x="466" y="292"/>
      <point x="564" y="364"/>
      <point x="564" y="490" type="curve" smooth="yes"/>
      <point x="564" y="502" type="line" smooth="yes"/>
      <point x="564" y="628"/>
      <point x="468" y="700"/>
      <point x="345" y="700" type="curve" smooth="yes"/>
      <point x="86" y="700" type="line"/>
      <point x="86" y="0" type="line"/>
    </contour>
    <contour>
      <point x="150" y="642" type="line"/>
      <point x="338" y="642" type="line" smooth="yes"/>
      <point x="440" y="642"/>
      <point x="500" y="591"/>
      <point x="500" y="501" type="curve" smooth="yes"/>
      <point x="500" y="491" type="line" smooth="yes"/>
      <point x="500" y="401"/>
      <point x="438" y="350"/>
      <point x="338" y="350" type="curve" smooth="yes"/>
      <point x="150" y="350" type="line"/>
    </contour>
  </outline>
</glyph>
<glyph name="R" format="2">
  <advance width="631"/>
  <unicode hex="0052"/>
  <anchor x="319" y="0" name="bottom"/>
  <anchor x="310" y="700" name="top"/>
  <outline>
    <contour>
      <point x="150" y="0" type="line"/>
      <point x="150" y="297" type="line"/>
      <point x="416" y="297" type="line" smooth="yes"/>
      <point x="463" y="297"/>
      <point x="486" y="274"/>
      <point x="486" y="231" type="curve" smooth="yes"/>
      <point x="486" y="0" type="line"/>
      <point x="550" y="0" type="line"/>
      <point x="550" y="238" type="line" smooth="yes"/>
      <point x="550" y="299"/>
      <point x="513" y="325"/>
      <point x="467" y="327" type="curve"/>
      <point x="467" y="339" type="line"/>
      <point x="528" y="356"/>
      <point x="581" y="409"/>
      <point x="581" y="504" type="curve" smooth="yes"/>
      <point x="581" y="514" type="line" smooth="yes"/>
      <point x="581" y="632"/>
      <point x="489" y="700"/>
      <point x="360" y="700" type="curve" smooth="yes"/>
      <point x="86" y="700" type="line"/>
      <point x="86" y="0" type="line"/>
    </contour>
    <contour>
      <point x="150" y="642" type="line"/>
      <point x="354" y="642" type="line" smooth="yes"/>
      <point x="460" y="642"/>
      <point x="517" y="592"/>
      <point x="517" y="501" type="curve" smooth="yes"/>
      <point x="517" y="496" type="line" smooth="yes"/>
      <point x="517" y="405"/>
      <point x="458" y="355"/>
      <point x="354" y="355" type="curve" smooth="yes"/>
      <point x="150" y="355" type="line"/>
    </contour>
  </outline>
</glyph>
<glyph name="S" format="2">
  <advance width="616"/>
  <unicode hex="0053"/>
  <anchor x="320" y="0" name="bottom"/>
  <anchor x="307" y="700" name="top"/>
  <outline>
    <contour>
      <point x="315" y="-14" type="curve" smooth="yes"/>
      <point x="463" y="-14"/>
      <point x="560" y="64"/>
      <point x="560" y="186" type="curve" smooth="yes"/>
      <point x="560" y="308"/>
      <point x="466" y="351"/>
      <point x="357" y="378" type="curve" smooth="yes"/>
      <point x="293" y="394" type="line" smooth="yes"/>
      <point x="196" y="418"/>
      <point x="135" y="444"/>
      <point x="135" y="528" type="curve" smooth="yes"/>
      <point x="135" y="612"/>
      <point x="205" y="658"/>
      <point x="303" y="658" type="curve" smooth="yes"/>
      <point x="405" y="658"/>
      <point x="484" y="612"/>
      <point x="484" y="503" type="curve" smooth="yes"/>
      <point x="484" y="456" type="line"/>
      <point x="548" y="456" type="line"/>
      <point x="548" y="503" type="line" smooth="yes"/>
      <point x="548" y="642"/>
      <point x="440" y="714"/>
      <point x="303" y="714" type="curve" smooth="yes"/>
      <point x="166" y="714"/>
      <point x="71" y="642"/>
      <point x="71" y="528" type="curve" smooth="yes"/>
      <point x="71" y="414"/>
      <point x="155" y="367"/>
      <point x="270" y="338" type="curve" smooth="yes"/>
      <point x="334" y="322" type="line" smooth="yes"/>
      <point x="430" y="298"/>
      <point x="496" y="270"/>
      <point x="496" y="186" type="curve" smooth="yes"/>
      <point x="496" y="102"/>
      <point x="431" y="42"/>
      <point x="315" y="42" type="curve" smooth="yes"/>
      <point x="200" y="42"/>
      <point x="118" y="102"/>
      <point x="118" y="232" type="curve" smooth="yes"/>
      <point x="118" y="251" type="line"/>
      <point x="54" y="251" type="line"/>
      <point x="54" y="232" type="line" smooth="yes"/>
      <point x="54" y="64"/>
      <point x="166" y="-14"/>
    </contour>
  </outline>
</glyph>
<glyph name="X" format="2">
  <advance width="635"/>
  <unicode hex="0058"/>
  <outline>
    <contour>
      <point x="113" y="0" type="line"/>
      <point x="311" y="309" type="line"/>
      <point x="323" y="309" type="line"/>
      <point x="522" y="0" type="line"/>
      <point x="599" y="0" type="line"/>
      <point x="365" y="353" type="line"/>
      <point x="595" y="700" type="line"/>
      <point x="518" y="700" type="line"/>
      <point x="323" y="397" type="line"/>
      <point x="311" y="397" type="line"/>
      <point x="117" y="700" type="line"/>
      <point x="40" y="700" type="line"/>
      <point x="270" y="353" type="line"/>
      <point x="36" y="0" type="line"/>
    </contour>
  </outline>
</glyph>
<glyph name="Y" format="2">
  <advance width="604"/>
  <unicode hex="0059"/>
  <anchor x="302" y="0" name="bottom"/>
  <anchor x="302" y="700" name="top"/>
  <outline>
    <contour>
      <point x="334" y="0" type="line"/>
      <point x="334" y="277" type="line"/>
      <point x="588" y="700" type="line"/>
      <point x="512" y="700" type="line"/>
      <point x="308" y="350" type="line"/>
      <point x="296" y="350" type="line"/>
      <point x="92" y="700" type="line"/>
      <point x="16" y="700" type="line"/>
      <point x="270" y="277" type="line"/>
      <point x="270" y="0" type="line"/>
    </contour>
  </outline>
</glyph>
<glyph name="bracketleft" format="2">
  <advance width="326"/>
  <unicode hex="005B"/>
  <outline>
    <contour>
      <point x="306" y="-230" type="line"/>
      <point x="306" y="-178" type="line"/>
      <point x="173" y="-178" type="line" smooth="yes"/>
      <point x="155" y="-178"/>
      <point x="146" y="-168"/>
      <point x="146" y="-148" type="curve" smooth="yes"/>
      <point x="146" y="658" type="line" smooth="yes"/>
      <point x="146" y="678"/>
      <point x="155" y="688"/>
      <point x="173" y="688" type="curve" smooth="yes"/>
      <point x="306" y="688" type="line"/>
      <point x="306" y="740" type="line"/>
      <point x="156" y="740" type="line" smooth="yes"/>
      <point x="116" y="740"/>
      <point x="88" y="710"/>
      <point x="88" y="671" type="curve" smooth="yes"/>
      <point x="88" y="-161" type="line" smooth="yes"/>
      <point x="88" y="-200"/>
      <point x="116" y="-230"/>
      <point x="156" y="-230" type="curve" smooth="yes"/>
    </contour>
  </outline>
</glyph>
<glyph name="backslash" format="2">
  <advance width="363"/>
  <unicode hex="005C"/>
  <outline>
    <contour>
      <point x="357" y="-200" type="line"/>
      <point x="63" y="700" type="line"/>
      <point x="2" y="700" type="line"/>
      <point x="296" y="-200" type="line"/>
    </contour>
  </outline>
</glyph>
<glyph name="underscore" format="2">
  <advance width="620"/>
  <unicode hex="005F"/>
  <outline>
    <contour>
      <point x="538" y="-106" type="line"/>
      <point x="538" y="-50" type="line"/>
      <point x="82" y="-50" type="line"/>
      <point x="82" y="-106" type="line"/>
    </contour>
  </outline>
</glyph>
<glyph name="c" format="2">
  <advance width="603"/>
  <unicode hex="0063"/>
  <anchor x="310" y="0" name="bottom"/>
  <anchor x="310" y="486" name="top"/>
  <outline>
    <contour>
      <point x="310" y="-14" type="curve" smooth="yes"/>
      <point x="450" y="-14"/>
      <point x="525" y="76"/>
      <point x="543" y="171" type="curve"/>
      <point x="484" y="183" type="line"/>
      <point x="471" y="103"/>
      <point x="416" y="40"/>
      <point x="310" y="40" type="curve" smooth="yes"/>
      <point x="204" y="40"/>
      <point x="124" y="117"/>
      <point x="124" y="239" type="curve" smooth="yes"/>
      <point x="124" y="247" type="line" smooth="yes"/>
      <point x="124" y="369"/>
      <point x="204" y="446"/>
      <point x="310" y="446" type="curve" smooth="yes"/>
      <point x="416" y="446"/>
      <point x="470" y="380"/>
      <point x="480" y="303" type="curve"/>
      <point x="539" y="315" type="line"/>
      <point x="525" y="409"/>
      <point x="450" y="500"/>
      <point x="310" y="500" type="curve" smooth="yes"/>
      <point x="168" y="500"/>
      <point x="64" y="403"/>
      <point x="64" y="248" type="curve" smooth="yes"/>
      <point x="64" y="238" type="line" smooth="yes"/>
      <point x="64" y="83"/>
      <point x="168" y="-14"/>
    </contour>
  </outline>
</glyph>
<glyph name="g" format="2">
  <advance width="644"/>
  <unicode hex="0067"/>
  <anchor x="332" y="486" name="top"/>
  <outline>
    <contour>
      <point x="64" y="241" type="line" smooth="yes"/>
      <point x="64" y="89"/>
      <point x="167" y="-6"/>
      <point x="298" y="-6" type="curve" smooth="yes"/>
      <point x="405" y="-6"/>
      <point x="460" y="44"/>
      <point x="486" y="93" type="curve"/>
      <point x="498" y="93" type="line"/>
      <point x="498" y="-116" type="line" smooth="yes"/>
      <point x="498" y="-136"/>
      <point x="489" y="-146"/>
      <point x="467" y="-146" type="curve" smooth="yes"/>
      <point x="147" y="-146" type="line"/>
      <point x="147" y="-200" type="line"/>
      <point x="479" y="-200" type="line" smooth="yes"/>
      <point x="531" y="-200"/>
      <point x="556" y="-172"/>
      <point x="556" y="-124" type="curve" smooth="yes"/>
      <point x="556" y="486" type="line"/>
      <point x="500" y="486" type="line"/>
      <point x="500" y="397" type="line"/>
      <point x="488" y="397" type="line"/>
      <point x="460" y="450"/>
      <point x="405" y="500"/>
      <point x="298" y="500" type="curve" smooth="yes"/>
      <point x="168" y="500"/>
      <point x="64" y="406"/>
      <point x="64" y="253" type="curve" smooth="yes"/>
    </contour>
    <contour>
      <point x="312" y="48" type="curve" smooth="yes"/>
      <point x="202" y="48"/>
      <point x="126" y="121"/>
      <point x="126" y="243" type="curve" smooth="yes"/>
      <point x="126" y="251" type="line" smooth="yes"/>
      <point x="126" y="373"/>
      <point x="202" y="446"/>
      <point x="312" y="446" type="curve" smooth="yes"/>
      <point x="422" y="446"/>
      <point x="498" y="373"/>
      <point x="498" y="251" type="curve" smooth="yes"/>
      <point x="498" y="243" type="line" smooth="yes"/>
      <point x="498" y="121"/>
      <point x="422" y="48"/>
    </contour>
  </outline>
</glyph>
<glyph name="k" format="2">
  <advance width="527"/>
  <unicode hex="006B"/>
  <anchor x="278" y="0" name="bottom"/>
  <outline>
    <contour>
      <point x="148" y="0" type="line"/>
      <point x="148" y="219" type="line"/>
      <point x="160" y="219" type="line"/>
      <point x="418" y="0" type="line"/>
      <point x="505" y="0" type="line"/>
      <point x="209" y="249" type="line"/>
      <point x="497" y="486" type="line"/>
      <point x="409" y="486" type="line"/>
      <point x="160" y="278" type="line"/>
      <point x="148" y="278" type="line"/>
      <point x="148" y="700" type="line"/>
      <point x="88" y="700" type="line"/>
      <point x="88" y="0" type="line"/>
    </contour>
  </outline>
</glyph>
<glyph name="l" format="2">
  <advance width="236"/>
  <unicode hex="006C"/>
  <anchor x="118" y="0" name="bottom"/>
  <anchor x="148" y="700" name="sidecaron"/>
  <anchor x="118" y="700" name="top"/>
  <outline>
    <contour>
      <point x="148" y="0" type="line"/>
      <point x="148" y="700" type="line"/>
      <point x="88" y="700" type="line"/>
      <point x="88" y="0" type="line"/>
    </contour>
  </outline>
</glyph>
<glyph name="m" format="2">
  <advance width="862"/>
  <unicode hex="006D"/>
  <anchor x="434" y="0" name="bottom"/>
  <outline>
    <contour>
      <point x="148" y="0" type="line"/>
      <point x="148" y="295" type="line" smooth="yes"/>
      <point x="148" y="391"/>
      <point x="207" y="442"/>
      <point x="284" y="442" type="curve" smooth="yes"/>
      <point x="360" y="442"/>
      <point x="404" y="396"/>
      <point x="404" y="327" type="curve" smooth="yes"/>
      <point x="404" y="0" type="line"/>
      <point x="464" y="0" type="line"/>
      <point x="464" y="295" type="line" smooth="yes"/>
      <point x="464" y="391"/>
      <point x="523" y="442"/>
      <point x="600" y="442" type="curve" smooth="yes"/>
      <point x="676" y="442"/>
      <point x="720" y="396"/>
      <point x="720" y="327" type="curve" smooth="yes"/>
      <point x="720" y="0" type="line"/>
      <point x="780" y="0" type="line"/>
      <point x="780" y="333" type="line" smooth="yes"/>
      <point x="780" y="430"/>
      <point x="713" y="496"/>
      <point x="614" y="496" type="curve" smooth="yes"/>
      <point x="527" y="496"/>
      <point x="482" y="455"/>
      <point x="460" y="404" type="curve"/>
      <point x="448" y="404" type="line"/>
      <point x="426" y="454"/>
      <point x="378" y="496"/>
      <point x="300" y="496" type="curve" smooth="yes"/>
      <point x="218" y="496"/>
      <point x="178" y="458"/>
      <point x="158" y="422" type="curve"/>
      <point x="146" y="422" type="line"/>
      <point x="146" y="486" type="line"/>
      <point x="88" y="486" type="line"/>
      <point x="88" y="0" type="line"/>
    </contour>
  </outline>
</glyph>
<glyph name="n" format="2">
  <advance width="612"/>
  <unicode hex="006E"/>
  <anchor x="88" y="486" name="apostrophe"/>
  <anchor x="309" y="0" name="bottom"/>
  <anchor x="310" y="486" name="top"/>
  <outline>
    <contour>
      <point x="148" y="0" type="line"/>
      <point x="148" y="243" type="line" smooth="yes"/>
      <point x="148" y="376"/>
      <point x="223" y="442"/>
      <point x="323" y="442" type="curve" smooth="yes"/>
      <point x="412" y="442"/>
      <point x="470" y="398"/>
      <point x="470" y="292" type="curve" smooth="yes"/>
      <point x="470" y="0" type="line"/>
      <point x="530" y="0" type="line"/>
      <point x="530" y="296" type="line" smooth="yes"/>
      <point x="530" y="430"/>
      <point x="441" y="496"/>
      <point x="336" y="496" type="curve" smooth="yes"/>
      <point x="232" y="496"/>
      <point x="182" y="448"/>
      <point x="158" y="396" type="curve"/>
      <point x="146" y="396" type="line"/>
      <point x="146" y="486" type="line"/>
      <point x="88" y="486" type="line"/>
      <point x="88" y="0" type="line"/>
    </contour>
  </outline>
</glyph>
<glyph name="p" format="2">
  <advance width="646"/>
  <unicode hex="0070"/>
  <outline>
    <contour>
      <point x="148" y="-200" type="line"/>
      <point x="148" y="85" type="line"/>
      <point x="160" y="85" type="line"/>
      <point x="186" y="36"/>
      <point x="241" y="-14"/>
      <point x="348" y="-14" type="curve" smooth="yes"/>
      <point x="479" y="-14"/>
      <point x="582" y="83"/>
      <point x="582" y="237" type="curve" smooth="yes"/>
      <point x="582" y="249" type="line" smooth="yes"/>
      <point x="582" y="404"/>
      <point x="478" y="500"/>
      <point x="348" y="500" type="curve" smooth="yes"/>
      <point x="241" y="500"/>
      <point x="186" y="450"/>
      <point x="158" y="397" type="curve"/>
      <point x="146" y="397" type="line"/>
      <point x="146" y="486" type="line"/>
      <point x="88" y="486" type="line"/>
      <point x="88" y="-200" type="line"/>
    </contour>
    <contour>
      <point x="334" y="40" type="curve" smooth="yes"/>
      <point x="224" y="40"/>
      <point x="148" y="115"/>
      <point x="148" y="239" type="curve" smooth="yes"/>
      <point x="148" y="247" type="line" smooth="yes"/>
      <point x="148" y="371"/>
      <point x="224" y="446"/>
      <point x="334" y="446" type="curve" smooth="yes"/>
      <point x="444" y="446"/>
      <point x="520" y="371"/>
      <point x="520" y="247" type="curve" smooth="yes"/>
      <point x="520" y="239" type="line" smooth="yes"/>
      <point x="520" y="115"/>
      <point x="444" y="40"/>
    </contour>
  </outline>
</glyph>
<glyph name="q" format="2">
  <advance width="646"/>
  <unicode hex="0071"/>
  <outline>
    <contour>
      <point x="558" y="-200" type="line"/>
      <point x="558" y="486" type="line"/>
      <point x="500" y="486" type="line"/>
      <point x="500" y="397" type="line"/>
      <point x="488" y="397" type="line"/>
      <point x="460" y="450"/>
      <point x="405" y="500"/>
      <point x="298" y="500" type="curve" smooth="yes"/>
      <point x="168" y="500"/>
      <point x="64" y="404"/>
      <point x="64" y="249" type="curve" smooth="yes"/>
      <point x="64" y="237" type="line" smooth="yes"/>
      <point x="64" y="83"/>
      <point x="167" y="-14"/>
      <point x="298" y="-14" type="curve" smooth="yes"/>
      <point x="405" y="-14"/>
      <point x="460" y="36"/>
      <point x="486" y="85" type="curve"/>
      <point x="498" y="85" type="line"/>
      <point x="498" y="-200" type="line"/>
    </contour>
    <contour>
      <point x="312" y="40" type="curve" smooth="yes"/>
      <point x="202" y="40"/>
      <point x="126" y="115"/>
      <point x="126" y="239" type="curve" smooth="yes"/>
      <point x="126" y="247" type="line" smooth="yes"/>
      <point x="126" y="371"/>
      <point x="202" y="446"/>
      <point x="312" y="446" type="curve" smooth="yes"/>
      <point x="422" y="446"/>
      <point x="498" y="371"/>
      <point x="498" y="247" type="curve" smooth="yes"/>
      <point x="498" y="239" type="line" smooth="yes"/>
      <point x="498" y="115"/>
      <point x="422" y="40"/>
    </contour>
  </outline>
</glyph>
<glyph name="r" format="2">
  <advance width="369"/>
  <unicode hex="0072"/>
  <anchor x="118" y="0" name="bottom"/>
  <anchor x="211" y="486" name="top"/>
  <outline>
    <contour>
      <point x="148" y="0" type="line"/>
      <point x="148" y="304" type="line" smooth="yes"/>
      <point x="148" y="392"/>
      <point x="195" y="432"/>
      <point x="269" y="432" type="curve" smooth="yes"/>
      <point x="333" y="432" type="line"/>
      <point x="333" y="488" type="line"/>
      <point x="276" y="488" type="line" smooth="yes"/>
      <point x="211" y="488"/>
      <point x="176" y="469"/>
      <point x="158" y="425" type="curve"/>
      <point x="146" y="425" type="line"/>
      <point x="146" y="486" type="line"/>
      <point x="88" y="486" type="line"/>
      <point x="88" y="0" type="line"/>
    </contour>
  </outline>
</glyph>
<glyph name="s" format="2">
  <advance width="528"/>
  <unicode hex="0073"/>
  <anchor x="274" y="0" name="bottom"/>
  <anchor x="261" y="486" name="top"/>
  <outline>
    <contour>
      <point x="281" y="-14" type="curve" smooth="yes"/>
      <point x="399" y="-14"/>
      <point x="474" y="38"/>
      <point x="474" y="130" type="curve" smooth="yes"/>
      <point x="474" y="222"/>
      <point x="396" y="254"/>
      <point x="297" y="271" type="curve" smooth="yes"/>
      <point x="251" y="279" type="line" smooth="yes"/>
      <point x="182" y="291"/>
      <point x="139" y="311"/>
      <point x="139" y="365" type="curve" smooth="yes"/>
      <point x="139" y="419"/>
      <point x="186" y="448"/>
      <point x="260" y="448" type="curve" smooth="yes"/>
      <point x="334" y="448"/>
      <point x="388" y="419"/>
      <point x="401" y="342" type="curve"/>
      <point x="457" y="354" type="line"/>
      <point x="439" y="449"/>
      <point x="370" y="500"/>
      <point x="260" y="500" type="curve" smooth="yes"/>
      <point x="150" y="500"/>
      <point x="79" y="449"/>
      <point x="79" y="365" type="curve" smooth="yes"/>
      <point x="79" y="281"/>
      <point x="149" y="242"/>
      <point x="242" y="226" type="curve" smooth="yes"/>
      <point x="288" y="218" type="line" smooth="yes"/>
      <point x="364" y="205"/>
      <point x="414" y="188"/>
      <point x="414" y="130" type="curve" smooth="yes"/>
      <point x="414" y="72"/>
      <point x="361" y="38"/>
      <point x="281" y="38" type="curve" smooth="yes"/>
      <point x="201" y="38"/>
      <point x="128" y="72"/>
      <point x="113" y="178" type="curve"/>
      <point x="54" y="167" type="line"/>
      <point x="72" y="38"/>
      <point x="163" y="-14"/>
    </contour>
  </outline>
</glyph>
<glyph name="t" format="2">
  <advance width="462"/>
  <unicode hex="0074"/>
  <anchor x="261" y="0" name="bottom"/>
  <anchor x="260" y="762" name="sidecaron"/>
  <anchor x="216" y="652" name="top"/>
  <outline>
    <contour>
      <point x="390" y="0" type="line"/>
      <point x="390" y="54" type="line"/>
      <point x="276" y="54" type="line" smooth="yes"/>
      <point x="254" y="54"/>
      <point x="246" y="64"/>
      <point x="246" y="84" type="curve" smooth="yes"/>
      <point x="246" y="432" type="line"/>
      <point x="416" y="432" type="line"/>
      <point x="416" y="486" type="line"/>
      <point x="246" y="486" type="line"/>
      <point x="246" y="668" type="line"/>
      <point x="186" y="668" type="line"/>
      <point x="186" y="486" type="line"/>
      <point x="30" y="486" type="line"/>
      <point x="30" y="432" type="line"/>
      <point x="186" y="432" type="line"/>
      <point x="186" y="76" type="line" smooth="yes"/>
      <point x="186" y="28"/>
      <point x="212" y="0"/>
      <point x="264" y="0" type="curve" smooth="yes"/>
    </contour>
  </outline>
</glyph>
<glyph name="v" format="2">
  <advance width="536"/>
  <unicode hex="0076"/>
  <outline>
    <contour>
      <point x="316" y="0" type="line"/>
      <point x="498" y="486" type="line"/>
      <point x="434" y="486" type="line"/>
      <point x="274" y="46" type="line"/>
      <point x="262" y="46" type="line"/>
      <point x="102" y="486" type="line"/>
      <point x="38" y="486" type="line"/>
      <point x="220" y="0" type="line"/>
    </contour>
  </outline>
</glyph>
<glyph name="w" format="2">
  <advance width="808"/>
  <unicode hex="0077"/>
  <anchor x="404" y="486" name="top"/>
  <outline>
    <contour>
      <point x="273" y="0" type="line"/>
      <point x="398" y="446" type="line"/>
      <point x="410" y="446" type="line"/>
      <point x="535" y="0" type="line"/>
      <point x="640" y="0" type="line"/>
      <point x="750" y="486" type="line"/>
      <point x="688" y="486" type="line"/>
      <point x="592" y="40" type="line"/>
      <point x="580" y="40" type="line"/>
      <point x="455" y="486" type="line"/>
      <point x="353" y="486" type="line"/>
      <point x="228" y="40" type="line"/>
      <point x="216" y="40" type="line"/>
      <point x="120" y="486" type="line"/>
      <point x="58" y="486" type="line"/>
      <point x="168" y="0" type="line"/>
    </contour>
  </outline>
</glyph>
<glyph name="z" format="2">
  <advance width="522"/>
  <unicode hex="007A"/>
  <anchor x="262" y="0" name="bottom"/>
  <anchor x="253" y="486" name="top"/>
  <outline>
    <contour>
      <point x="460" y="0" type="line"/>
      <point x="460" y="54" type="line"/>
      <point x="124" y="54" type="line"/>
      <point x="124" y="64" type="line"/>
      <point x="452" y="404" type="line"/>
      <point x="452" y="486" type="line"/>
      <point x="74" y="486" type="line"/>
      <point x="74" y="432" type="line"/>
      <point x="391" y="432" type="line"/>
      <point x="391" y="422" type="line"/>
      <point x="64" y="82" type="line"/>
      <point x="64" y="0" type="line"/>
    </contour>
  </outline>
</glyph>
<glyph name="braceright" format="2">
  <advance width="418"/>
  <unicode hex="007D"/>
  <outline>
    <contour>
      <point x="170" y="-230" type="line" smooth="yes"/>
      <point x="209" y="-230"/>
      <point x="238" y="-200"/>
      <point x="238" y="-161" type="curve" smooth="yes"/>
      <point x="238" y="167" type="line" smooth="yes"/>
      <point x="238" y="206"/>
      <point x="259" y="226"/>
      <point x="303" y="226" type="curve" smooth="yes"/>
      <point x="378" y="226" type="line"/>
      <point x="378" y="284" type="line"/>
      <point x="303" y="284" type="line" smooth="yes"/>
      <point x="259" y="284"/>
      <point x="238" y="304"/>
      <point x="238" y="343" type="curve" smooth="yes"/>
      <point x="238" y="671" type="line" smooth="yes"/>
      <point x="238" y="710"/>
      <point x="209" y="740"/>
      <point x="170" y="740" type="curve" smooth="yes"/>
      <point x="20" y="740" type="line"/>
      <point x="20" y="688" type="line"/>
      <point x="153" y="688" type="line" smooth="yes"/>
      <point x="171" y="688"/>
      <point x="180" y="678"/>
      <point x="180" y="658" type="curve" smooth="yes"/>
      <point x="180" y="341" type="line" smooth="yes"/>
      <point x="180" y="292"/>
      <point x="205" y="261"/>
      <point x="253" y="261" type="curve" smooth="yes"/>
      <point x="256" y="261" type="line"/>
      <point x="256" y="249" type="line"/>
      <point x="253" y="249" type="line" smooth="yes"/>
      <point x="205" y="249"/>
      <point x="180" y="218"/>
      <point x="180" y="169" type="curve" smooth="yes"/>
      <point x="180" y="-148" type="line" smooth="yes"/>
      <point x="180" y="-168"/>
      <point x="171" y="-178"/>
      <point x="153" y="-178" type="curve" smooth="yes"/>
      <point x="20" y="-178" type="line"/>
      <point x="20" y="-230" type="line"/>
    </contour>
  </outline>
</glyph>
<glyph name="exclamdown" format="2">
  <advance width="234"/>
  <unicode hex="00A1"/>
  <outline>
    <component base="period" xScale="-1" yScale="-1" xOffset="234" yOffset="486"/>
    <contour>
      <point x="148" y="-200" type="line"/>
      <point x="148" y="316" type="line"/>
      <point x="86" y="316" type="line"/>
      <point x="86" y="-200" type="line"/>
    </contour>
  </outline>
</glyph>
<glyph name="ordfeminine" format="2">
  <advance width="420"/>
  <unicode hex="00AA"/>
  <outline>
    <contour>
      <point x="176" y="340" type="curve" smooth="yes"/>
      <point x="245" y="340"/>
      <point x="275" y="371"/>
      <point x="290" y="401" type="curve"/>
      <point x="302" y="401" type="line"/>
      <point x="302" y="368"/>
      <point x="324" y="350"/>
      <point x="359" y="350" type="curve" smooth="yes"/>
      <point x="398" y="350" type="line"/>
      <point x="398" y="394" type="line"/>
      <point x="366" y="394" type="line" smooth="yes"/>
      <point x="353" y="394"/>
      <point x="346" y="401"/>
      <point x="346" y="416" type="curve" smooth="yes"/>
      <point x="346" y="572" type="line" smooth="yes"/>
      <point x="346" y="656"/>
      <point x="293" y="706"/>
      <point x="204" y="706" type="curve" smooth="yes"/>
      <point x="115" y="706"/>
      <point x="66" y="656"/>
      <point x="50" y="599" type="curve"/>
      <point x="101" y="587" type="line"/>
      <point x="111" y="628"/>
      <point x="141" y="662"/>
      <point x="204" y="662" type="curve" smooth="yes"/>
      <point x="266" y="662"/>
      <point x="296" y="628"/>
      <point x="296" y="574" type="curve" smooth="yes"/>
      <point x="296" y="550" type="line"/>
      <point x="174" y="550" type="line" smooth="yes"/>
      <point x="103" y="550"/>
      <point x="42" y="520"/>
      <point x="42" y="448" type="curve" smooth="yes"/>
      <point x="42" y="376"/>
      <point x="102" y="340"/>
    </contour>
    <contour>
      <point x="180" y="386" type="curve" smooth="yes"/>
      <point x="126" y="386"/>
      <point x="92" y="406"/>
      <point x="92" y="448" type="curve" smooth="yes"/>
      <point x="92" y="490"/>
      <point x="126" y="506"/>
      <point x="176" y="506" type="curve" smooth="yes"/>
      <point x="296" y="506" type="line"/>
      <point x="296" y="497" type="line" smooth="yes"/>
      <point x="296" y="422"/>
      <point x="253" y="386"/>
    </contour>
  </outline>
</glyph>
<glyph name="guillemetleft" format="2">
  <advance width="668"/>
  <unicode hex="00AB"/>
  <outline>
    <contour>
      <point x="598" y="26" type="line"/>
      <point x="598" y="91" type="line"/>
      <point x="360" y="242" type="line"/>
      <point x="360" y="252" type="line"/>
      <point x="598" y="403" type="line"/>
      <point x="598" y="468" type="line"/>
      <point x="592" y="468" type="line"/>
      <point x="306" y="284" type="line"/>
      <point x="306" y="210" type="line"/>
      <point x="592" y="26" type="line"/>
    </contour>
    <contour>
      <point x="344" y="26" type="line"/>
      <point x="344" y="91" type="line"/>
      <point x="106" y="242" type="line"/>
      <point x="106" y="252" type="line"/>
      <point x="344" y="403" type="line"/>
      <point x="344" y="468" type="line"/>
      <point x="338" y="468" type="line"/>
      <point x="52" y="284" type="line"/>
      <point x="52" y="210" type="line"/>
      <point x="338" y="26" type="line"/>
    </contour>
  </outline>
</glyph>
<glyph name="plusminus" format="2">
  <advance width="620"/>
  <unicode hex="00B1"/>
  <outline>
    <contour>
      <point x="339" y="142" type="line"/>
      <point x="339" y="322" type="line"/>
      <point x="520" y="322" type="line"/>
      <point x="520" y="378" type="line"/>
      <point x="339" y="378" type="line"/>
      <point x="339" y="558" type="line"/>
      <point x="281" y="558" type="line"/>
      <point x="281" y="378" type="line"/>
      <point x="100" y="378" type="line"/>
      <point x="100" y="322" type="line"/>
      <point x="281" y="322" type="line"/>
      <point x="281" y="142" type="line"/>
    </contour>
    <contour>
      <point x="520" y="0" type="line"/>
      <point x="520" y="56" type="line"/>
      <point x="100" y="56" type="line"/>
      <point x="100" y="0" type="line"/>
    </contour>
  </outline>
</glyph>
<glyph name="ordmasculine" format="2">
  <advance width="438"/>
  <unicode hex="00BA"/>
  <outline>
    <contour>
      <point x="219" y="340" type="curve" smooth="yes"/>
      <point x="325" y="340"/>
      <point x="396" y="408"/>
      <point x="396" y="523" type="curve" smooth="yes"/>
      <point x="396" y="638"/>
      <point x="325" y="706"/>
      <point x="219" y="706" type="curve" smooth="yes"/>
      <point x="113" y="706"/>
      <point x="42" y="638"/>
      <point x="42" y="523" type="curve" smooth="yes"/>
      <point x="42" y="408"/>
      <point x="113" y="340"/>
    </contour>
    <contour>
      <point x="219" y="384" type="curve" smooth="yes"/>
      <point x="144" y="384"/>
      <point x="93" y="439"/>
      <point x="93" y="523" type="curve" smooth="yes"/>
      <point x="93" y="607"/>
      <point x="144" y="662"/>
      <point x="219" y="662" type="curve" smooth="yes"/>
      <point x="294" y="662"/>
      <point x="345" y="607"/>
      <point x="345" y="523" type="curve" smooth="yes"/>
      <point x="345" y="439"/>
      <point x="294" y="384"/>
    </contour>
  </outline>
</glyph>
<glyph name="guillemetright" format="2">
  <advance width="668"/>
  <unicode hex="00BB"/>
  <outline>
    <contour>
      <point x="330" y="26" type="line"/>
      <point x="616" y="210" type="line"/>
      <point x="616" y="284" type="line"/>
      <point x="330" y="468" type="line"/>
      <point x="324" y="468" type="line"/>
      <point x="324" y="403" type="line"/>
      <point x="562" y="252" type="line"/>
      <point x="562" y="242" type="line"/>
      <point x="324" y="91" type="line"/>
      <point x="324" y="26" type="line"/>
    </contour>
    <contour>
      <point x="76" y="26" type="line"/>
      <point x="362" y="210" type="line"/>
      <point x="362" y="284" type="line"/>
      <point x="76" y="468" type="line"/>
      <point x="70" y="468" type="line"/>
      <point x="70" y="403" type="line"/>
      <point x="308" y="252" type="line"/>
      <point x="308" y="242" type="line"/>
      <point x="70" y="91" type="line"/>
      <point x="70" y="26" type="line"/>
    </contour>
  </outline>
</glyph>
<glyph name="multiply" format="2">
  <advance width="620"/>
  <unicode hex="00D7"/>
  <outline>
    <contour>
      <point x="310" y="311" type="line"/>
      <point x="462" y="157" type="line"/>
      <point x="502" y="197" type="line"/>
      <point x="349" y="350" type="line"/>
      <point x="502" y="503" type="line"/>
      <point x="462" y="543" type="line"/>
      <point x="310" y="390" type="line"/>
      <point x="158" y="543" type="line"/>
      <point x="118" y="503" type="line"/>
      <point x="271" y="350" type="line"/>
      <point x="118" y="197" type="line"/>
      <point x="158" y="157" type="line"/>
    </contour>
  </outline>
</glyph>
<glyph name="germandbls" format="2">
  <advance width="618"/>
  <unicode hex="00DF"/>
  <outline>
    <contour>
      <point x="402" y="-14" type="curve" smooth="yes"/>
      <point x="514" y="-14"/>
      <point x="587" y="45"/>
      <point x="587" y="140" type="curve" smooth="yes"/>
      <point x="587" y="234"/>
      <point x="513" y="270"/>
      <point x="437" y="305" type="curve" smooth="yes"/>
      <point x="394" y="326" type="line"/>
      <point x="372" y="335"/>
      <point x="361" y="348"/>
      <point x="361" y="363" type="curve" smooth="yes"/>
      <point x="361" y="378"/>
      <point x="369" y="389"/>
      <point x="392" y="401" type="curve" smooth="yes"/>
      <point x="460" y="438"/>
      <point x="517" y="480"/>
      <point x="517" y="565" type="curve" smooth="yes"/>
      <point x="517" y="647"/>
      <point x="444" y="714"/>
      <point x="331" y="714" type="curve" smooth="yes"/>
      <point x="188" y="714"/>
      <point x="88" y="614"/>
      <point x="88" y="446" type="curve" smooth="yes"/>
      <point x="88" y="0" type="line"/>
      <point x="147" y="0" type="line"/>
      <point x="147" y="450" type="line" smooth="yes"/>
      <point x="147" y="603"/>
      <point x="246" y="661"/>
      <point x="331" y="661" type="curve" smooth="yes"/>
      <point x="401" y="661"/>
      <point x="458" y="626"/>
      <point x="458" y="564" type="curve" smooth="yes"/>
      <point x="458" y="506"/>
      <point x="416" y="474"/>
      <point x="369" y="448" type="curve" smooth="yes"/>
      <point x="330" y="427"/>
      <point x="301" y="405"/>
      <point x="301" y="361" type="curve" smooth="yes"/>
      <point x="301" y="327"/>
      <point x="323" y="299"/>
      <point x="369" y="278" type="curve" smooth="yes"/>
      <point x="405" y="261" type="line" smooth="yes"/>
      <point x="466" y="233"/>
      <point x="528" y="204"/>
      <point x="528" y="140" type="curve" smooth="yes"/>
      <point x="528" y="75"/>
      <point x="480" y="39"/>
      <point x="402" y="39" type="curve" smooth="yes"/>
      <point x="323" y="39"/>
      <point x="266" y="75"/>
      <point x="250" y="161" type="curve"/>
      <point x="194" y="149" type="line"/>
      <point x="208" y="44"/>
      <point x="287" y="-14"/>
    </contour>
  </outline>
</glyph>
<glyph name="eth" format="2">
  <advance width="614"/>
  <unicode hex="00F0"/>
  <outline>
    <contour>
      <point x="310" y="-14" type="curve" smooth="yes"/>
      <point x="459" y="-14"/>
      <point x="556" y="86"/>
      <point x="556" y="261" type="curve" smooth="yes"/>
      <point x="556" y="517"/>
      <point x="434" y="651"/>
      <point x="229" y="711" type="curve"/>
      <point x="211" y="665" type="line"/>
      <point x="365" y="621"/>
      <point x="447" y="533"/>
      <point x="474" y="431" type="curve"/>
      <point x="463" y="431" type="line"/>
      <point x="429" y="471"/>
      <point x="377" y="499"/>
      <point x="300" y="499" type="curve" smooth="yes"/>
      <point x="161" y="499"/>
      <point x="64" y="399"/>
      <point x="64" y="249" type="curve" smooth="yes"/>
      <point x="64" y="237" type="line" smooth="yes"/>
      <point x="64" y="86"/>
      <point x="162" y="-14"/>
    </contour>
    <contour>
      <point x="310" y="40" type="curve" smooth="yes"/>
      <point x="197" y="40"/>
      <point x="124" y="120"/>
      <point x="124" y="239" type="curve" smooth="yes"/>
      <point x="124" y="247" type="line" smooth="yes"/>
      <point x="124" y="366"/>
      <point x="196" y="446"/>
      <point x="310" y="446" type="curve" smooth="yes"/>
      <point x="423" y="446"/>
      <point x="496" y="366"/>
      <point x="496" y="247" type="curve" smooth="yes"/>
      <point x="496" y="239" type="line" smooth="yes"/>
      <point x="496" y="120"/>
      <point x="422" y="40"/>
    </contour>
    <contour>
      <point x="404" y="701" type="line"/>
      <point x="366" y="727" type="line"/>
      <point x="256" y="576" type="line"/>
      <point x="294" y="550" type="line"/>
    </contour>
  </outline>
</glyph>
<glyph name="divide" format="2">
  <advance width="620"/>
  <unicode hex="00F7"/>
  <outline>
    <contour>
      <point x="520" y="322" type="line"/>
      <point x="520" y="378" type="line"/>
      <point x="100" y="378" type="line"/>
      <point x="100" y="322" type="line"/>
    </contour>
    <contour>
      <point x="310" y="139" type="curve" smooth="yes"/>
      <point x="343" y="139"/>
      <point x="367" y="163"/>
      <point x="367" y="196" type="curve" smooth="yes"/>
      <point x="367" y="229"/>
      <point x="343" y="253"/>
      <point x="310" y="253" type="curve" smooth="yes"/>
      <point x="277" y="253"/>
      <point x="253" y="229"/>
      <point x="253" y="196" type="curve" smooth="yes"/>
      <point x="253" y="163"/>
      <point x="277" y="139"/>
    </contour>
    <contour>
      <point x="310" y="447" type="curve" smooth="yes"/>
      <point x="343" y="447"/>
      <point x="367" y="471"/>
      <point x="367" y="504" type="curve" smooth="yes"/>
      <point x="367" y="537"/>
      <point x="343" y="561"/>
      <point x="310" y="561" type="curve" smooth="yes"/>
      <point x="277" y="561"/>
      <point x="253" y="537"/>
      <point x="253" y="504" type="curve" smooth="yes"/>
      <point x="253" y="471"/>
      <point x="277" y="447"/>
    </contour>
  </outline>
</glyph>
<glyph name="IJ" format="2">
  <advance width="712"/>
  <unicode hex="0132"/>
  <outline>
    <contour>
      <point x="361" y="-15" type="curve" smooth="yes"/>
      <point x="506" y="-15"/>
      <point x="578" y="65"/>
      <point x="578" y="215" type="curve" smooth="yes"/>
      <point x="578" y="641" type="line"/>
      <point x="666" y="641" type="line"/>
      <point x="666" y="699" type="line"/>
      <point x="426" y="699" type="line"/>
      <point x="426" y="641" type="line"/>
      <point x="514" y="641" type="line"/>
      <point x="514" y="215" type="line" smooth="yes"/>
      <point x="514" y="113"/>
      <point x="475" y="43"/>
      <point x="362" y="43" type="curve" smooth="yes"/>
      <point x="251" y="43"/>
      <point x="198" y="113"/>
      <point x="198" y="215" type="curve" smooth="yes"/>
      <point x="198" y="228" type="line"/>
      <point x="134" y="228" type="line"/>
      <point x="134" y="215" type="line" smooth="yes"/>
      <point x="134" y="65"/>
      <point x="221" y="-15"/>
    </contour>
    <contour>
      <point x="198" y="358" type="line"/>
      <point x="198" y="642" type="line"/>
      <point x="286" y="642" type="line"/>
      <point x="286" y="700" type="line"/>
      <point x="46" y="700" type="line"/>
      <point x="46" y="642" type="line"/>
      <point x="134" y="642" type="line"/>
      <point x="134" y="358" type="line"/>
    </contour>
  </outline>
</glyph>
<glyph name="kgreenlandic" format="2">
  <advance width="527"/>
  <unicode hex="0138"/>
  <outline>
    <contour>
      <point x="148" y="0" type="line"/>
      <point x="148" y="219" type="line"/>
      <point x="160" y="219" type="line"/>
      <point x="418" y="0" type="line"/>
      <point x="505" y="0" type="line"/>
      <point x="209" y="249" type="line"/>
      <point x="497" y="486" type="line"/>
      <point x="409" y="486" type="line"/>
      <point x="160" y="278" type="line"/>
      <point x="148" y="278" type="line"/>
      <point x="148" y="486" type="line"/>
      <point x="88" y="486" type="line"/>
      <point x="88" y="0" type="line"/>
    </contour>
  </outline>
</glyph>
<glyph name="lslash" format="2">
  <advance width="348"/>
  <unicode hex="0142"/>
  <outline>
    <contour>
      <point x="320" y="349" type="line"/>
      <point x="298" y="390" type="line"/>
      <point x="28" y="245" type="line"/>
      <point x="50" y="204" type="line"/>
    </contour>
    <contour>
      <point x="204" y="0" type="line"/>
      <point x="204" y="700" type="line"/>
      <point x="144" y="700" type="line"/>
      <point x="144" y="0" type="line"/>
    </contour>
  </outline>
</glyph>
<glyph name="OE" format="2">
  <advance width="839"/>
  <unicode hex="0152"/>
  <outline>
    <contour>
      <point x="785" y="0" type="line"/>
      <point x="785" y="58" type="line"/>
      <point x="462" y="58" type="line"/>
      <point x="462" y="322" type="line"/>
      <point x="753" y="322" type="line"/>
      <point x="753" y="380" type="line"/>
      <point x="462" y="380" type="line"/>
      <point x="462" y="642" type="line"/>
      <point x="781" y="642" type="line"/>
      <point x="781" y="700" type="line"/>
      <point x="398" y="700" type="line"/>
      <point x="398" y="0" type="line"/>
    </contour>
    <contour>
      <point x="398" y="56" type="line"/>
      <point x="216" y="56"/>
      <point x="128" y="150"/>
      <point x="128" y="308" type="curve" smooth="yes"/>
      <point x="128" y="392" type="line" smooth="yes"/>
      <point x="128" y="549"/>
      <point x="217" y="644"/>
      <point x="398" y="644" type="curve"/>
      <point x="398" y="700" type="line"/>
      <point x="187" y="700"/>
      <point x="64" y="592"/>
      <point x="64" y="385" type="curve" smooth="yes"/>
      <point x="64" y="315" type="line" smooth="yes"/>
      <point x="64" y="108"/>
      <point x="187" y="0"/>
      <point x="398" y="0" type="curve"/>
    </contour>
  </outline>
</glyph>
<glyph name="oe" format="2">
  <advance width="1037"/>
  <unicode hex="0153"/>
  <outline>
    <contour>
      <point x="309" y="-14" type="curve" smooth="yes"/>
      <point x="411" y="-14"/>
      <point x="487" y="36"/>
      <point x="522" y="123" type="curve"/>
      <point x="534" y="123" type="line"/>
      <point x="570" y="40"/>
      <point x="649" y="-14"/>
      <point x="753" y="-14" type="curve" smooth="yes"/>
      <point x="882" y="-14"/>
      <point x="937" y="58"/>
      <point x="969" y="124" type="curve"/>
      <point x="914" y="147" type="line"/>
      <point x="887" y="87"/>
      <point x="843" y="40"/>
      <point x="752" y="40" type="curve" smooth="yes"/>
      <point x="644" y="40"/>
      <point x="569" y="112"/>
      <point x="564" y="231" type="curve"/>
      <point x="977" y="231" type="line"/>
      <point x="977" y="262" type="line" smooth="yes"/>
      <point x="977" y="410"/>
      <point x="881" y="500"/>
      <point x="746" y="500" type="curve" smooth="yes"/>
      <point x="650" y="500"/>
      <point x="572" y="447"/>
      <point x="534" y="363" type="curve"/>
      <point x="522" y="363" type="line"/>
      <point x="487" y="449"/>
      <point x="411" y="500"/>
      <point x="309" y="500" type="curve" smooth="yes"/>
      <point x="161" y="500"/>
      <point x="64" y="399"/>
      <point x="64" y="249" type="curve" smooth="yes"/>
      <point x="64" y="236" type="line" smooth="yes"/>
      <point x="64" y="87"/>
      <point x="161" y="-14"/>
    </contour>
    <contour>
      <point x="310" y="40" type="curve" smooth="yes"/>
      <point x="197" y="40"/>
      <point x="123" y="119"/>
      <point x="123" y="239" type="curve" smooth="yes"/>
      <point x="123" y="247" type="line" smooth="yes"/>
      <point x="123" y="366"/>
      <point x="196" y="445"/>
      <point x="310" y="445" type="curve" smooth="yes"/>
      <point x="423" y="445"/>
      <point x="496" y="366"/>
      <point x="496" y="247" type="curve" smooth="yes"/>
      <point x="496" y="239" type="line" smooth="yes"/>
      <point x="496" y="119"/>
      <point x="422" y="40"/>
    </contour>
    <contour>
      <point x="565" y="282" type="line"/>
      <point x="576" y="382"/>
      <point x="647" y="445"/>
      <point x="745" y="445" type="curve" smooth="yes"/>
      <point x="843" y="445"/>
      <point x="911" y="387"/>
      <point x="915" y="282" type="curve"/>
    </contour>
  </outline>
</glyph>
<glyph name="tbar" format="2">
  <advance width="462"/>
  <unicode hex="0167"/>
  <outline>
    <contour>
      <point x="390" y="0" type="line"/>
      <point x="390" y="54" type="line"/>
      <point x="275" y="54" type="line" smooth="yes"/>
      <point x="255" y="54"/>
      <point x="246" y="64"/>
      <point x="246" y="84" type="curve" smooth="yes"/>
      <point x="246" y="432" type="line"/>
      <point x="416" y="432" type="line"/>
      <point x="416" y="486" type="line"/>
      <point x="246" y="486" type="line"/>
      <point x="246" y="668" type="line"/>
      <point x="186" y="668" type="line"/>
      <point x="186" y="486" type="line"/>
      <point x="30" y="486" type="line"/>
      <point x="30" y="432" type="line"/>
      <point x="186" y="432" type="line"/>
      <point x="186" y="74" type="line" smooth="yes"/>
      <point x="186" y="27"/>
      <point x="215" y="0"/>
      <point x="262" y="0" type="curve" smooth="yes"/>
    </contour>
    <contour>
      <point x="416" y="224" type="line"/>
      <point x="416" y="272" type="line"/>
      <point x="30" y="272" type="line"/>
      <point x="30" y="224" type="line"/>
    </contour>
  </outline>
</glyph>
<glyph name="longs" format="2">
  <advance width="334"/>
  <unicode hex="017F"/>
  <outline>
    <contour>
      <point x="202" y="0" type="line"/>
      <point x="202" y="616" type="line" smooth="yes"/>
      <point x="202" y="636"/>
      <point x="210" y="646"/>
      <point x="232" y="646" type="curve" smooth="yes"/>
      <point x="336" y="646" type="line"/>
      <point x="336" y="700" type="line"/>
      <point x="220" y="700" type="line" smooth="yes"/>
      <point x="168" y="700"/>
      <point x="142" y="672"/>
      <point x="142" y="624" type="curve" smooth="yes"/>
      <point x="142" y="486" type="line"/>
      <point x="30" y="486" type="line"/>
      <point x="30" y="432" type="line"/>
      <point x="142" y="432" type="line"/>
      <point x="142" y="0" type="line"/>
    </contour>
  </outline>
</glyph>
<glyph name="florin" format="2">
  <advance width="620"/>
  <unicode hex="0192"/>
  <outline>
    <contour>
      <point x="268" y="0" type="line" smooth="yes"/>
      <point x="309" y="0"/>
      <point x="336" y="28"/>
      <point x="336" y="69" type="curve" smooth="yes"/>
      <point x="336" y="377" type="line"/>
      <point x="476" y="377" type="line"/>
      <point x="476" y="429" type="line"/>
      <point x="336" y="429" type="line"/>
      <point x="336" y="616" type="line" smooth="yes"/>
      <point x="336" y="636"/>
      <point x="345" y="646"/>
      <point x="363" y="646" type="curve" smooth="yes"/>
      <point x="505" y="646" type="line"/>
      <point x="505" y="700" type="line"/>
      <point x="343" y="700" type="line" smooth="yes"/>
      <point x="303" y="700"/>
      <point x="276" y="672"/>
      <point x="276" y="631" type="curve" smooth="yes"/>
      <point x="276" y="429" type="line"/>
      <point x="143" y="429" type="line"/>
      <point x="143" y="377" type="line"/>
      <point x="276" y="377" type="line"/>
      <point x="276" y="84" type="line" smooth="yes"/>
      <point x="276" y="64"/>
      <point x="267" y="54"/>
      <point x="249" y="54" type="curve" smooth="yes"/>
      <point x="109" y="54" type="line"/>
      <point x="109" y="0" type="line"/>
    </contour>
  </outline>
</glyph>
<glyph name="ringhalfright" format="2">
  <advance width="230"/>
  <unicode hex="02BE"/>
  <outline>
    <contour>
      <point x="54" y="486" type="line"/>
      <point x="130" y="486"/>
      <point x="188" y="527"/>
      <point x="188" y="610" type="curve" smooth="yes"/>
      <point x="188" y="693"/>
      <point x="133" y="733"/>
      <point x="54" y="734" type="curve"/>
      <point x="54" y="688" type="line"/>
      <point x="105" y="688"/>
      <point x="136" y="663"/>
      <point x="136" y="610" type="curve" smooth="yes"/>
      <point x="136" y="557"/>
      <point x="105" y="532"/>
      <point x="54" y="532" type="curve"/>
    </contour>
  </outline>
</glyph>
<glyph name="ringhalfleft" format="2">
  <advance width="230"/>
  <unicode hex="02BF"/>
  <outline>
    <contour>
      <point x="176" y="532" type="line"/>
      <point x="125" y="532"/>
      <point x="94" y="557"/>
      <point x="94" y="610" type="curve" smooth="yes"/>
      <point x="94" y="663"/>
      <point x="125" y="688"/>
      <point x="176" y="688" type="curve"/>
      <point x="176" y="734" type="line"/>
      <point x="97" y="733"/>
      <point x="42" y="693"/>
      <point x="42" y="610" type="curve" smooth="yes"/>
      <point x="42" y="527"/>
      <point x="100" y="486"/>
      <point x="176" y="486" type="curve"/>
    </contour>
  </outline>
</glyph>
<glyph name="acutecomb" format="2">
  <advance width="274"/>
  <unicode hex="0301"/>
  <anchor x="60" y="556" name="_ringacute"/>
  <anchor x="103" y="486" name="_top"/>
  <outline>
    <contour>
      <point x="122" y="556" type="line"/>
      <point x="214" y="688" type="line"/>
      <point x="138" y="688" type="line"/>
      <point x="60" y="556" type="line"/>
    </contour>
  </outline>
</glyph>
<glyph name="circumflexcomb" format="2">
  <advance width="448"/>
  <unicode hex="0302"/>
  <anchor x="224" y="486" name="_top"/>
  <anchor x="410" y="592" name="side"/>
  <anchor x="224" y="673" name="top"/>
  <outline>
    <contour>
      <point x="134" y="556" type="line"/>
      <point x="218" y="644" type="line"/>
      <point x="230" y="644" type="line"/>
      <point x="314" y="556" type="line"/>
      <point x="388" y="556" type="line"/>
      <point x="262" y="688" type="line"/>
      <point x="186" y="688" type="line"/>
      <point x="60" y="556" type="line"/>
    </contour>
  </outline>
</glyph>
<glyph name="tildecomb" format="2">
  <advance width="424"/>
  <unicode hex="0303"/>
  <anchor x="212" y="486" name="_top"/>
  <anchor x="212" y="620" name="top"/>
  <outline>
    <contour>
      <point x="130" y="598" type="line" smooth="yes"/>
      <point x="137" y="610"/>
      <point x="144" y="617"/>
      <point x="157" y="617" type="curve" smooth="yes"/>
      <point x="171" y="617"/>
      <point x="182" y="602"/>
      <point x="200" y="581" type="curve" smooth="yes"/>
      <point x="224" y="552"/>
      <point x="242" y="542"/>
      <point x="270" y="542" type="curve" smooth="yes"/>
      <point x="300" y="542"/>
      <point x="321" y="559"/>
      <point x="334" y="583" type="curve" smooth="yes"/>
      <point x="364" y="639" type="line"/>
      <point x="322" y="662" type="line"/>
      <point x="294" y="611" type="line" smooth="yes"/>
      <point x="287" y="599"/>
      <point x="280" y="592"/>
      <point x="267" y="592" type="curve" smooth="yes"/>
      <point x="253" y="592"/>
      <point x="242" y="607"/>
      <point x="224" y="628" type="curve" smooth="yes"/>
      <point x="200" y="657"/>
      <point x="182" y="667"/>
      <point x="154" y="667" type="curve" smooth="yes"/>
      <point x="124" y="667"/>
      <point x="103" y="650"/>
      <point x="90" y="626" type="curve" smooth="yes"/>
      <point x="60" y="570" type="line"/>
      <point x="102" y="547" type="line"/>
    </contour>
  </outline>
</glyph>
<glyph name="macroncomb" format="2">
  <advance width="420"/>
  <unicode hex="0304"/>
  <anchor x="210" y="486" name="_top"/>
  <anchor x="210" y="630" name="top"/>
  <outline>
    <contour>
      <point x="360" y="578" type="line"/>
      <point x="360" y="630" type="line"/>
      <point x="60" y="630" type="line"/>
      <point x="60" y="578" type="line"/>
    </contour>
  </outline>
</glyph>
<glyph name="brevecomb" format="2">
  <advance width="397"/>
  <unicode hex="0306"/>
  <anchor x="199" y="486" name="_top"/>
  <anchor x="199" y="667" name="top"/>
  <outline>
    <contour>
      <point x="199" y="554" type="curve" smooth="yes"/>
      <point x="280" y="554"/>
      <point x="337" y="600"/>
      <point x="337" y="682" type="curve" smooth="yes"/>
      <point x="337" y="688" type="line"/>
      <point x="281" y="688" type="line"/>
      <point x="281" y="682" type="line" smooth="yes"/>
      <point x="281" y="635"/>
      <point x="253" y="602"/>
      <point x="199" y="602" type="curve" smooth="yes"/>
      <point x="144" y="602"/>
      <point x="116" y="635"/>
      <point x="116" y="682" type="curve" smooth="yes"/>
      <point x="116" y="688" type="line"/>
      <point x="60" y="688" type="line"/>
      <point x="60" y="682" type="line" smooth="yes"/>
      <point x="60" y="600"/>
      <point x="117" y="554"/>
    </contour>
  </outline>
</glyph>
<glyph name="hungarumlautcomb" format="2">
  <advance width="403"/>
  <unicode hex="030B"/>
  <anchor x="177" y="486" name="_top"/>
  <outline>
    <contour>
      <point x="259" y="556" type="line"/>
      <point x="343" y="688" type="line"/>
      <point x="272" y="688" type="line"/>
      <point x="200" y="556" type="line"/>
    </contour>
    <contour>
      <point x="118" y="556" type="line"/>
      <point x="191" y="688" type="line"/>
      <point x="122" y="688" type="line"/>
      <point x="60" y="556" type="line"/>
    </contour>
  </outline>
</glyph>
<glyph name="breveinvertedcomb" format="2">
  <advance width="600"/>
  <unicode hex="0311"/>
  <anchor x="199" y="486" name="_top"/>
  <outline>
    <contour>
      <point x="116" y="556" type="line"/>
      <point x="116" y="562" type="line" smooth="yes"/>
      <point x="116" y="609"/>
      <point x="144" y="642"/>
      <point x="199" y="642" type="curve" smooth="yes"/>
      <point x="253" y="642"/>
      <point x="281" y="609"/>
      <point x="281" y="562" type="curve" smooth="yes"/>
      <point x="281" y="556" type="line"/>
      <point x="337" y="556" type="line"/>
      <point x="337" y="562" type="line" smooth="yes"/>
      <point x="337" y="644"/>
      <point x="280" y="690"/>
      <point x="199" y="690" type="curve" smooth="yes"/>
      <point x="117" y="690"/>
      <point x="60" y="644"/>
      <point x="60" y="562" type="curve" smooth="yes"/>
      <point x="60" y="556" type="line"/>
    </contour>
  </outline>
</glyph>
<glyph name="commaturnedabovecomb" format="2">
  <advance width="220"/>
  <unicode hex="0312"/>
  <anchor x="110" y="486" name="_top"/>
  <outline>
    <contour>
      <point x="127" y="747" type="line" smooth="yes"/>
      <point x="81" y="747"/>
      <point x="60" y="725"/>
      <point x="60" y="680" type="curve" smooth="yes"/>
      <point x="60" y="617" type="line" smooth="yes"/>
      <point x="60" y="583"/>
      <point x="82" y="562"/>
      <point x="110" y="562" type="curve" smooth="yes"/>
      <point x="139" y="562"/>
      <point x="160" y="583"/>
      <point x="160" y="611" type="curve" smooth="yes"/>
      <point x="160" y="640"/>
      <point x="138" y="660"/>
      <point x="110" y="660" type="curve" smooth="yes"/>
      <point x="100" y="660" type="line"/>
      <point x="100" y="679" type="line" smooth="yes"/>
      <point x="100" y="701"/>
      <point x="109" y="709"/>
      <point x="131" y="709" type="curve" smooth="yes"/>
      <point x="152" y="709" type="line"/>
      <point x="152" y="747" type="line"/>
    </contour>
  </outline>
</glyph>
<glyph name="dotbelowcomb" format="2">
  <advance width="224"/>
  <unicode hex="0323"/>
  <anchor x="112" y="0" name="_bottom"/>
  <outline>
    <contour>
      <point x="112" y="-188" type="curve" smooth="yes"/>
      <point x="142" y="-188"/>
      <point x="164" y="-166"/>
      <point x="164" y="-136" type="curve" smooth="yes"/>
      <point x="164" y="-106"/>
      <point x="142" y="-84"/>
      <point x="112" y="-84" type="curve" smooth="yes"/>
      <point x="82" y="-84"/>
      <point x="60" y="-106"/>
      <point x="60" y="-136" type="curve" smooth="yes"/>
      <point x="60" y="-166"/>
      <point x="82" y="-188"/>
    </contour>
  </outline>
</glyph>
<glyph name="dieresisbelowcomb" format="2">
  <advance width="402"/>
  <unicode hex="0324"/>
  <anchor x="201" y="0" name="_bottom"/>
  <outline>
    <contour>
      <point x="291" y="-186" type="curve" smooth="yes"/>
      <point x="321" y="-186"/>
      <point x="342" y="-165"/>
      <point x="342" y="-135" type="curve" smooth="yes"/>
      <point x="342" y="-105"/>
      <point x="321" y="-84"/>
      <point x="291" y="-84" type="curve" smooth="yes"/>
      <point x="261" y="-84"/>
      <point x="240" y="-105"/>
      <point x="240" y="-135" type="curve" smooth="yes"/>
      <point x="240" y="-165"/>
      <point x="261" y="-186"/>
    </contour>
    <contour>
      <point x="111" y="-186" type="curve" smooth="yes"/>
      <point x="141" y="-186"/>
      <point x="162" y="-165"/>
      <point x="162" y="-135" type="curve" smooth="yes"/>
      <point x="162" y="-105"/>
      <point x="141" y="-84"/>
      <point x="111" y="-84" type="curve" smooth="yes"/>
      <point x="81" y="-84"/>
      <point x="60" y="-105"/>
      <point x="60" y="-135" type="curve" smooth="yes"/>
      <point x="60" y="-165"/>
      <point x="81" y="-186"/>
    </contour>
  </outline>
</glyph>
<glyph name="ogonekcomb" format="2">
  <advance width="236"/>
  <unicode hex="0328"/>
  <anchor x="103" y="0" name="_ogonek"/>
  <outline>
    <contour>
      <point x="176" y="-162" type="line"/>
      <point x="176" y="-110" type="line"/>
      <point x="135" y="-110" type="line" smooth="yes"/>
      <point x="121" y="-110"/>
      <point x="113" y="-103"/>
      <point x="113" y="-91" type="curve" smooth="yes"/>
      <point x="113" y="-82"/>
      <point x="115" y="-77"/>
      <point x="117" y="-65" type="curve" smooth="yes"/>
      <point x="131" y="11" type="line"/>
      <point x="81" y="11" type="line"/>
      <point x="69" y="-40" type="line" smooth="yes"/>
      <point x="64" y="-61"/>
      <point x="60" y="-79"/>
      <point x="60" y="-98" type="curve" smooth="yes"/>
      <point x="60" y="-140"/>
      <point x="85" y="-162"/>
      <point x="128" y="-162" type="curve" smooth="yes"/>
    </contour>
  </outline>
</glyph>
<glyph name="strokeshortcomb" format="2">
  <advance width="441"/>
  <unicode hex="0335"/>
  <anchor x="140" y="486" name="_strokeA"/>
  <anchor x="301" y="486" name="_strokeB"/>
  <outline>
    <contour>
      <point x="381" y="566" type="line"/>
      <point x="381" y="610" type="line"/>
      <point x="60" y="610" type="line"/>
      <point x="60" y="566" type="line"/>
    </contour>
  </outline>
</glyph>
<glyph name="Djecyr" format="2">
  <advance width="733"/>
  <unicode hex="0402"/>
  <anchor x="294" y="0" name="bottom"/>
  <anchor x="294" y="486" name="strokeC"/>
  <anchor x="344" y="486" name="top"/>
  <anchor x="73" y="486" name="strokeA"/>
  <outline>
    <contour>
      <point x="249" y="0" type="line"/>
      <point x="249" y="290" type="line"/>
      <point x="290" y="342"/>
      <point x="351" y="372"/>
      <point x="428" y="372" type="curve" smooth="yes"/>
      <point x="526" y="372"/>
      <point x="589" y="324"/>
      <point x="589" y="206" type="curve" smooth="yes"/>
      <point x="589" y="-57" type="line" smooth="yes"/>
      <point x="589" y="-113"/>
      <point x="564" y="-142"/>
      <point x="514" y="-142" type="curve" smooth="yes"/>
      <point x="431" y="-142" type="line"/>
      <point x="431" y="-200" type="line"/>
      <point x="522" y="-200" type="line" smooth="yes"/>
      <point x="610" y="-200"/>
      <point x="653" y="-156"/>
      <point x="653" y="-66" type="curve" smooth="yes"/>
      <point x="653" y="210" type="line" smooth="yes"/>
      <point x="653" y="360"/>
      <point x="565" y="433"/>
      <point x="434" y="433" type="curve" smooth="yes"/>
      <point x="355" y="433"/>
      <point x="299" y="406"/>
      <point x="261" y="371" type="curve"/>
      <point x="249" y="371" type="line"/>
      <point x="249" y="642" type="line"/>
      <point x="483" y="642" type="line"/>
      <point x="483" y="700" type="line"/>
      <point x="28" y="700" type="line"/>
      <point x="28" y="642" type="line"/>
      <point x="185" y="642" type="line"/>
      <point x="185" y="0" type="line"/>
    </contour>
  </outline>
</glyph>
<glyph name="Eukrcyr" format="2">
  <advance width="666"/>
  <unicode hex="0404"/>
  <outline>
    <component base="C"/>
    <contour>
      <point x="408" y="325" type="line"/>
      <point x="104" y="325" type="line"/>
      <point x="104" y="385" type="line"/>
      <point x="408" y="385" type="line"/>
    </contour>
  </outline>
</glyph>
<glyph name="Iukrcyr" format="2">
  <advance width="236"/>
  <unicode hex="0406"/>
  <anchor x="118" y="0" name="bottom"/>
  <anchor x="118" y="0" name="ogonek"/>
  <anchor x="118" y="700" name="top"/>
  <outline>
    <contour>
      <point x="150" y="0" type="line"/>
      <point x="150" y="700" type="line"/>
      <point x="86" y="700" type="line"/>
      <point x="86" y="0" type="line"/>
    </contour>
  </outline>
</glyph>
<glyph name="Yukrcyr" format="2">
  <advance width="402"/>
  <unicode hex="0407"/>
  <anchor x="201" y="486" name="_top"/>
  <anchor x="201" y="654" name="top"/>
  <anchor x="118" y="0" name="bottom"/>
  <anchor x="118" y="0" name="ogonek"/>
  <outline>
    <component base="dieresiscomb" yOffset="220"/>
    <contour>
      <point x="233" y="0" type="line"/>
      <point x="233" y="700" type="line"/>
      <point x="169" y="700" type="line"/>
      <point x="169" y="0" type="line"/>
    </contour>
  </outline>
</glyph>
<glyph name="Ljecyr" format="2">
  <advance width="984"/>
  <unicode hex="0409"/>
  <outline>
    <contour>
      <point x="170" y="700" type="line"/>
      <point x="162" y="328" type="line" smooth="yes"/>
      <point x="158" y="141"/>
      <point x="125" y="58"/>
      <point x="54" y="58" type="curve" smooth="yes"/>
      <point x="32" y="58" type="line"/>
      <point x="32" y="0" type="line"/>
      <point x="62" y="0" type="line" smooth="yes"/>
      <point x="171" y="0"/>
      <point x="216" y="98"/>
      <point x="220" y="311" type="curve" smooth="yes"/>
      <point x="226" y="642" type="line"/>
      <point x="500" y="642" type="line"/>
      <point x="500" y="0" type="line"/>
      <point x="564" y="0" type="line"/>
      <point x="564" y="700" type="line"/>
    </contour>
    <contour>
      <point x="564" y="700" type="line"/>
      <point x="500" y="700" type="line"/>
      <point x="500" y="0" type="line"/>
      <point x="740" y="-1" type="line" smooth="yes"/>
      <point x="855" y="-1"/>
      <point x="948" y="70"/>
      <point x="948" y="194" type="curve" smooth="yes"/>
      <point x="948" y="205" type="line" smooth="yes"/>
      <point x="948" y="329"/>
      <point x="854" y="400"/>
      <point x="742" y="401" type="curve" smooth="yes"/>
      <point x="564" y="402" type="line"/>
    </contour>
    <contour>
      <point x="564" y="58" type="line"/>
      <point x="564" y="344" type="line"/>
      <point x="733" y="343" type="line" smooth="yes"/>
      <point x="824" y="342"/>
      <point x="884" y="292"/>
      <point x="884" y="204" type="curve" smooth="yes"/>
      <point x="884" y="194" type="line" smooth="yes"/>
      <point x="884" y="106"/>
      <point x="826" y="56"/>
      <point x="733" y="57" type="curve" smooth="yes"/>
    </contour>
  </outline>
</glyph>
<glyph name="Njecyr" format="2">
  <advance width="976"/>
  <unicode hex="040A"/>
  <outline>
    <contour>
      <point x="150" y="0" type="line"/>
      <point x="150" y="344" type="line"/>
      <point x="492" y="344" type="line"/>
      <point x="492" y="0" type="line"/>
      <point x="556" y="0" type="line"/>
      <point x="556" y="700" type="line"/>
      <point x="492" y="700" type="line"/>
      <point x="492" y="402" type="line"/>
      <point x="150" y="402" type="line"/>
      <point x="150" y="700" type="line"/>
      <point x="86" y="700" type="line"/>
      <point x="86" y="0" type="line"/>
    </contour>
    <contour>
      <point x="556" y="700" type="line"/>
      <point x="492" y="700" type="line"/>
      <point x="492" y="0" type="line"/>
      <point x="732" y="-1" type="line" smooth="yes"/>
      <point x="847" y="-1"/>
      <point x="940" y="70"/>
      <point x="940" y="194" type="curve" smooth="yes"/>
      <point x="940" y="205" type="line" smooth="yes"/>
      <point x="940" y="329"/>
      <point x="846" y="400"/>
      <point x="734" y="401" type="curve" smooth="yes"/>
      <point x="556" y="402" type="line"/>
    </contour>
    <contour>
      <point x="556" y="58" type="line"/>
      <point x="556" y="344" type="line"/>
      <point x="725" y="343" type="line" smooth="yes"/>
      <point x="816" y="342"/>
      <point x="876" y="292"/>
      <point x="876" y="204" type="curve" smooth="yes"/>
      <point x="876" y="194" type="line" smooth="yes"/>
      <point x="876" y="106"/>
      <point x="818" y="56"/>
      <point x="725" y="57" type="curve" smooth="yes"/>
    </contour>
  </outline>
</glyph>
<glyph name="Tshecyr" format="2">
  <advance width="733"/>
  <unicode hex="040B"/>
  <outline>
    <contour>
      <point x="249" y="0" type="line"/>
      <point x="249" y="290" type="line"/>
      <point x="290" y="342"/>
      <point x="351" y="372"/>
      <point x="428" y="372" type="curve" smooth="yes"/>
      <point x="526" y="372"/>
      <point x="589" y="324"/>
      <point x="589" y="206" type="curve" smooth="yes"/>
      <point x="589" y="0" type="line"/>
      <point x="653" y="0" type="line"/>
      <point x="653" y="210" type="line" smooth="yes"/>
      <point x="653" y="360"/>
      <point x="565" y="433"/>
      <point x="434" y="433" type="curve" smooth="yes"/>
      <point x="355" y="433"/>
      <point x="299" y="406"/>
      <point x="261" y="371" type="curve"/>
      <point x="249" y="371" type="line"/>
      <point x="249" y="642" type="line"/>
      <point x="483" y="642" type="line"/>
      <point x="483" y="700" type="line"/>
      <point x="28" y="700" type="line"/>
      <point x="28" y="642" type="line"/>
      <point x="185" y="642" type="line"/>
      <point x="185" y="0" type="line"/>
    </contour>
  </outline>
</glyph>
<glyph name="Dzhecyr" format="2">
  <advance width="656"/>
  <unicode hex="040F"/>
  <outline>
    <contour>
      <point x="150" y="700" type="line"/>
      <point x="86" y="700" type="line"/>
      <point x="86" y="0" type="line"/>
      <point x="296" y="0" type="line"/>
      <point x="296" y="-148" type="line"/>
      <point x="360" y="-148" type="line"/>
      <point x="360" y="0" type="line"/>
      <point x="570" y="0" type="line"/>
      <point x="570" y="700" type="line"/>
      <point x="506" y="700" type="line"/>
      <point x="506" y="58" type="line"/>
      <point x="150" y="58" type="line"/>
    </contour>
  </outline>
</glyph>
<glyph name="Becyr" format="2">
  <advance width="670"/>
  <unicode hex="0411"/>
  <outline>
    <contour>
      <point x="48" y="0" type="line"/>
      <point x="393" y="0" type="line" smooth="yes"/>
      <point x="516" y="0"/>
      <point x="612" y="72"/>
      <point x="612" y="198" type="curve" smooth="yes"/>
      <point x="612" y="210" type="line" smooth="yes"/>
      <point x="612" y="336"/>
      <point x="514" y="408"/>
      <point x="393" y="408" type="curve" smooth="yes"/>
      <point x="212" y="408" type="line"/>
      <point x="212" y="642" type="line"/>
      <point x="559" y="642" type="line"/>
      <point x="559" y="700" type="line"/>
      <point x="48" y="700" type="line"/>
      <point x="48" y="642" type="line"/>
      <point x="148" y="642" type="line"/>
      <point x="148" y="58" type="line"/>
      <point x="48" y="58" type="line"/>
    </contour>
    <contour>
      <point x="212" y="58" type="line"/>
      <point x="212" y="350" type="line"/>
      <point x="386" y="350" type="line" smooth="yes"/>
      <point x="486" y="350"/>
      <point x="548" y="299"/>
      <point x="548" y="209" type="curve" smooth="yes"/>
      <point x="548" y="199" type="line" smooth="yes"/>
      <point x="548" y="109"/>
      <point x="488" y="58"/>
      <point x="386" y="58" type="curve" smooth="yes"/>
    </contour>
  </outline>
</glyph>
<glyph name="Gecyr" format="2">
  <advance width="478"/>
  <unicode hex="0413"/>
  <outline>
    <contour>
      <point x="150" y="0" type="line"/>
      <point x="150" y="642" type="line"/>
      <point x="450" y="642" type="line"/>
      <point x="450" y="700" type="line"/>
      <point x="86" y="700" type="line"/>
      <point x="86" y="0" type="line"/>
    </contour>
  </outline>
</glyph>
<glyph name="Decyr" format="2">
  <advance width="711"/>
  <unicode hex="0414"/>
  <outline>
    <contour>
      <point x="173" y="700" type="line"/>
      <point x="579" y="700" type="line"/>
      <point x="579" y="58" type="line"/>
      <point x="659" y="58" type="line"/>
      <point x="659" y="-148" type="line"/>
      <point x="595" y="-148" type="line"/>
      <point x="595" y="0" type="line"/>
      <point x="116" y="0" type="line"/>
      <point x="116" y="-148" type="line"/>
      <point x="52" y="-148" type="line"/>
      <point x="52" y="58" type="line"/>
      <point x="114" y="58" type="line"/>
      <point x="148" y="127"/>
      <point x="164" y="267"/>
      <point x="166" y="397" type="curve" smooth="yes"/>
    </contour>
    <contour>
      <point x="230" y="642" type="line"/>
      <point x="224" y="380" type="line" smooth="yes"/>
      <point x="222" y="266"/>
      <point x="209" y="138"/>
      <point x="180" y="58" type="curve"/>
      <point x="515" y="58" type="line"/>
      <point x="515" y="642" type="line"/>
    </contour>
  </outline>
</glyph>
<glyph name="Zhecyr" format="2">
  <advance width="902"/>
  <unicode hex="0416"/>
  <outline>
    <contour>
      <point x="857" y="700" type="line"/>
      <point x="799" y="700" type="line" smooth="yes"/>
      <point x="755" y="700"/>
      <point x="739" y="682"/>
      <point x="711" y="612" type="curve" smooth="yes"/>
      <point x="622" y="391" type="line"/>
      <point x="483" y="391" type="line"/>
      <point x="483" y="700" type="line"/>
      <point x="419" y="700" type="line"/>
      <point x="419" y="391" type="line"/>
      <point x="280" y="391" type="line"/>
      <point x="191" y="612" type="line" smooth="yes"/>
      <point x="163" y="682"/>
      <point x="147" y="700"/>
      <point x="103" y="700" type="curve" smooth="yes"/>
      <point x="45" y="700" type="line"/>
      <point x="45" y="640" type="line"/>
      <point x="114" y="640" type="line"/>
      <point x="210" y="406" type="line" smooth="yes"/>
      <point x="219" y="385"/>
      <point x="230" y="373"/>
      <point x="247" y="368" type="curve"/>
      <point x="247" y="356" type="line"/>
      <point x="230" y="351"/>
      <point x="219" y="338"/>
      <point x="210" y="316" type="curve" smooth="yes"/>
      <point x="110" y="60" type="line"/>
      <point x="40" y="60" type="line"/>
      <point x="40" y="0" type="line"/>
      <point x="99" y="0" type="line" smooth="yes"/>
      <point x="143" y="0"/>
      <point x="159" y="18"/>
      <point x="187" y="88" type="curve" smooth="yes"/>
      <point x="284" y="333" type="line"/>
      <point x="419" y="333" type="line"/>
      <point x="419" y="0" type="line"/>
      <point x="483" y="0" type="line"/>
      <point x="483" y="333" type="line"/>
      <point x="618" y="333" type="line"/>
      <point x="715" y="88" type="line" smooth="yes"/>
      <point x="743" y="18"/>
      <point x="759" y="0"/>
      <point x="803" y="0" type="curve" smooth="yes"/>
      <point x="862" y="0" type="line"/>
      <point x="862" y="60" type="line"/>
      <point x="792" y="60" type="line"/>
      <point x="692" y="316" type="line" smooth="yes"/>
      <point x="683" y="338"/>
      <point x="672" y="351"/>
      <point x="655" y="356" type="curve"/>
      <point x="655" y="368" type="line"/>
      <point x="672" y="373"/>
      <point x="683" y="385"/>
      <point x="692" y="406" type="curve" smooth="yes"/>
      <point x="788" y="640" type="line"/>
      <point x="857" y="640" type="line"/>
    </contour>
  </outline>
</glyph>
<glyph name="Zecyr" format="2">
  <advance width="606"/>
  <unicode hex="0417"/>
  <outline>
    <contour>
      <point x="314" y="658" type="curve" smooth="yes"/>
      <point x="206" y="658"/>
      <point x="136" y="601"/>
      <point x="136" y="503" type="curve" smooth="yes"/>
      <point x="136" y="462" type="line"/>
      <point x="72" y="462" type="line"/>
      <point x="72" y="503" type="line" smooth="yes"/>
      <point x="72" y="642"/>
      <point x="178" y="714"/>
      <point x="314" y="714" type="curve" smooth="yes"/>
      <point x="452" y="714"/>
      <point x="545" y="639"/>
      <point x="545" y="528" type="curve" smooth="yes"/>
      <point x="545" y="520" type="line" smooth="yes"/>
      <point x="545" y="441"/>
      <point x="501" y="383"/>
      <point x="425" y="360" type="curve"/>
      <point x="425" y="348" type="line"/>
      <point x="501" y="328"/>
      <point x="548" y="267"/>
      <point x="548" y="186" type="curve" smooth="yes"/>
      <point x="548" y="175" type="line" smooth="yes"/>
      <point x="548" y="57"/>
      <point x="441" y="-14"/>
      <point x="317" y="-14" type="curve" smooth="yes"/>
      <point x="168" y="-14"/>
      <point x="56" y="64"/>
      <point x="56" y="232" type="curve" smooth="yes"/>
      <point x="56" y="247" type="line"/>
      <point x="120" y="247" type="line"/>
      <point x="120" y="232" type="line" smooth="yes"/>
      <point x="120" y="102"/>
      <point x="193" y="42"/>
      <point x="308" y="42" type="curve" smooth="yes"/>
      <point x="412" y="42"/>
      <point x="481" y="94"/>
      <point x="481" y="179" type="curve" smooth="yes"/>
      <point x="481" y="189" type="line" smooth="yes"/>
      <point x="481" y="274"/>
      <point x="431" y="325"/>
      <point x="327" y="325" type="curve" smooth="yes"/>
      <point x="213" y="325" type="line"/>
      <point x="213" y="385" type="line"/>
      <point x="324" y="385" type="line" smooth="yes"/>
      <point x="419" y="385"/>
      <point x="478" y="428"/>
      <point x="478" y="511" type="curve" smooth="yes"/>
      <point x="478" y="523" type="line" smooth="yes"/>
      <point x="478" y="604"/>
      <point x="417" y="658"/>
    </contour>
  </outline>
</glyph>
<glyph name="Icyr" format="2">
  <advance width="661"/>
  <unicode hex="0418"/>
  <anchor x="334" y="0" name="bottom"/>
  <anchor x="346" y="700" name="top"/>
  <outline>
    <contour>
      <point x="511" y="0" type="line"/>
      <point x="575" y="0" type="line"/>
      <point x="575" y="700" type="line"/>
      <point x="455" y="700" type="line"/>
      <point x="162" y="38" type="line"/>
      <point x="150" y="38" type="line"/>
      <point x="150" y="700" type="line"/>
      <point x="86" y="700" type="line"/>
      <point x="86" y="0" type="line"/>
      <point x="206" y="0" type="line"/>
      <point x="499" y="663" type="line"/>
      <point x="511" y="663" type="line"/>
    </contour>
  </outline>
</glyph>
<glyph name="Kacyr" format="2">
  <advance width="603"/>
  <unicode hex="041A"/>
  <anchor x="307" y="0" name="bottom"/>
  <outline>
    <contour>
      <point x="558" y="700" type="line"/>
      <point x="500" y="700" type="line" smooth="yes"/>
      <point x="456" y="700"/>
      <point x="438" y="682"/>
      <point x="412" y="612" type="curve" smooth="yes"/>
      <point x="329" y="391" type="line"/>
      <point x="150" y="391" type="line"/>
      <point x="150" y="700" type="line"/>
      <point x="86" y="700" type="line"/>
      <point x="86" y="0" type="line"/>
      <point x="150" y="0" type="line"/>
      <point x="150" y="333" type="line"/>
      <point x="325" y="333" type="line"/>
      <point x="416" y="88" type="line" smooth="yes"/>
      <point x="442" y="18"/>
      <point x="460" y="0"/>
      <point x="504" y="0" type="curve" smooth="yes"/>
      <point x="563" y="0" type="line"/>
      <point x="563" y="60" type="line"/>
      <point x="493" y="60" type="line"/>
      <point x="397" y="316" type="line" smooth="yes"/>
      <point x="389" y="338"/>
      <point x="378" y="351"/>
      <point x="362" y="356" type="curve"/>
      <point x="362" y="368" type="line"/>
      <point x="378" y="373"/>
      <point x="389" y="385"/>
      <point x="397" y="406" type="curve" smooth="yes"/>
      <point x="489" y="640" type="line"/>
      <point x="558" y="640" type="line"/>
    </contour>
  </outline>
</glyph>
<glyph name="Elcyr" format="2">
  <advance width="662"/>
  <unicode hex="041B"/>
  <outline>
    <contour>
      <point x="170" y="700" type="line"/>
      <point x="576" y="700" type="line"/>
      <point x="576" y="0" type="line"/>
      <point x="512" y="0" type="line"/>
      <point x="512" y="642" type="line"/>
      <point x="226" y="642" type="line"/>
      <point x="220" y="311" type="line" smooth="yes"/>
      <point x="216" y="98"/>
      <point x="171" y="0"/>
      <point x="62" y="0" type="curve" smooth="yes"/>
      <point x="32" y="0" type="line"/>
      <point x="32" y="58" type="line"/>
      <point x="54" y="58" type="line" smooth="yes"/>
      <point x="125" y="58"/>
      <point x="158" y="141"/>
      <point x="162" y="328" type="curve" smooth="yes"/>
    </contour>
  </outline>
</glyph>
<glyph name="Ucyr" format="2">
  <advance width="553"/>
  <unicode hex="0423"/>
  <outline>
    <contour>
      <point x="78" y="0" type="line"/>
      <point x="143" y="0" type="line" smooth="yes"/>
      <point x="207" y="0"/>
      <point x="238" y="21"/>
      <point x="265" y="82" type="curve" smooth="yes"/>
      <point x="537" y="700" type="line"/>
      <point x="469" y="700" type="line"/>
      <point x="285" y="273" type="line"/>
      <point x="274" y="273" type="line"/>
      <point x="84" y="700" type="line"/>
      <point x="16" y="700" type="line"/>
      <point x="245" y="185" type="line"/>
      <point x="216" y="114" type="line" smooth="yes"/>
      <point x="200" y="74"/>
      <point x="177" y="58"/>
      <point x="139" y="58" type="curve"/>
      <point x="78" y="58" type="line"/>
    </contour>
  </outline>
</glyph>
<glyph name="Efcyr" format="2">
  <advance width="802"/>
  <unicode hex="0424"/>
  <outline>
    <contour>
      <point x="433" y="-20" type="line"/>
      <point x="433" y="720" type="line"/>
      <point x="369" y="720" type="line"/>
      <point x="369" y="-20" type="line"/>
    </contour>
    <contour>
      <point x="313" y="644" type="line" smooth="yes"/>
      <point x="156" y="644"/>
      <point x="64" y="552"/>
      <point x="64" y="393" type="curve" smooth="yes"/>
      <point x="64" y="307" type="line" smooth="yes"/>
      <point x="64" y="148"/>
      <point x="156" y="56"/>
      <point x="313" y="56" type="curve" smooth="yes"/>
      <point x="389" y="56" type="line"/>
      <point x="389" y="114" type="line"/>
      <point x="313" y="114" type="line" smooth="yes"/>
      <point x="194" y="114"/>
      <point x="128" y="183"/>
      <point x="128" y="307" type="curve" smooth="yes"/>
      <point x="128" y="393" type="line" smooth="yes"/>
      <point x="128" y="517"/>
      <point x="194" y="586"/>
      <point x="313" y="586" type="curve" smooth="yes"/>
      <point x="389" y="586" type="line"/>
      <point x="389" y="644" type="line"/>
    </contour>
    <contour>
      <point x="489" y="644" type="curve" smooth="yes"/>
      <point x="413" y="644" type="line"/>
      <point x="413" y="586" type="line"/>
      <point x="489" y="586" type="line" smooth="yes"/>
      <point x="608" y="586"/>
      <point x="674" y="517"/>
      <point x="674" y="393" type="curve" smooth="yes"/>
      <point x="674" y="307" type="line" smooth="yes"/>
      <point x="674" y="183"/>
      <point x="608" y="114"/>
      <point x="489" y="114" type="curve" smooth="yes"/>
      <point x="413" y="114" type="line"/>
      <point x="413" y="56" type="line"/>
      <point x="489" y="56" type="line" smooth="yes"/>
      <point x="646" y="56"/>
      <point x="738" y="148"/>
      <point x="738" y="307" type="curve" smooth="yes"/>
      <point x="738" y="393" type="line" smooth="yes"/>
      <point x="738" y="552"/>
      <point x="646" y="644"/>
    </contour>
  </outline>
</glyph>
<glyph name="Tsecyr" format="2">
  <advance width="702"/>
  <unicode hex="0426"/>
  <outline>
    <contour>
      <point x="150" y="700" type="line"/>
      <point x="86" y="700" type="line"/>
      <point x="86" y="0" type="line"/>
      <point x="586" y="0" type="line"/>
      <point x="586" y="-148" type="line"/>
      <point x="650" y="-148" type="line"/>
      <point x="650" y="58" type="line"/>
      <point x="570" y="58" type="line"/>
      <point x="570" y="700" type="line"/>
      <point x="506" y="700" type="line"/>
      <point x="506" y="58" type="line"/>
      <point x="150" y="58" type="line"/>
    </contour>
  </outline>
</glyph>
<glyph name="Checyr" format="2">
  <advance width="634"/>
  <unicode hex="0427"/>
  <outline>
    <contour>
      <point x="484" y="700" type="line"/>
      <point x="484" y="394" type="line"/>
      <point x="443" y="342"/>
      <point x="382" y="312"/>
      <point x="305" y="312" type="curve" smooth="yes"/>
      <point x="207" y="312"/>
      <point x="144" y="360"/>
      <point x="144" y="478" type="curve"/>
      <point x="144" y="700" type="line"/>
      <point x="80" y="700" type="line"/>
      <point x="80" y="474" type="line"/>
      <point x="80" y="324"/>
      <point x="168" y="251"/>
      <point x="299" y="251" type="curve" smooth="yes"/>
      <point x="378" y="251"/>
      <point x="434" y="278"/>
      <point x="472" y="313" type="curve"/>
      <point x="484" y="313" type="line"/>
      <point x="484" y="0" type="line"/>
      <point x="548" y="0" type="line"/>
      <point x="548" y="700" type="line"/>
    </contour>
  </outline>
</glyph>
<glyph name="Shacyr" format="2">
  <advance width="872"/>
  <unicode hex="0428"/>
  <outline>
    <contour>
      <point x="150" y="700" type="line"/>
      <point x="86" y="700" type="line"/>
      <point x="86" y="0" type="line"/>
      <point x="786" y="0" type="line"/>
      <point x="786" y="700" type="line"/>
      <point x="722" y="700" type="line"/>
      <point x="722" y="58" type="line"/>
      <point x="468" y="58" type="line"/>
      <point x="468" y="700" type="line"/>
      <point x="404" y="700" type="line"/>
      <point x="404" y="58" type="line"/>
      <point x="150" y="58" type="line"/>
    </contour>
  </outline>
</glyph>
<glyph name="Shchacyr" format="2">
  <advance width="918"/>
  <unicode hex="0429"/>
  <outline>
    <contour>
      <point x="150" y="700" type="line"/>
      <point x="86" y="700" type="line"/>
      <point x="86" y="0" type="line"/>
      <point x="802" y="0" type="line"/>
      <point x="802" y="-148" type="line"/>
      <point x="866" y="-148" type="line"/>
      <point x="866" y="58" type="line"/>
      <point x="786" y="58" type="line"/>
      <point x="786" y="700" type="line"/>
      <point x="722" y="700" type="line"/>
      <point x="722" y="58" type="line"/>
      <point x="468" y="58" type="line"/>
      <point x="468" y="700" type="line"/>
      <point x="404" y="700" type="line"/>
      <point x="404" y="58" type="line"/>
      <point x="150" y="58" type="line"/>
    </contour>
  </outline>
</glyph>
<glyph name="Hardcyr" format="2">
  <advance width="699"/>
  <unicode hex="042A"/>
  <outline>
    <contour>
      <point x="249" y="700" type="line"/>
      <point x="28" y="700" type="line"/>
      <point x="28" y="642" type="line"/>
      <point x="185" y="642" type="line"/>
      <point x="185" y="0" type="line"/>
      <point x="444" y="0" type="line" smooth="yes"/>
      <point x="567" y="0"/>
      <point x="663" y="72"/>
      <point x="663" y="198" type="curve" smooth="yes"/>
      <point x="663" y="210" type="line" smooth="yes"/>
      <point x="663" y="336"/>
      <point x="565" y="408"/>
      <point x="444" y="408" type="curve" smooth="yes"/>
      <point x="249" y="408" type="line"/>
    </contour>
    <contour>
      <point x="249" y="58" type="line"/>
      <point x="249" y="350" type="line"/>
      <point x="437" y="350" type="line" smooth="yes"/>
      <point x="537" y="350"/>
      <point x="599" y="299"/>
      <point x="599" y="209" type="curve" smooth="yes"/>
      <point x="599" y="199" type="line" smooth="yes"/>
      <point x="599" y="109"/>
      <point x="539" y="58"/>
      <point x="437" y="58" type="curve" smooth="yes"/>
    </contour>
  </outline>
</glyph>
<glyph name="Ylongcyr" format="2">
  <advance width="829"/>
  <unicode hex="042B"/>
  <outline>
    <contour>
      <point x="150" y="700" type="line"/>
      <point x="86" y="700" type="line"/>
      <point x="86" y="0" type="line"/>
      <point x="345" y="0" type="line" smooth="yes"/>
      <point x="468" y="0"/>
      <point x="564" y="72"/>
      <point x="564" y="198" type="curve" smooth="yes"/>
      <point x="564" y="210" type="line" smooth="yes"/>
      <point x="564" y="336"/>
      <point x="466" y="408"/>
      <point x="345" y="408" type="curve" smooth="yes"/>
      <point x="150" y="408" type="line"/>
    </contour>
    <contour>
      <point x="150" y="58" type="line"/>
      <point x="150" y="350" type="line"/>
      <point x="338" y="350" type="line" smooth="yes"/>
      <point x="438" y="350"/>
      <point x="500" y="299"/>
      <point x="500" y="209" type="curve" smooth="yes"/>
      <point x="500" y="199" type="line" smooth="yes"/>
      <point x="500" y="109"/>
      <point x="440" y="58"/>
      <point x="338" y="58" type="curve" smooth="yes"/>
    </contour>
    <contour>
      <point x="743" y="0" type="line"/>
      <point x="743" y="700" type="line"/>
      <point x="679" y="700" type="line"/>
      <point x="679" y="0" type="line"/>
    </contour>
  </outline>
</glyph>
<glyph name="Ereversedcyr" format="2">
  <advance width="641"/>
  <unicode hex="042D"/>
  <outline>
    <component base="C" xScale="-1" xOffset="641"/>
    <contour>
      <point x="537" y="325" type="line"/>
      <point x="233" y="325" type="line"/>
      <point x="233" y="385" type="line"/>
      <point x="537" y="385" type="line"/>
    </contour>
  </outline>
</glyph>
<glyph name="Yucyr" format="2">
  <advance width="930"/>
  <unicode hex="042E"/>
  <outline>
    <contour>
      <point x="150" y="0" type="line"/>
      <point x="150" y="322" type="line"/>
      <point x="356" y="322" type="line"/>
      <point x="356" y="380" type="line"/>
      <point x="150" y="380" type="line"/>
      <point x="150" y="700" type="line"/>
      <point x="86" y="700" type="line"/>
      <point x="86" y="0" type="line"/>
    </contour>
    <contour>
      <point x="597" y="-14" type="curve" smooth="yes"/>
      <point x="761" y="-14"/>
      <point x="866" y="84"/>
      <point x="866" y="271" type="curve" smooth="yes"/>
      <point x="866" y="429" type="line" smooth="yes"/>
      <point x="866" y="616"/>
      <point x="761" y="714"/>
      <point x="597" y="714" type="curve" smooth="yes"/>
      <point x="433" y="714"/>
      <point x="328" y="616"/>
      <point x="328" y="429" type="curve" smooth="yes"/>
      <point x="328" y="271" type="line" smooth="yes"/>
      <point x="328" y="84"/>
      <point x="433" y="-14"/>
    </contour>
    <contour>
      <point x="597" y="44" type="curve" smooth="yes"/>
      <point x="467" y="44"/>
      <point x="392" y="126"/>
      <point x="392" y="269" type="curve" smooth="yes"/>
      <point x="392" y="431" type="line" smooth="yes"/>
      <point x="392" y="574"/>
      <point x="467" y="656"/>
      <point x="597" y="656" type="curve" smooth="yes"/>
      <point x="727" y="656"/>
      <point x="802" y="574"/>
      <point x="802" y="431" type="curve" smooth="yes"/>
      <point x="802" y="269" type="line" smooth="yes"/>
      <point x="802" y="126"/>
      <point x="727" y="44"/>
    </contour>
  </outline>
</glyph>
<glyph name="Yacyr" format="2">
  <advance width="631"/>
  <unicode hex="042F"/>
  <outline>
    <contour>
      <point x="545" y="700" type="line"/>
      <point x="271" y="700" type="line" smooth="yes"/>
      <point x="142" y="700"/>
      <point x="50" y="629"/>
      <point x="50" y="509" type="curve" smooth="yes"/>
      <point x="50" y="499" type="line" smooth="yes"/>
      <point x="50" y="400"/>
      <point x="107" y="331"/>
      <point x="200" y="311" type="curve"/>
      <point x="200" y="299" type="line"/>
      <point x="184" y="294"/>
      <point x="172" y="281"/>
      <point x="165" y="259" type="curve" smooth="yes"/>
      <point x="100" y="60" type="line"/>
      <point x="30" y="60" type="line"/>
      <point x="30" y="0" type="line"/>
      <point x="88" y="0" type="line" smooth="yes"/>
      <point x="132" y="0"/>
      <point x="153" y="18"/>
      <point x="176" y="87" type="curve" smooth="yes"/>
      <point x="244" y="295" type="line"/>
      <point x="481" y="295" type="line"/>
      <point x="481" y="0" type="line"/>
      <point x="545" y="0" type="line"/>
    </contour>
    <contour>
      <point x="481" y="642" type="line"/>
      <point x="481" y="353" type="line"/>
      <point x="277" y="353" type="line" smooth="yes"/>
      <point x="173" y="353"/>
      <point x="114" y="403"/>
      <point x="114" y="495" type="curve" smooth="yes"/>
      <point x="114" y="500" type="line" smooth="yes"/>
      <point x="114" y="592"/>
      <point x="171" y="642"/>
      <point x="277" y="642" type="curve" smooth="yes"/>
    </contour>
  </outline>
</glyph>
<glyph name="becyr" format="2">
  <advance width="630"/>
  <unicode hex="0431"/>
  <anchor x="331" y="0" name="ogonek"/>
  <outline>
    <contour>
      <point x="318" y="438" type="curve" smooth="yes"/>
      <point x="208" y="438"/>
      <point x="132" y="365"/>
      <point x="132" y="243" type="curve" smooth="yes"/>
      <point x="132" y="235" type="line" smooth="yes"/>
      <point x="132" y="113"/>
      <point x="208" y="40"/>
      <point x="318" y="40" type="curve" smooth="yes"/>
      <point x="428" y="40"/>
      <point x="504" y="113"/>
      <point x="504" y="235" type="curve" smooth="yes"/>
      <point x="504" y="243" type="line" smooth="yes"/>
      <point x="504" y="365"/>
      <point x="428" y="438"/>
    </contour>
    <contour>
      <point x="533" y="721" type="line" smooth="yes"/>
      <point x="533" y="676"/>
      <point x="505" y="650"/>
      <point x="458" y="645" type="curve" smooth="yes"/>
      <point x="316" y="631" type="line" smooth="yes"/>
      <point x="177" y="617"/>
      <point x="126" y="564"/>
      <point x="126" y="409" type="curve" smooth="yes"/>
      <point x="126" y="393" type="line"/>
      <point x="138" y="393" type="line"/>
      <point x="175" y="454"/>
      <point x="243" y="492"/>
      <point x="328" y="492" type="curve" smooth="yes"/>
      <point x="460" y="492"/>
      <point x="566" y="397"/>
      <point x="566" y="245" type="curve" smooth="yes"/>
      <point x="566" y="233" type="line" smooth="yes"/>
      <point x="566" y="83"/>
      <point x="468" y="-14"/>
      <point x="318" y="-14" type="curve" smooth="yes"/>
      <point x="166" y="-14"/>
      <point x="70" y="86"/>
      <point x="70" y="247" type="curve" smooth="yes"/>
      <point x="70" y="413" type="line" smooth="yes"/>
      <point x="70" y="588"/>
      <point x="148" y="670"/>
      <point x="309" y="686" type="curve" smooth="yes"/>
      <point x="442" y="699" type="line" smooth="yes"/>
      <point x="471" y="702"/>
      <point x="481" y="712"/>
      <point x="481" y="738" type="curve" smooth="yes"/>
      <point x="481" y="758" type="line"/>
      <point x="533" y="758" type="line"/>
    </contour>
  </outline>
</glyph>
<glyph name="vecyr" format="2">
  <advance width="534"/>
  <unicode hex="0432"/>
  <outline>
    <contour>
      <point x="333" y="0" type="line" smooth="yes"/>
      <point x="416" y="0"/>
      <point x="479" y="48"/>
      <point x="479" y="127" type="curve" smooth="yes"/>
      <point x="479" y="133" type="line" smooth="yes"/>
      <point x="479" y="201"/>
      <point x="433" y="233"/>
      <point x="397" y="242" type="curve"/>
      <point x="397" y="250" type="line"/>
      <point x="432" y="260"/>
      <point x="475" y="290"/>
      <point x="475" y="358" type="curve" smooth="yes"/>
      <point x="475" y="364" type="line" smooth="yes"/>
      <point x="475" y="437"/>
      <point x="415" y="486"/>
      <point x="331" y="486" type="curve" smooth="yes"/>
      <point x="88" y="486" type="line"/>
      <point x="88" y="0" type="line"/>
    </contour>
    <contour>
      <point x="148" y="218" type="line"/>
      <point x="319" y="218" type="line" smooth="yes"/>
      <point x="384" y="218"/>
      <point x="419" y="188"/>
      <point x="419" y="139" type="curve" smooth="yes"/>
      <point x="419" y="131" type="line" smooth="yes"/>
      <point x="419" y="82"/>
      <point x="384" y="54"/>
      <point x="319" y="54" type="curve" smooth="yes"/>
      <point x="148" y="54" type="line"/>
    </contour>
    <contour>
      <point x="148" y="432" type="line"/>
      <point x="318" y="432" type="line" smooth="yes"/>
      <point x="378" y="432"/>
      <point x="415" y="402"/>
      <point x="415" y="356" type="curve" smooth="yes"/>
      <point x="415" y="348" type="line" smooth="yes"/>
      <point x="415" y="302"/>
      <point x="378" y="272"/>
      <point x="318" y="272" type="curve" smooth="yes"/>
      <point x="148" y="272" type="line"/>
    </contour>
  </outline>
</glyph>
<glyph name="gecyr" format="2">
  <advance width="442"/>
  <unicode hex="0433"/>
  <outline>
    <contour>
      <point x="88" y="0" type="line"/>
      <point x="148" y="0" type="line"/>
      <point x="148" y="432" type="line"/>
      <point x="416" y="432" type="line"/>
      <point x="416" y="486" type="line"/>
      <point x="88" y="486" type="line"/>
    </contour>
  </outline>
</glyph>
<glyph name="decyr" format="2">
  <advance width="623"/>
  <unicode hex="0434"/>
  <outline>
    <contour>
      <point x="140" y="486" type="line"/>
      <point x="505" y="486" type="line"/>
      <point x="505" y="54" type="line"/>
      <point x="583" y="54" type="line"/>
      <point x="583" y="-122" type="line"/>
      <point x="523" y="-122" type="line"/>
      <point x="523" y="0" type="line"/>
      <point x="100" y="0" type="line"/>
      <point x="100" y="-122" type="line"/>
      <point x="40" y="-122" type="line"/>
      <point x="40" y="54" type="line"/>
      <point x="94" y="54" type="line"/>
      <point x="118" y="94"/>
      <point x="131" y="161"/>
      <point x="134" y="269" type="curve" smooth="yes"/>
    </contour>
    <contour>
      <point x="445" y="54" type="line"/>
      <point x="445" y="432" type="line"/>
      <point x="195" y="432" type="line"/>
      <point x="190" y="257" type="line" smooth="yes"/>
      <point x="188" y="170"/>
      <point x="177" y="108"/>
      <point x="157" y="54" type="curve"/>
    </contour>
  </outline>
</glyph>
<glyph name="zhecyr" format="2">
  <advance width="802"/>
  <unicode hex="0436"/>
  <outline>
    <contour>
      <point x="756" y="486" type="line"/>
      <point x="705" y="486" type="line" smooth="yes"/>
      <point x="667" y="486"/>
      <point x="650" y="474"/>
      <point x="627" y="427" type="curve" smooth="yes"/>
      <point x="554" y="279" type="line"/>
      <point x="431" y="279" type="line"/>
      <point x="431" y="486" type="line"/>
      <point x="371" y="486" type="line"/>
      <point x="371" y="279" type="line"/>
      <point x="248" y="279" type="line"/>
      <point x="175" y="427" type="line" smooth="yes"/>
      <point x="152" y="474"/>
      <point x="135" y="486"/>
      <point x="97" y="486" type="curve" smooth="yes"/>
      <point x="46" y="486" type="line"/>
      <point x="46" y="434" type="line"/>
      <point x="103" y="434" type="line"/>
      <point x="184" y="280" type="line" smooth="yes"/>
      <point x="190" y="268"/>
      <point x="200" y="259"/>
      <point x="216" y="255" type="curve"/>
      <point x="216" y="247" type="line"/>
      <point x="200" y="243"/>
      <point x="190" y="233"/>
      <point x="184" y="221" type="curve" smooth="yes"/>
      <point x="99" y="52" type="line"/>
      <point x="42" y="52" type="line"/>
      <point x="42" y="0" type="line"/>
      <point x="93" y="0" type="line" smooth="yes"/>
      <point x="132" y="0"/>
      <point x="148" y="12"/>
      <point x="171" y="59" type="curve" smooth="yes"/>
      <point x="252" y="224" type="line"/>
      <point x="371" y="224" type="line"/>
      <point x="371" y="0" type="line"/>
      <point x="431" y="0" type="line"/>
      <point x="431" y="224" type="line"/>
      <point x="550" y="224" type="line"/>
      <point x="631" y="59" type="line" smooth="yes"/>
      <point x="654" y="12"/>
      <point x="670" y="0"/>
      <point x="709" y="0" type="curve" smooth="yes"/>
      <point x="760" y="0" type="line"/>
      <point x="760" y="52" type="line"/>
      <point x="703" y="52" type="line"/>
      <point x="618" y="221" type="line" smooth="yes"/>
      <point x="612" y="233"/>
      <point x="602" y="243"/>
      <point x="586" y="247" type="curve"/>
      <point x="586" y="255" type="line"/>
      <point x="602" y="259"/>
      <point x="612" y="268"/>
      <point x="618" y="280" type="curve" smooth="yes"/>
      <point x="699" y="434" type="line"/>
      <point x="756" y="434" type="line"/>
    </contour>
  </outline>
</glyph>
<glyph name="zecyr" format="2">
  <advance width="528"/>
  <unicode hex="0437"/>
  <outline>
    <contour>
      <point x="381" y="246" type="curve"/>
      <point x="381" y="254" type="line"/>
      <point x="437" y="277"/>
      <point x="461" y="313"/>
      <point x="461" y="363" type="curve" smooth="yes"/>
      <point x="461" y="449"/>
      <point x="389" y="500"/>
      <point x="279" y="500" type="curve" smooth="yes"/>
      <point x="169" y="500"/>
      <point x="99" y="448"/>
      <point x="81" y="353" type="curve"/>
      <point x="137" y="341" type="line"/>
      <point x="150" y="418"/>
      <point x="205" y="448"/>
      <point x="279" y="448" type="curve" smooth="yes"/>
      <point x="353" y="448"/>
      <point x="401" y="417"/>
      <point x="401" y="360" type="curve" smooth="yes"/>
      <point x="401" y="307"/>
      <point x="360" y="276"/>
      <point x="289" y="276" type="curve" smooth="yes"/>
      <point x="184" y="276" type="line"/>
      <point x="184" y="222" type="line"/>
      <point x="291" y="222" type="line" smooth="yes"/>
      <point x="367" y="222"/>
      <point x="413" y="190"/>
      <point x="413" y="134" type="curve" smooth="yes"/>
      <point x="413" y="74"/>
      <point x="359" y="38"/>
      <point x="277" y="38" type="curve" smooth="yes"/>
      <point x="200" y="38"/>
      <point x="128" y="68"/>
      <point x="113" y="174" type="curve"/>
      <point x="54" y="163" type="line"/>
      <point x="72" y="34"/>
      <point x="162" y="-14"/>
      <point x="277" y="-14" type="curve" smooth="yes"/>
      <point x="397" y="-14"/>
      <point x="473" y="39"/>
      <point x="473" y="131" type="curve" smooth="yes"/>
      <point x="473" y="187"/>
      <point x="444" y="224"/>
    </contour>
  </outline>
</glyph>
<glyph name="icyr" format="2">
  <advance width="622"/>
  <unicode hex="0438"/>
  <outline>
    <contour>
      <point x="474" y="0" type="line"/>
      <point x="534" y="0" type="line"/>
      <point x="534" y="486" type="line"/>
      <point x="424" y="486" type="line"/>
      <point x="160" y="36" type="line"/>
      <point x="148" y="36" type="line"/>
      <point x="148" y="486" type="line"/>
      <point x="88" y="486" type="line"/>
      <point x="88" y="0" type="line"/>
      <point x="198" y="0" type="line"/>
      <point x="462" y="450" type="line"/>
      <point x="474" y="450" type="line"/>
    </contour>
  </outline>
</glyph>
<glyph name="kacyr" format="2">
  <advance width="547"/>
  <unicode hex="043A"/>
  <anchor x="264" y="0" name="bottom"/>
  <outline>
    <contour>
      <point x="501" y="486" type="line"/>
      <point x="450" y="486" type="line" smooth="yes"/>
      <point x="412" y="486"/>
      <point x="396" y="474"/>
      <point x="373" y="427" type="curve" smooth="yes"/>
      <point x="301" y="279" type="line"/>
      <point x="148" y="279" type="line"/>
      <point x="148" y="486" type="line"/>
      <point x="88" y="486" type="line"/>
      <point x="88" y="0" type="line"/>
      <point x="148" y="0" type="line"/>
      <point x="148" y="224" type="line"/>
      <point x="297" y="224" type="line"/>
      <point x="377" y="59" type="line" smooth="yes"/>
      <point x="400" y="12"/>
      <point x="415" y="0"/>
      <point x="454" y="0" type="curve" smooth="yes"/>
      <point x="505" y="0" type="line"/>
      <point x="505" y="52" type="line"/>
      <point x="448" y="52" type="line"/>
      <point x="364" y="221" type="line" smooth="yes"/>
      <point x="358" y="233"/>
      <point x="349" y="243"/>
      <point x="333" y="247" type="curve"/>
      <point x="333" y="255" type="line"/>
      <point x="349" y="259"/>
      <point x="358" y="268"/>
      <point x="364" y="280" type="curve" smooth="yes"/>
      <point x="444" y="434" type="line"/>
      <point x="501" y="434" type="line"/>
    </contour>
  </outline>
</glyph>
<glyph name="elcyr" format="2">
  <advance width="601"/>
  <unicode hex="043B"/>
  <outline>
    <contour>
      <point x="148" y="486" type="line"/>
      <point x="513" y="486" type="line"/>
      <point x="513" y="0" type="line"/>
      <point x="453" y="0" type="line"/>
      <point x="453" y="432" type="line"/>
      <point x="203" y="432" type="line"/>
      <point x="197" y="216" type="line" smooth="yes"/>
      <point x="193" y="70"/>
      <point x="149" y="0"/>
      <point x="61" y="0" type="curve" smooth="yes"/>
      <point x="34" y="0" type="line"/>
      <point x="34" y="54" type="line"/>
      <point x="54" y="54" type="line" smooth="yes"/>
      <point x="111" y="54"/>
      <point x="138" y="106"/>
      <point x="141" y="228" type="curve" smooth="yes"/>
    </contour>
  </outline>
</glyph>
<glyph name="emcyr" format="2">
  <advance width="784"/>
  <unicode hex="043C"/>
  <outline>
    <contour>
      <point x="205" y="486" type="line"/>
      <point x="88" y="486" type="line"/>
      <point x="88" y="0" type="line"/>
      <point x="148" y="0" type="line"/>
      <point x="148" y="446" type="line"/>
      <point x="160" y="446" type="line"/>
      <point x="341" y="0" type="line"/>
      <point x="443" y="0" type="line"/>
      <point x="624" y="446" type="line"/>
      <point x="636" y="446" type="line"/>
      <point x="636" y="0" type="line"/>
      <point x="696" y="0" type="line"/>
      <point x="696" y="486" type="line"/>
      <point x="579" y="486" type="line"/>
      <point x="398" y="40" type="line"/>
      <point x="386" y="40" type="line"/>
    </contour>
  </outline>
</glyph>
<glyph name="pecyr" format="2">
  <advance width="618"/>
  <unicode hex="043F"/>
  <outline>
    <contour>
      <point x="88" y="0" type="line"/>
      <point x="148" y="0" type="line"/>
      <point x="148" y="432" type="line"/>
      <point x="470" y="432" type="line"/>
      <point x="470" y="0" type="line"/>
      <point x="530" y="0" type="line"/>
      <point x="530" y="486" type="line"/>
      <point x="88" y="486" type="line"/>
    </contour>
  </outline>
</glyph>
<glyph name="tecyr" format="2">
  <advance width="512"/>
  <unicode hex="0442"/>
  <outline>
    <contour>
      <point x="226" y="0" type="line"/>
      <point x="286" y="0" type="line"/>
      <point x="286" y="432" type="line"/>
      <point x="486" y="432" type="line"/>
      <point x="486" y="486" type="line"/>
      <point x="26" y="486" type="line"/>
      <point x="26" y="432" type="line"/>
      <point x="226" y="432" type="line"/>
    </contour>
  </outline>
</glyph>
<glyph name="efcyr" format="2">
  <advance width="754"/>
  <unicode hex="0444"/>
  <anchor x="-116" y="0" name="bottom"/>
  <anchor x="-86" y="700" name="sidecaron"/>
  <anchor x="-116" y="700" name="top"/>
  <outline>
    <contour>
      <point x="407" y="-214" type="line"/>
      <point x="407" y="700" type="line"/>
      <point x="347" y="700" type="line"/>
      <point x="347" y="-214" type="line"/>
    </contour>
    <contour>
      <point x="414" y="-14" type="line" smooth="yes"/>
      <point x="592" y="-14"/>
      <point x="690" y="87"/>
      <point x="690" y="237" type="curve" smooth="yes"/>
      <point x="690" y="249" type="line" smooth="yes"/>
      <point x="690" y="399"/>
      <point x="592" y="500"/>
      <point x="414" y="500" type="curve" smooth="yes"/>
      <point x="340" y="500" type="line" smooth="yes"/>
      <point x="162" y="500"/>
      <point x="64" y="399"/>
      <point x="64" y="249" type="curve" smooth="yes"/>
      <point x="64" y="237" type="line" smooth="yes"/>
      <point x="64" y="87"/>
      <point x="162" y="-14"/>
      <point x="340" y="-14" type="curve" smooth="yes"/>
    </contour>
    <contour>
      <point x="414" y="40" type="curve" smooth="yes"/>
      <point x="340" y="40" type="line" smooth="yes"/>
      <point x="196" y="40"/>
      <point x="124" y="119"/>
      <point x="124" y="239" type="curve" smooth="yes"/>
      <point x="124" y="247" type="line" smooth="yes"/>
      <point x="124" y="367"/>
      <point x="196" y="446"/>
      <point x="340" y="446" type="curve" smooth="yes"/>
      <point x="414" y="446" type="line" smooth="yes"/>
      <point x="558" y="446"/>
      <point x="630" y="367"/>
      <point x="630" y="247" type="curve" smooth="yes"/>
      <point x="630" y="239" type="line" smooth="yes"/>
      <point x="630" y="119"/>
      <point x="558" y="40"/>
    </contour>
  </outline>
</glyph>
<glyph name="tsecyr" format="2">
  <advance width="648"/>
  <unicode hex="0446"/>
  <outline>
    <contour>
      <point x="88" y="486" type="line"/>
      <point x="148" y="486" type="line"/>
      <point x="148" y="54" type="line"/>
      <point x="470" y="54" type="line"/>
      <point x="470" y="486" type="line"/>
      <point x="530" y="486" type="line"/>
      <point x="530" y="54" type="line"/>
      <point x="608" y="54" type="line"/>
      <point x="608" y="-122" type="line"/>
      <point x="548" y="-122" type="line"/>
      <point x="548" y="0" type="line"/>
      <point x="88" y="0" type="line"/>
    </contour>
  </outline>
</glyph>
<glyph name="checyr" format="2">
  <advance width="602"/>
  <unicode hex="0447"/>
  <outline>
    <contour>
      <point x="454" y="486" type="line"/>
      <point x="454" y="288" type="line"/>
      <point x="416" y="240"/>
      <point x="360" y="214"/>
      <point x="290" y="214" type="curve" smooth="yes"/>
      <point x="200" y="214"/>
      <point x="142" y="257"/>
      <point x="142" y="363" type="curve" smooth="yes"/>
      <point x="142" y="486" type="line"/>
      <point x="82" y="486" type="line"/>
      <point x="82" y="359" type="line" smooth="yes"/>
      <point x="82" y="225"/>
      <point x="163" y="160"/>
      <point x="282" y="160" type="curve" smooth="yes"/>
      <point x="355" y="160"/>
      <point x="407" y="184"/>
      <point x="442" y="215" type="curve"/>
      <point x="454" y="215" type="line"/>
      <point x="454" y="0" type="line"/>
      <point x="514" y="0" type="line"/>
      <point x="514" y="486" type="line"/>
    </contour>
  </outline>
</glyph>
<glyph name="shacyr" format="2">
  <advance width="808"/>
  <unicode hex="0448"/>
  <outline>
    <contour>
      <point x="88" y="486" type="line"/>
      <point x="88" y="0" type="line"/>
      <point x="720" y="0" type="line"/>
      <point x="720" y="486" type="line"/>
      <point x="660" y="486" type="line"/>
      <point x="660" y="54" type="line"/>
      <point x="434" y="54" type="line"/>
      <point x="434" y="486" type="line"/>
      <point x="374" y="486" type="line"/>
      <point x="374" y="54" type="line"/>
      <point x="148" y="54" type="line"/>
      <point x="148" y="486" type="line"/>
    </contour>
  </outline>
</glyph>
<glyph name="shchacyr" format="2">
  <advance width="838"/>
  <unicode hex="0449"/>
  <outline>
    <contour>
      <point x="88" y="486" type="line"/>
      <point x="88" y="0" type="line"/>
      <point x="738" y="0" type="line"/>
      <point x="738" y="-122" type="line"/>
      <point x="798" y="-122" type="line"/>
      <point x="798" y="54" type="line"/>
      <point x="720" y="54" type="line"/>
      <point x="720" y="486" type="line"/>
      <point x="660" y="486" type="line"/>
      <point x="660" y="54" type="line"/>
      <point x="434" y="54" type="line"/>
      <point x="434" y="486" type="line"/>
      <point x="374" y="486" type="line"/>
      <point x="374" y="54" type="line"/>
      <point x="148" y="54" type="line"/>
      <point x="148" y="486" type="line"/>
    </contour>
  </outline>
</glyph>
<glyph name="hardcyr" format="2">
  <advance width="606"/>
  <unicode hex="044A"/>
  <outline>
    <contour>
      <point x="397" y="306" type="curve" smooth="yes"/>
      <point x="221" y="306" type="line"/>
      <point x="221" y="486" type="line"/>
      <point x="26" y="486" type="line"/>
      <point x="26" y="432" type="line"/>
      <point x="161" y="432" type="line"/>
      <point x="161" y="0" type="line"/>
      <point x="397" y="0" type="line" smooth="yes"/>
      <point x="487" y="0"/>
      <point x="551" y="60"/>
      <point x="551" y="149" type="curve" smooth="yes"/>
      <point x="551" y="157" type="line" smooth="yes"/>
      <point x="551" y="247"/>
      <point x="487" y="306"/>
    </contour>
    <contour>
      <point x="221" y="252" type="line"/>
      <point x="389" y="252" type="line" smooth="yes"/>
      <point x="452" y="252"/>
      <point x="491" y="216"/>
      <point x="491" y="156" type="curve" smooth="yes"/>
      <point x="491" y="150" type="line" smooth="yes"/>
      <point x="491" y="90"/>
      <point x="452" y="54"/>
      <point x="389" y="54" type="curve" smooth="yes"/>
      <point x="221" y="54" type="line"/>
    </contour>
  </outline>
</glyph>
<glyph name="ylongcyr" format="2">
  <advance width="693"/>
  <unicode hex="044B"/>
  <outline>
    <contour>
      <point x="605" y="0" type="line"/>
      <point x="605" y="486" type="line"/>
      <point x="545" y="486" type="line"/>
      <point x="545" y="0" type="line"/>
    </contour>
    <contour>
      <point x="148" y="252" type="line"/>
      <point x="306" y="252" type="line" smooth="yes"/>
      <point x="369" y="252"/>
      <point x="408" y="216"/>
      <point x="408" y="156" type="curve" smooth="yes"/>
      <point x="408" y="150" type="line" smooth="yes"/>
      <point x="408" y="90"/>
      <point x="369" y="54"/>
      <point x="306" y="54" type="curve" smooth="yes"/>
      <point x="148" y="54" type="line"/>
    </contour>
    <contour>
      <point x="314" y="306" type="curve" smooth="yes"/>
      <point x="148" y="306" type="line"/>
      <point x="148" y="486" type="line"/>
      <point x="88" y="486" type="line"/>
      <point x="88" y="0" type="line"/>
      <point x="314" y="0" type="line" smooth="yes"/>
      <point x="404" y="0"/>
      <point x="468" y="60"/>
      <point x="468" y="149" type="curve" smooth="yes"/>
      <point x="468" y="157" type="line" smooth="yes"/>
      <point x="468" y="247"/>
      <point x="404" y="306"/>
    </contour>
  </outline>
</glyph>
<glyph name="softcyr" format="2">
  <advance width="533"/>
  <unicode hex="044C"/>
  <outline>
    <contour>
      <point x="148" y="252" type="line"/>
      <point x="316" y="252" type="line" smooth="yes"/>
      <point x="379" y="252"/>
      <point x="418" y="216"/>
      <point x="418" y="156" type="curve" smooth="yes"/>
      <point x="418" y="150" type="line" smooth="yes"/>
      <point x="418" y="90"/>
      <point x="379" y="54"/>
      <point x="316" y="54" type="curve" smooth="yes"/>
      <point x="148" y="54" type="line"/>
    </contour>
    <contour>
      <point x="324" y="306" type="curve" smooth="yes"/>
      <point x="148" y="306" type="line"/>
      <point x="148" y="486" type="line"/>
      <point x="88" y="486" type="line"/>
      <point x="88" y="0" type="line"/>
      <point x="324" y="0" type="line" smooth="yes"/>
      <point x="414" y="0"/>
      <point x="478" y="60"/>
      <point x="478" y="149" type="curve" smooth="yes"/>
      <point x="478" y="157" type="line" smooth="yes"/>
      <point x="478" y="247"/>
      <point x="414" y="306"/>
    </contour>
  </outline>
</glyph>
<glyph name="ereversedcyr" format="2">
  <advance width="603"/>
  <unicode hex="044D"/>
  <outline>
    <contour>
      <point x="495" y="220" type="line"/>
      <point x="495" y="274" type="line"/>
      <point x="214" y="274" type="line"/>
      <point x="214" y="220" type="line"/>
    </contour>
    <contour>
      <point x="293" y="-14" type="curve" smooth="yes"/>
      <point x="435" y="-14"/>
      <point x="539" y="83"/>
      <point x="539" y="238" type="curve" smooth="yes"/>
      <point x="539" y="248" type="line" smooth="yes"/>
      <point x="539" y="403"/>
      <point x="435" y="500"/>
      <point x="293" y="500" type="curve" smooth="yes"/>
      <point x="153" y="500"/>
      <point x="78" y="409"/>
      <point x="64" y="315" type="curve"/>
      <point x="122" y="303" type="line"/>
      <point x="132" y="381"/>
      <point x="186" y="448"/>
      <point x="294" y="448" type="curve" smooth="yes"/>
      <point x="401" y="448"/>
      <point x="481" y="371"/>
      <point x="481" y="247" type="curve" smooth="yes"/>
      <point x="481" y="239" type="line" smooth="yes"/>
      <point x="481" y="115"/>
      <point x="401" y="38"/>
      <point x="294" y="38" type="curve" smooth="yes"/>
      <point x="186" y="38"/>
      <point x="131" y="102"/>
      <point x="118" y="183" type="curve"/>
      <point x="60" y="171" type="line"/>
      <point x="78" y="76"/>
      <point x="153" y="-14"/>
    </contour>
  </outline>
</glyph>
<glyph name="yucyr" format="2">
  <advance width="829"/>
  <unicode hex="044E"/>
  <outline>
    <contour>
      <point x="314" y="274" type="line"/>
      <point x="148" y="274" type="line"/>
      <point x="148" y="486" type="line"/>
      <point x="88" y="486" type="line"/>
      <point x="88" y="0" type="line"/>
      <point x="148" y="0" type="line"/>
      <point x="148" y="220" type="line"/>
      <point x="314" y="220" type="line"/>
    </contour>
    <contour>
      <point x="523" y="-14" type="curve" smooth="yes"/>
      <point x="669" y="-14"/>
      <point x="765" y="87"/>
      <point x="765" y="237" type="curve" smooth="yes"/>
      <point x="765" y="249" type="line" smooth="yes"/>
      <point x="765" y="399"/>
      <point x="669" y="500"/>
      <point x="523" y="500" type="curve" smooth="yes"/>
      <point x="377" y="500"/>
      <point x="281" y="399"/>
      <point x="281" y="249" type="curve" smooth="yes"/>
      <point x="281" y="237" type="line" smooth="yes"/>
      <point x="281" y="87"/>
      <point x="377" y="-14"/>
    </contour>
    <contour>
      <point x="523" y="40" type="curve" smooth="yes"/>
      <point x="411" y="40"/>
      <point x="341" y="119"/>
      <point x="341" y="239" type="curve" smooth="yes"/>
      <point x="341" y="247" type="line" smooth="yes"/>
      <point x="341" y="367"/>
      <point x="411" y="446"/>
      <point x="523" y="446" type="curve" smooth="yes"/>
      <point x="635" y="446"/>
      <point x="705" y="367"/>
      <point x="705" y="247" type="curve" smooth="yes"/>
      <point x="705" y="239" type="line" smooth="yes"/>
      <point x="705" y="119"/>
      <point x="635" y="40"/>
    </contour>
  </outline>
</glyph>
<glyph name="yacyr" format="2">
  <advance width="535"/>
  <unicode hex="044F"/>
  <outline>
    <contour>
      <point x="387" y="240" type="line"/>
      <point x="219" y="240" type="line" smooth="yes"/>
      <point x="156" y="240"/>
      <point x="117" y="275"/>
      <point x="117" y="333" type="curve" smooth="yes"/>
      <point x="117" y="339" type="line" smooth="yes"/>
      <point x="117" y="397"/>
      <point x="156" y="432"/>
      <point x="219" y="432" type="curve" smooth="yes"/>
      <point x="387" y="432" type="line"/>
    </contour>
    <contour>
      <point x="447" y="486" type="line"/>
      <point x="211" y="486" type="line" smooth="yes"/>
      <point x="118" y="486"/>
      <point x="57" y="426"/>
      <point x="57" y="341" type="curve" smooth="yes"/>
      <point x="57" y="334" type="line" smooth="yes"/>
      <point x="57" y="259"/>
      <point x="108" y="208"/>
      <point x="171" y="199" type="curve"/>
      <point x="171" y="192" type="line"/>
      <point x="158" y="188"/>
      <point x="149" y="178"/>
      <point x="144" y="166" type="curve" smooth="yes"/>
      <point x="95" y="52" type="line"/>
      <point x="42" y="52" type="line"/>
      <point x="42" y="0" type="line"/>
      <point x="90" y="0" type="line" smooth="yes"/>
      <point x="125" y="0"/>
      <point x="139" y="10"/>
      <point x="155" y="49" type="curve" smooth="yes"/>
      <point x="212" y="186" type="line"/>
      <point x="387" y="186" type="line"/>
      <point x="387" y="0" type="line"/>
      <point x="447" y="0" type="line"/>
    </contour>
  </outline>
</glyph>
<glyph name="eukrcyr" format="2">
  <advance width="603"/>
  <unicode hex="0454"/>
  <outline>
    <contour>
      <point x="108" y="220" type="line"/>
      <point x="389" y="220" type="line"/>
      <point x="389" y="274" type="line"/>
      <point x="108" y="274" type="line"/>
    </contour>
    <contour>
      <point x="310" y="-14" type="curve" smooth="yes"/>
      <point x="450" y="-14"/>
      <point x="525" y="76"/>
      <point x="543" y="171" type="curve"/>
      <point x="485" y="183" type="line"/>
      <point x="472" y="102"/>
      <point x="417" y="38"/>
      <point x="309" y="38" type="curve" smooth="yes"/>
      <point x="202" y="38"/>
      <point x="122" y="115"/>
      <point x="122" y="239" type="curve" smooth="yes"/>
      <point x="122" y="247" type="line" smooth="yes"/>
      <point x="122" y="371"/>
      <point x="202" y="448"/>
      <point x="309" y="448" type="curve" smooth="yes"/>
      <point x="417" y="448"/>
      <point x="471" y="381"/>
      <point x="481" y="303" type="curve"/>
      <point x="539" y="315" type="line"/>
      <point x="525" y="409"/>
      <point x="450" y="500"/>
      <point x="310" y="500" type="curve" smooth="yes"/>
      <point x="168" y="500"/>
      <point x="64" y="403"/>
      <point x="64" y="248" type="curve" smooth="yes"/>
      <point x="64" y="238" type="line" smooth="yes"/>
      <point x="64" y="83"/>
      <point x="168" y="-14"/>
    </contour>
  </outline>
</glyph>
<glyph name="ljecyr" format="2">
  <advance width="854"/>
  <unicode hex="0459"/>
  <outline>
    <contour>
      <point x="148" y="486" type="line"/>
      <point x="141" y="228" type="line" smooth="yes"/>
      <point x="138" y="106"/>
      <point x="111" y="54"/>
      <point x="54" y="54" type="curve" smooth="yes"/>
      <point x="34" y="54" type="line"/>
      <point x="34" y="0" type="line"/>
      <point x="61" y="0" type="line" smooth="yes"/>
      <point x="149" y="0"/>
      <point x="193" y="70"/>
      <point x="197" y="216" type="curve" smooth="yes"/>
      <point x="203" y="432" type="line"/>
      <point x="429" y="432" type="line"/>
      <point x="429" y="0" type="line"/>
      <point x="489" y="0" type="line"/>
      <point x="489" y="486" type="line"/>
    </contour>
    <contour>
      <point x="489" y="236" type="line"/>
      <point x="647" y="236" type="line" smooth="yes"/>
      <point x="701" y="236"/>
      <point x="739" y="203"/>
      <point x="739" y="148" type="curve" smooth="yes"/>
      <point x="739" y="142" type="line" smooth="yes"/>
      <point x="739" y="87"/>
      <point x="701" y="54"/>
      <point x="647" y="54" type="curve" smooth="yes"/>
      <point x="489" y="54" type="line"/>
    </contour>
    <contour>
      <point x="655" y="290" type="curve" smooth="yes"/>
      <point x="489" y="290" type="line"/>
      <point x="489" y="486" type="line"/>
      <point x="429" y="486" type="line"/>
      <point x="429" y="0" type="line"/>
      <point x="655" y="0" type="line" smooth="yes"/>
      <point x="736" y="0"/>
      <point x="799" y="57"/>
      <point x="799" y="141" type="curve" smooth="yes"/>
      <point x="799" y="149" type="line" smooth="yes"/>
      <point x="799" y="234"/>
      <point x="736" y="290"/>
    </contour>
  </outline>
</glyph>
<glyph name="njecyr" format="2">
  <advance width="865"/>
  <unicode hex="045A"/>
  <outline>
    <contour>
      <point x="440" y="486" type="line"/>
      <point x="440" y="290" type="line"/>
      <point x="148" y="290" type="line"/>
      <point x="148" y="486" type="line"/>
      <point x="88" y="486" type="line"/>
      <point x="88" y="0" type="line"/>
      <point x="148" y="0" type="line"/>
      <point x="148" y="236" type="line"/>
      <point x="440" y="236" type="line"/>
      <point x="440" y="0" type="line"/>
      <point x="500" y="0" type="line"/>
      <point x="500" y="486" type="line"/>
    </contour>
    <contour>
      <point x="500" y="236" type="line"/>
      <point x="658" y="236" type="line" smooth="yes"/>
      <point x="712" y="236"/>
      <point x="750" y="203"/>
      <point x="750" y="148" type="curve" smooth="yes"/>
      <point x="750" y="142" type="line" smooth="yes"/>
      <point x="750" y="87"/>
      <point x="712" y="54"/>
      <point x="658" y="54" type="curve" smooth="yes"/>
      <point x="500" y="54" type="line"/>
    </contour>
    <contour>
      <point x="666" y="290" type="curve" smooth="yes"/>
      <point x="500" y="290" type="line"/>
      <point x="500" y="486" type="line"/>
      <point x="440" y="486" type="line"/>
      <point x="440" y="0" type="line"/>
      <point x="666" y="0" type="line" smooth="yes"/>
      <point x="747" y="0"/>
      <point x="810" y="57"/>
      <point x="810" y="141" type="curve" smooth="yes"/>
      <point x="810" y="149" type="line" smooth="yes"/>
      <point x="810" y="234"/>
      <point x="747" y="290"/>
    </contour>
  </outline>
</glyph>
<glyph name="tshecyr" format="2">
  <advance width="612"/>
  <unicode hex="045B"/>
  <anchor x="118" y="700" name="top"/>
  <outline>
    <contour>
      <point x="148" y="0" type="line"/>
      <point x="148" y="243" type="line" smooth="yes"/>
      <point x="148" y="376"/>
      <point x="223" y="441"/>
      <point x="323" y="441" type="curve" smooth="yes"/>
      <point x="412" y="441"/>
      <point x="470" y="398"/>
      <point x="470" y="292" type="curve" smooth="yes"/>
      <point x="470" y="0" type="line"/>
      <point x="530" y="0" type="line"/>
      <point x="530" y="296" type="line" smooth="yes"/>
      <point x="530" y="430"/>
      <point x="441" y="495"/>
      <point x="336" y="495" type="curve" smooth="yes"/>
      <point x="232" y="495"/>
      <point x="184" y="448"/>
      <point x="160" y="401" type="curve"/>
      <point x="148" y="401" type="line"/>
      <point x="148" y="577" type="line"/>
      <point x="298" y="577" type="line"/>
      <point x="298" y="629" type="line"/>
      <point x="148" y="629" type="line"/>
      <point x="148" y="700" type="line"/>
      <point x="88" y="700" type="line"/>
      <point x="88" y="629" type="line"/>
      <point x="-2" y="629" type="line"/>
      <point x="-2" y="577" type="line"/>
      <point x="88" y="577" type="line"/>
      <point x="88" y="0" type="line"/>
    </contour>
  </outline>
</glyph>
<glyph name="dzhecyr" format="2">
  <advance width="618"/>
  <unicode hex="045F"/>
  <outline>
    <contour>
      <point x="88" y="486" type="line"/>
      <point x="148" y="486" type="line"/>
      <point x="148" y="54" type="line"/>
      <point x="470" y="54" type="line"/>
      <point x="470" y="486" type="line"/>
      <point x="530" y="486" type="line"/>
      <point x="530" y="0" type="line"/>
      <point x="339" y="0" type="line"/>
      <point x="339" y="-122" type="line"/>
      <point x="279" y="-122" type="line"/>
      <point x="279" y="0" type="line"/>
      <point x="88" y="0" type="line"/>
    </contour>
  </outline>
</glyph>
<glyph name="Geupcyr" format="2">
  <advance width="478"/>
  <unicode hex="0490"/>
  <outline>
    <contour>
      <point x="150" y="0" type="line"/>
      <point x="150" y="642" type="line"/>
      <point x="450" y="642" type="line"/>
      <point x="450" y="700" type="line"/>
      <point x="86" y="700" type="line"/>
      <point x="86" y="0" type="line"/>
    </contour>
    <contour>
      <point x="390" y="642" type="line"/>
      <point x="450" y="642" type="line"/>
      <point x="450" y="860" type="line"/>
      <point x="390" y="860" type="line"/>
    </contour>
  </outline>
</glyph>
<glyph name="geupcyr" format="2">
  <advance width="442"/>
  <unicode hex="0491"/>
  <outline>
    <contour>
      <point x="88" y="0" type="line"/>
      <point x="148" y="0" type="line"/>
      <point x="148" y="432" type="line"/>
      <point x="416" y="432" type="line"/>
      <point x="416" y="486" type="line"/>
      <point x="88" y="486" type="line"/>
    </contour>
    <contour>
      <point x="356" y="432" type="line"/>
      <point x="416" y="432" type="line"/>
      <point x="416" y="620" type="line"/>
      <point x="356" y="620" type="line"/>
    </contour>
  </outline>
</glyph>
<glyph name="baht" format="2">
  <advance width="680"/>
  <unicode hex="0E3F"/>
  <outline>
    <contour>
      <point x="412" y="0" type="line" smooth="yes"/>
      <point x="531" y="0"/>
      <point x="622" y="68"/>
      <point x="622" y="182" type="curve" smooth="yes"/>
      <point x="622" y="192" type="line" smooth="yes"/>
      <point x="622" y="290"/>
      <point x="556" y="335"/>
      <point x="504" y="348" type="curve"/>
      <point x="504" y="360" type="line"/>
      <point x="555" y="375"/>
      <point x="622" y="419"/>
      <point x="622" y="517" type="curve" smooth="yes"/>
      <point x="622" y="525" type="line" smooth="yes"/>
      <point x="622" y="629"/>
      <point x="535" y="700"/>
      <point x="415" y="700" type="curve" smooth="yes"/>
      <point x="48" y="700" type="line"/>
      <point x="48" y="642" type="line"/>
      <point x="148" y="642" type="line"/>
      <point x="148" y="58" type="line"/>
      <point x="48" y="58" type="line"/>
      <point x="48" y="0" type="line"/>
    </contour>
    <contour>
      <point x="212" y="324" type="line"/>
      <point x="406" y="324" type="line" smooth="yes"/>
      <point x="506" y="324"/>
      <point x="558" y="274"/>
      <point x="558" y="195" type="curve" smooth="yes"/>
      <point x="558" y="187" type="line" smooth="yes"/>
      <point x="558" y="108"/>
      <point x="506" y="58"/>
      <point x="406" y="58" type="curve" smooth="yes"/>
      <point x="212" y="58" type="line"/>
    </contour>
    <contour>
      <point x="212" y="642" type="line"/>
      <point x="410" y="642" type="line" smooth="yes"/>
      <point x="502" y="642"/>
      <point x="558" y="592"/>
      <point x="558" y="517" type="curve" smooth="yes"/>
      <point x="558" y="507" type="line" smooth="yes"/>
      <point x="558" y="432"/>
      <point x="502" y="382"/>
      <point x="410" y="382" type="curve" smooth="yes"/>
      <point x="212" y="382" type="line"/>
    </contour>
    <contour>
      <point x="400" y="816" type="line"/>
      <point x="340" y="816" type="line"/>
      <point x="340" y="-116" type="line"/>
      <point x="400" y="-116" type="line"/>
    </contour>
  </outline>
</glyph>
<glyph name="tlinebelow" format="2">
  <advance width="462"/>
  <unicode hex="1E6F"/>
  <outline>
    <component base="t"/>
    <contour>
      <point x="390" y="-144" type="line"/>
      <point x="390" y="-92" type="line"/>
      <point x="180" y="-92" type="line"/>
      <point x="180" y="-144" type="line"/>
    </contour>
  </outline>
</glyph>
<glyph name="Germandbls" format="2">
  <advance width="625"/>
  <unicode hex="1E9E"/>
  <outline>
    <contour>
      <point x="407" y="-14" type="curve" smooth="yes"/>
      <point x="521" y="-14"/>
      <point x="588" y="53"/>
      <point x="588" y="147" type="curve" smooth="yes"/>
      <point x="588" y="241"/>
      <point x="522" y="281"/>
      <point x="458" y="310" type="curve" smooth="yes"/>
      <point x="411" y="331" type="line" smooth="yes"/>
      <point x="381" y="344"/>
      <point x="363" y="358"/>
      <point x="363" y="384" type="curve" smooth="yes"/>
      <point x="363" y="408"/>
      <point x="375" y="425"/>
      <point x="395" y="444" type="curve" smooth="yes"/>
      <point x="573" y="612" type="line"/>
      <point x="573" y="700" type="line"/>
      <point x="321" y="700" type="line" smooth="yes"/>
      <point x="176" y="700"/>
      <point x="80" y="617"/>
      <point x="80" y="448" type="curve" smooth="yes"/>
      <point x="80" y="0" type="line"/>
      <point x="144" y="0" type="line"/>
      <point x="144" y="452" type="line" smooth="yes"/>
      <point x="144" y="590"/>
      <point x="219" y="642"/>
      <point x="321" y="642" type="curve" smooth="yes"/>
      <point x="507" y="642" type="line"/>
      <point x="507" y="632" type="line"/>
      <point x="361" y="494" type="line" smooth="yes"/>
      <point x="324" y="459"/>
      <point x="299" y="430"/>
      <point x="299" y="383" type="curve" smooth="yes"/>
      <point x="299" y="336"/>
      <point x="327" y="303"/>
      <point x="383" y="278" type="curve" smooth="yes"/>
      <point x="430" y="257" type="line" smooth="yes"/>
      <point x="479" y="235"/>
      <point x="524" y="209"/>
      <point x="524" y="147" type="curve" smooth="yes"/>
      <point x="524" y="85"/>
      <point x="481" y="44"/>
      <point x="407" y="44" type="curve" smooth="yes"/>
      <point x="333" y="44"/>
      <point x="282" y="85"/>
      <point x="282" y="168" type="curve"/>
      <point x="218" y="168" type="line"/>
      <point x="218" y="53"/>
      <point x="293" y="-14"/>
    </contour>
  </outline>
</glyph>
<glyph name="figuredash" format="2">
  <advance width="620"/>
  <unicode hex="2012"/>
  <outline>
    <contour>
      <point x="536" y="230" type="line"/>
      <point x="536" y="286" type="line"/>
      <point x="84" y="286" type="line"/>
      <point x="84" y="230" type="line"/>
    </contour>
  </outline>
</glyph>
<glyph name="endash" format="2">
  <advance width="616"/>
  <unicode hex="2013"/>
  <outline>
    <contour>
      <point x="532" y="230" type="line"/>
      <point x="532" y="286" type="line"/>
      <point x="84" y="286" type="line"/>
      <point x="84" y="230" type="line"/>
    </contour>
  </outline>
</glyph>
<glyph name="emdash" format="2">
  <advance width="920"/>
  <unicode hex="2014"/>
  <outline>
    <contour>
      <point x="836" y="230" type="line"/>
      <point x="836" y="286" type="line"/>
      <point x="84" y="286" type="line"/>
      <point x="84" y="230" type="line"/>
    </contour>
  </outline>
</glyph>
<glyph name="daggerdbl" format="2">
  <advance width="570"/>
  <unicode hex="2021"/>
  <outline>
    <contour>
      <point x="316" y="0" type="line"/>
      <point x="316" y="198" type="line"/>
      <point x="490" y="198" type="line"/>
      <point x="490" y="254" type="line"/>
      <point x="316" y="254" type="line"/>
      <point x="316" y="448" type="line"/>
      <point x="490" y="448" type="line"/>
      <point x="490" y="504" type="line"/>
      <point x="316" y="504" type="line"/>
      <point x="316" y="700" type="line"/>
      <point x="254" y="700" type="line"/>
      <point x="254" y="504" type="line"/>
      <point x="80" y="504" type="line"/>
      <point x="80" y="448" type="line"/>
      <point x="254" y="448" type="line"/>
      <point x="254" y="254" type="line"/>
      <point x="80" y="254" type="line"/>
      <point x="80" y="198" type="line"/>
      <point x="254" y="198" type="line"/>
      <point x="254" y="0" type="line"/>
    </contour>
  </outline>
</glyph>
<glyph name="bullet" format="2">
  <advance width="344"/>
  <unicode hex="2022"/>
  <outline>
    <contour>
      <point x="172" y="150" type="curve" smooth="yes"/>
      <point x="234" y="150"/>
      <point x="282" y="196"/>
      <point x="282" y="258" type="curve" smooth="yes"/>
      <point x="282" y="320"/>
      <point x="234" y="366"/>
      <point x="172" y="366" type="curve" smooth="yes"/>
      <point x="110" y="366"/>
      <point x="62" y="320"/>
      <point x="62" y="258" type="curve" smooth="yes"/>
      <point x="62" y="196"/>
      <point x="110" y="150"/>
    </contour>
  </outline>
</glyph>
<glyph name="minute" format="2">
  <advance width="190"/>
  <unicode hex="2032"/>
  <outline>
    <contour>
      <point x="103" y="455" type="line"/>
      <point x="140" y="700" type="line"/>
      <point x="75" y="700" type="line"/>
      <point x="56" y="455" type="line"/>
    </contour>
  </outline>
</glyph>
<glyph name="second" format="2">
  <advance width="344"/>
  <unicode hex="2033"/>
  <outline>
    <contour>
      <point x="253" y="455" type="line"/>
      <point x="294" y="700" type="line"/>
      <point x="229" y="700" type="line"/>
      <point x="205" y="455" type="line"/>
    </contour>
    <contour>
      <point x="103" y="455" type="line"/>
      <point x="136" y="700" type="line"/>
      <point x="71" y="700" type="line"/>
      <point x="56" y="455" type="line"/>
    </contour>
  </outline>
</glyph>
<glyph name="guilsinglleft" format="2">
  <advance width="454"/>
  <unicode hex="2039"/>
  <outline>
    <contour>
      <point x="384" y="28" type="line"/>
      <point x="384" y="91" type="line"/>
      <point x="110" y="242" type="line"/>
      <point x="110" y="252" type="line"/>
      <point x="384" y="403" type="line"/>
      <point x="384" y="466" type="line"/>
      <point x="378" y="466" type="line"/>
      <point x="52" y="284" type="line"/>
      <point x="52" y="210" type="line"/>
      <point x="378" y="28" type="line"/>
    </contour>
  </outline>
</glyph>
<glyph name="guilsinglright" format="2">
  <advance width="454"/>
  <unicode hex="203A"/>
  <outline>
    <contour>
      <point x="76" y="28" type="line"/>
      <point x="402" y="210" type="line"/>
      <point x="402" y="284" type="line"/>
      <point x="76" y="466" type="line"/>
      <point x="70" y="466" type="line"/>
      <point x="70" y="403" type="line"/>
      <point x="344" y="252" type="line"/>
      <point x="344" y="242" type="line"/>
      <point x="70" y="91" type="line"/>
      <point x="70" y="28" type="line"/>
    </contour>
  </outline>
</glyph>
<glyph name="fraction" format="2">
  <advance width="656"/>
  <unicode hex="2044"/>
  <outline>
    <contour>
      <point x="629" y="681" type="line"/>
      <point x="590" y="712" type="line"/>
      <point x="27" y="19" type="line"/>
      <point x="66" y="-12" type="line"/>
    </contour>
  </outline>
</glyph>
<glyph name="commercialMinusSign" format="2">
  <advance width="696"/>
  <unicode hex="2052"/>
  <outline>
    <contour>
      <point x="652" y="679" type="line"/>
      <point x="608" y="714" type="line"/>
      <point x="44" y="21" type="line"/>
      <point x="88" y="-14" type="line"/>
    </contour>
    <contour>
      <point x="553" y="-14" type="curve" smooth="yes"/>
      <point x="598" y="-14"/>
      <point x="633" y="19"/>
      <point x="633" y="64" type="curve" smooth="yes"/>
      <point x="633" y="109"/>
      <point x="598" y="142"/>
      <point x="553" y="142" type="curve" smooth="yes"/>
      <point x="508" y="142"/>
      <point x="473" y="109"/>
      <point x="473" y="64" type="curve" smooth="yes"/>
      <point x="473" y="19"/>
      <point x="508" y="-14"/>
    </contour>
    <contour>
      <point x="165" y="558" type="curve" smooth="yes"/>
      <point x="210" y="558"/>
      <point x="245" y="591"/>
      <point x="245" y="636" type="curve" smooth="yes"/>
      <point x="245" y="681"/>
      <point x="210" y="714"/>
      <point x="165" y="714" type="curve" smooth="yes"/>
      <point x="120" y="714"/>
      <point x="85" y="681"/>
      <point x="85" y="636" type="curve" smooth="yes"/>
      <point x="85" y="591"/>
      <point x="120" y="558"/>
    </contour>
  </outline>
</glyph>
<glyph name="parenleftsuperior" format="2">
  <advance width="298"/>
  <unicode hex="207D"/>
  <outline>
    <contour>
      <point x="280" y="320" type="line"/>
      <point x="172" y="320"/>
      <point x="124" y="372"/>
      <point x="124" y="484" type="curve" smooth="yes"/>
      <point x="124" y="564" type="line" smooth="yes"/>
      <point x="124" y="676"/>
      <point x="172" y="728"/>
      <point x="280" y="728" type="curve"/>
      <point x="280" y="772" type="line"/>
      <point x="147" y="772"/>
      <point x="74" y="704"/>
      <point x="74" y="564" type="curve" smooth="yes"/>
      <point x="74" y="484" type="line" smooth="yes"/>
      <point x="74" y="344"/>
      <point x="147" y="276"/>
      <point x="280" y="276" type="curve"/>
    </contour>
  </outline>
</glyph>
<glyph name="uni207F" format="2">
  <advance width="446"/>
  <unicode hex="207F"/>
  <outline>
    <contour>
      <point x="112" y="350" type="line"/>
      <point x="112" y="533" type="line" smooth="yes"/>
      <point x="112" y="620"/>
      <point x="164" y="666"/>
      <point x="231" y="666" type="curve" smooth="yes"/>
      <point x="301" y="666"/>
      <point x="338" y="627"/>
      <point x="338" y="553" type="curve" smooth="yes"/>
      <point x="338" y="350" type="line"/>
      <point x="388" y="350" type="line"/>
      <point x="388" y="558" type="line" smooth="yes"/>
      <point x="388" y="659"/>
      <point x="323" y="708"/>
      <point x="241" y="708" type="curve" smooth="yes"/>
      <point x="176" y="708"/>
      <point x="142" y="679"/>
      <point x="122" y="646" type="curve"/>
      <point x="110" y="646" type="line"/>
      <point x="110" y="700" type="line"/>
      <point x="62" y="700" type="line"/>
      <point x="62" y="350" type="line"/>
    </contour>
  </outline>
</glyph>
<glyph name="parenleftinferior" format="2">
  <advance width="298"/>
  <unicode hex="208D"/>
  <outline>
    <contour>
      <point x="280" y="-230" type="line"/>
      <point x="172" y="-230"/>
      <point x="124" y="-178"/>
      <point x="124" y="-66" type="curve" smooth="yes"/>
      <point x="124" y="14" type="line" smooth="yes"/>
      <point x="124" y="126"/>
      <point x="172" y="178"/>
      <point x="280" y="178" type="curve"/>
      <point x="280" y="222" type="line"/>
      <point x="147" y="222"/>
      <point x="74" y="154"/>
      <point x="74" y="14" type="curve" smooth="yes"/>
      <point x="74" y="-66" type="line" smooth="yes"/>
      <point x="74" y="-206"/>
      <point x="147" y="-274"/>
      <point x="280" y="-274" type="curve"/>
    </contour>
  </outline>
</glyph>
<glyph name="dong" format="2">
  <advance width="720"/>
  <unicode hex="20AB"/>
  <outline>
    <contour>
      <point x="298" y="-14" type="curve" smooth="yes"/>
      <point x="405" y="-14"/>
      <point x="460" y="36"/>
      <point x="488" y="89" type="curve"/>
      <point x="500" y="89" type="line"/>
      <point x="500" y="0" type="line"/>
      <point x="558" y="0" type="line"/>
      <point x="558" y="700" type="line"/>
      <point x="498" y="700" type="line"/>
      <point x="498" y="401" type="line"/>
      <point x="486" y="401" type="line"/>
      <point x="460" y="450"/>
      <point x="405" y="500"/>
      <point x="298" y="500" type="curve" smooth="yes"/>
      <point x="167" y="500"/>
      <point x="64" y="403"/>
      <point x="64" y="249" type="curve" smooth="yes"/>
      <point x="64" y="237" type="line" smooth="yes"/>
      <point x="64" y="82"/>
      <point x="168" y="-14"/>
    </contour>
    <contour>
      <point x="312" y="40" type="curve" smooth="yes"/>
      <point x="202" y="40"/>
      <point x="126" y="115"/>
      <point x="126" y="239" type="curve" smooth="yes"/>
      <point x="126" y="247" type="line" smooth="yes"/>
      <point x="126" y="371"/>
      <point x="202" y="446"/>
      <point x="312" y="446" type="curve" smooth="yes"/>
      <point x="422" y="446"/>
      <point x="498" y="371"/>
      <point x="498" y="247" type="curve" smooth="yes"/>
      <point x="498" y="239" type="line" smooth="yes"/>
      <point x="498" y="115"/>
      <point x="422" y="40"/>
    </contour>
    <contour>
      <point x="558" y="-110" type="line"/>
      <point x="558" y="-66" type="line"/>
      <point x="102" y="-66" type="line"/>
      <point x="102" y="-110" type="line"/>
    </contour>
    <contour>
      <point x="638" y="566" type="line"/>
      <point x="638" y="610" type="line"/>
      <point x="317" y="610" type="line"/>
      <point x="317" y="566" type="line"/>
    </contour>
  </outline>
</glyph>
<glyph name="euro" format="2">
  <advance width="685"/>
  <unicode hex="20AC"/>
  <outline>
    <contour>
      <point x="378" y="-14" type="curve" smooth="yes"/>
      <point x="540" y="-14"/>
      <point x="629" y="84"/>
      <point x="629" y="241" type="curve" smooth="yes"/>
      <point x="629" y="254" type="line"/>
      <point x="565" y="254" type="line"/>
      <point x="565" y="239" type="line" smooth="yes"/>
      <point x="565" y="124"/>
      <point x="506" y="44"/>
      <point x="378" y="44" type="curve" smooth="yes"/>
      <point x="248" y="44"/>
      <point x="172" y="126"/>
      <point x="172" y="269" type="curve" smooth="yes"/>
      <point x="172" y="431" type="line" smooth="yes"/>
      <point x="172" y="574"/>
      <point x="248" y="656"/>
      <point x="378" y="656" type="curve" smooth="yes"/>
      <point x="506" y="656"/>
      <point x="565" y="576"/>
      <point x="565" y="461" type="curve" smooth="yes"/>
      <point x="565" y="454" type="line"/>
      <point x="629" y="454" type="line"/>
      <point x="629" y="459" type="line" smooth="yes"/>
      <point x="629" y="616"/>
      <point x="540" y="714"/>
      <point x="378" y="714" type="curve" smooth="yes"/>
      <point x="214" y="714"/>
      <point x="108" y="616"/>
      <point x="108" y="429" type="curve" smooth="yes"/>
      <point x="108" y="271" type="line" smooth="yes"/>
      <point x="108" y="84"/>
      <point x="214" y="-14"/>
    </contour>
    <contour>
      <point x="372" y="272" type="line"/>
      <point x="372" y="324" type="line"/>
      <point x="32" y="324" type="line"/>
      <point x="32" y="272" type="line"/>
    </contour>
    <contour>
      <point x="372" y="384" type="line"/>
      <point x="372" y="436" type="line"/>
      <point x="32" y="436" type="line"/>
      <point x="32" y="384" type="line"/>
    </contour>
  </outline>
</glyph>
<glyph name="kip" format="2">
  <advance width="636"/>
  <unicode hex="20AD"/>
  <outline>
    <contour>
      <point x="182" y="0" type="line"/>
      <point x="182" y="327" type="line"/>
      <point x="194" y="327" type="line"/>
      <point x="529" y="0" type="line"/>
      <point x="620" y="0" type="line"/>
      <point x="248" y="354" type="line"/>
      <point x="608" y="700" type="line"/>
      <point x="518" y="700" type="line"/>
      <point x="194" y="379" type="line"/>
      <point x="182" y="379" type="line"/>
      <point x="182" y="700" type="line"/>
      <point x="118" y="700" type="line"/>
      <point x="118" y="0" type="line"/>
    </contour>
    <contour>
      <point x="483" y="327" type="line"/>
      <point x="483" y="379" type="line"/>
      <point x="32" y="379" type="line"/>
      <point x="32" y="327" type="line"/>
    </contour>
  </outline>
</glyph>
<glyph name="guarani" format="2">
  <advance width="659"/>
  <unicode hex="20B2"/>
  <outline>
    <contour>
      <point x="330" y="-14" type="curve" smooth="yes"/>
      <point x="438" y="-14"/>
      <point x="487" y="30"/>
      <point x="511" y="79" type="curve"/>
      <point x="523" y="79" type="line"/>
      <point x="523" y="0" type="line"/>
      <point x="581" y="0" type="line"/>
      <point x="581" y="323" type="line"/>
      <point x="426" y="323" type="line"/>
      <point x="426" y="267" type="line"/>
      <point x="519" y="267" type="line"/>
      <point x="519" y="247" type="line" smooth="yes"/>
      <point x="519" y="123"/>
      <point x="460" y="44"/>
      <point x="334" y="44" type="curve" smooth="yes"/>
      <point x="204" y="44"/>
      <point x="128" y="126"/>
      <point x="128" y="269" type="curve" smooth="yes"/>
      <point x="128" y="431" type="line" smooth="yes"/>
      <point x="128" y="574"/>
      <point x="204" y="656"/>
      <point x="334" y="656" type="curve" smooth="yes"/>
      <point x="462" y="656"/>
      <point x="517" y="576"/>
      <point x="517" y="467" type="curve" smooth="yes"/>
      <point x="517" y="460" type="line"/>
      <point x="581" y="460" type="line"/>
      <point x="581" y="465" type="line" smooth="yes"/>
      <point x="581" y="616"/>
      <point x="496" y="714"/>
      <point x="334" y="714" type="curve" smooth="yes"/>
      <point x="170" y="714"/>
      <point x="64" y="616"/>
      <point x="64" y="429" type="curve" smooth="yes"/>
      <point x="64" y="271" type="line" smooth="yes"/>
      <point x="64" y="84"/>
      <point x="170" y="-14"/>
    </contour>
    <contour>
      <point x="362" y="-116" type="line"/>
      <point x="362" y="816" type="line"/>
      <point x="302" y="816" type="line"/>
      <point x="302" y="-116" type="line"/>
    </contour>
  </outline>
</glyph>
<glyph name="cedi" format="2">
  <advance width="641"/>
  <unicode hex="20B5"/>
  <outline>
    <contour>
      <point x="334" y="-14" type="curve" smooth="yes"/>
      <point x="496" y="-14"/>
      <point x="585" y="84"/>
      <point x="585" y="241" type="curve" smooth="yes"/>
      <point x="585" y="254" type="line"/>
      <point x="521" y="254" type="line"/>
      <point x="521" y="239" type="line" smooth="yes"/>
      <point x="521" y="124"/>
      <point x="462" y="44"/>
      <point x="334" y="44" type="curve" smooth="yes"/>
      <point x="204" y="44"/>
      <point x="128" y="126"/>
      <point x="128" y="269" type="curve" smooth="yes"/>
      <point x="128" y="431" type="line" smooth="yes"/>
      <point x="128" y="574"/>
      <point x="204" y="656"/>
      <point x="334" y="656" type="curve" smooth="yes"/>
      <point x="462" y="656"/>
      <point x="521" y="576"/>
      <point x="521" y="461" type="curve" smooth="yes"/>
      <point x="521" y="454" type="line"/>
      <point x="585" y="454" type="line"/>
      <point x="585" y="459" type="line" smooth="yes"/>
      <point x="585" y="616"/>
      <point x="496" y="714"/>
      <point x="334" y="714" type="curve" smooth="yes"/>
      <point x="170" y="714"/>
      <point x="64" y="616"/>
      <point x="64" y="429" type="curve" smooth="yes"/>
      <point x="64" y="271" type="line" smooth="yes"/>
      <point x="64" y="84"/>
      <point x="170" y="-14"/>
    </contour>
    <contour>
      <point x="362" y="-116" type="line"/>
      <point x="362" y="816" type="line"/>
      <point x="302" y="816" type="line"/>
      <point x="302" y="-116" type="line"/>
    </contour>
  </outline>
</glyph>
<glyph name="ruble" format="2">
  <advance width="632"/>
  <unicode hex="20BD"/>
  <outline>
    <contour>
      <point x="118" y="194" type="line"/>
      <point x="118" y="0" type="line"/>
      <point x="182" y="0" type="line"/>
      <point x="182" y="194" type="line"/>
      <point x="435" y="194" type="line"/>
      <point x="435" y="246" type="line"/>
      <point x="182" y="246" type="line"/>
      <point x="182" y="306" type="line"/>
      <point x="379" y="306" type="line" smooth="yes"/>
      <point x="499" y="306"/>
      <point x="596" y="371"/>
      <point x="596" y="494" type="curve" smooth="yes"/>
      <point x="596" y="506" type="line" smooth="yes"/>
      <point x="596" y="629"/>
      <point x="501" y="700"/>
      <point x="379" y="700" type="curve" smooth="yes"/>
      <point x="118" y="700" type="line"/>
      <point x="118" y="358" type="line"/>
      <point x="32" y="358" type="line"/>
      <point x="32" y="306" type="line"/>
      <point x="118" y="306" type="line"/>
      <point x="118" y="246" type="line"/>
      <point x="32" y="246" type="line"/>
      <point x="32" y="194" type="line"/>
    </contour>
    <contour>
      <point x="182" y="642" type="line"/>
      <point x="374" y="642" type="line" smooth="yes"/>
      <point x="473" y="642"/>
      <point x="532" y="592"/>
      <point x="532" y="505" type="curve" smooth="yes"/>
      <point x="532" y="495" type="line" smooth="yes"/>
      <point x="532" y="408"/>
      <point x="472" y="358"/>
      <point x="374" y="358" type="curve" smooth="yes"/>
      <point x="182" y="358" type="line"/>
    </contour>
  </outline>
</glyph>
<glyph name="bitcoin" format="2">
  <advance width="698"/>
  <unicode hex="20BF"/>
  <outline>
    <contour>
      <point x="430" y="0" type="line" smooth="yes"/>
      <point x="549" y="0"/>
      <point x="640" y="68"/>
      <point x="640" y="182" type="curve" smooth="yes"/>
      <point x="640" y="192" type="line" smooth="yes"/>
      <point x="640" y="290"/>
      <point x="574" y="335"/>
      <point x="522" y="348" type="curve"/>
      <point x="522" y="360" type="line"/>
      <point x="573" y="375"/>
      <point x="640" y="419"/>
      <point x="640" y="517" type="curve" smooth="yes"/>
      <point x="640" y="525" type="line" smooth="yes"/>
      <point x="640" y="629"/>
      <point x="553" y="700"/>
      <point x="433" y="700" type="curve" smooth="yes"/>
      <point x="86" y="700" type="line"/>
      <point x="86" y="642" type="line"/>
      <point x="186" y="642" type="line"/>
      <point x="186" y="58" type="line"/>
      <point x="86" y="58" type="line"/>
      <point x="86" y="0" type="line"/>
    </contour>
    <contour>
      <point x="250" y="324" type="line"/>
      <point x="424" y="324" type="line" smooth="yes"/>
      <point x="524" y="324"/>
      <point x="576" y="274"/>
      <point x="576" y="195" type="curve" smooth="yes"/>
      <point x="576" y="187" type="line" smooth="yes"/>
      <point x="576" y="108"/>
      <point x="524" y="58"/>
      <point x="424" y="58" type="curve" smooth="yes"/>
      <point x="250" y="58" type="line"/>
    </contour>
    <contour>
      <point x="250" y="642" type="line"/>
      <point x="428" y="642" type="line" smooth="yes"/>
      <point x="520" y="642"/>
      <point x="576" y="592"/>
      <point x="576" y="517" type="curve" smooth="yes"/>
      <point x="576" y="507" type="line" smooth="yes"/>
      <point x="576" y="432"/>
      <point x="520" y="382"/>
      <point x="428" y="382" type="curve" smooth="yes"/>
      <point x="250" y="382" type="line"/>
    </contour>
    <contour>
      <point x="302" y="-116" type="line"/>
      <point x="358" y="-116" type="line"/>
      <point x="358" y="30" type="line"/>
      <point x="302" y="30" type="line"/>
    </contour>
    <contour>
      <point x="358" y="816" type="line"/>
      <point x="302" y="816" type="line"/>
      <point x="302" y="670" type="line"/>
      <point x="358" y="670" type="line"/>
    </contour>
    <contour>
      <point x="474" y="816" type="line"/>
      <point x="418" y="816" type="line"/>
      <point x="418" y="670" type="line"/>
      <point x="474" y="670" type="line"/>
    </contour>
    <contour>
      <point x="418" y="-116" type="line"/>
      <point x="474" y="-116" type="line"/>
      <point x="474" y="30" type="line"/>
      <point x="418" y="30" type="line"/>
    </contour>
  </outline>
</glyph>
<glyph name="literSign" format="2">
  <advance width="620"/>
  <unicode hex="2113"/>
  <outline>
    <contour>
      <point x="432" y="0" type="line"/>
      <point x="432" y="54" type="line"/>
      <point x="314" y="54" type="line" smooth="yes"/>
      <point x="292" y="54"/>
      <point x="284" y="64"/>
      <point x="284" y="84" type="curve" smooth="yes"/>
      <point x="284" y="241" type="line"/>
      <point x="404" y="282"/>
      <point x="476" y="375"/>
      <point x="476" y="539" type="curve" smooth="yes"/>
      <point x="476" y="649"/>
      <point x="419" y="714"/>
      <point x="337" y="714" type="curve" smooth="yes"/>
      <point x="263" y="714"/>
      <point x="224" y="672"/>
      <point x="224" y="598" type="curve" smooth="yes"/>
      <point x="224" y="280" type="line"/>
      <point x="190" y="273"/>
      <point x="152" y="270"/>
      <point x="110" y="270" type="curve"/>
      <point x="110" y="216" type="line"/>
      <point x="151" y="216"/>
      <point x="189" y="219"/>
      <point x="224" y="226" type="curve"/>
      <point x="224" y="76" type="line" smooth="yes"/>
      <point x="224" y="28"/>
      <point x="250" y="0"/>
      <point x="302" y="0" type="curve" smooth="yes"/>
    </contour>
    <contour>
      <point x="284" y="600" type="line" smooth="yes"/>
      <point x="284" y="641"/>
      <point x="301" y="662"/>
      <point x="337" y="662" type="curve" smooth="yes"/>
      <point x="384" y="662"/>
      <point x="418" y="616"/>
      <point x="418" y="537" type="curve" smooth="yes"/>
      <point x="418" y="408"/>
      <point x="371" y="334"/>
      <point x="284" y="298" type="curve"/>
    </contour>
  </outline>
</glyph>
<glyph name="numero" format="2">
  <advance width="1261"/>
  <unicode hex="2116"/>
  <outline>
    <contour>
      <point x="150" y="0" type="line"/>
      <point x="150" y="663" type="line"/>
      <point x="162" y="663" type="line"/>
      <point x="448" y="0" type="line"/>
      <point x="575" y="0" type="line"/>
      <point x="575" y="700" type="line"/>
      <point x="511" y="700" type="line"/>
      <point x="511" y="38" type="line"/>
      <point x="499" y="38" type="line"/>
      <point x="213" y="700" type="line"/>
      <point x="86" y="700" type="line"/>
      <point x="86" y="0" type="line"/>
    </contour>
    <contour>
      <point x="1169" y="0" type="line"/>
      <point x="1169" y="56" type="line"/>
      <point x="733" y="56" type="line"/>
      <point x="733" y="0" type="line"/>
    </contour>
    <contour>
      <point x="951" y="196" type="curve" smooth="yes"/>
      <point x="1099" y="196"/>
      <point x="1197" y="297"/>
      <point x="1197" y="447" type="curve" smooth="yes"/>
      <point x="1197" y="459" type="line" smooth="yes"/>
      <point x="1197" y="609"/>
      <point x="1099" y="710"/>
      <point x="951" y="710" type="curve" smooth="yes"/>
      <point x="803" y="710"/>
      <point x="705" y="609"/>
      <point x="705" y="459" type="curve" smooth="yes"/>
      <point x="705" y="447" type="line" smooth="yes"/>
      <point x="705" y="297"/>
      <point x="803" y="196"/>
    </contour>
    <contour>
      <point x="951" y="250" type="curve" smooth="yes"/>
      <point x="837" y="250"/>
      <point x="765" y="329"/>
      <point x="765" y="449" type="curve" smooth="yes"/>
      <point x="765" y="457" type="line" smooth="yes"/>
      <point x="765" y="577"/>
      <point x="837" y="656"/>
      <point x="951" y="656" type="curve" smooth="yes"/>
      <point x="1065" y="656"/>
      <point x="1137" y="577"/>
      <point x="1137" y="457" type="curve" smooth="yes"/>
      <point x="1137" y="449" type="line" smooth="yes"/>
      <point x="1137" y="329"/>
      <point x="1065" y="250"/>
    </contour>
  </outline>
</glyph>
<glyph name="estimated" format="2">
  <advance width="617"/>
  <unicode hex="212E"/>
  <outline>
    <contour>
      <point x="309" y="-14" type="curve" smooth="yes"/>
      <point x="403" y="-14"/>
      <point x="476" y="24"/>
      <point x="520" y="99" type="curve"/>
      <point x="468" y="99" type="line"/>
      <point x="430" y="43"/>
      <point x="374" y="22"/>
      <point x="309" y="22" type="curve" smooth="yes"/>
      <point x="257" y="22"/>
      <point x="209" y="37"/>
      <point x="173" y="73" type="curve" smooth="yes"/>
      <point x="163" y="83"/>
      <point x="158" y="96"/>
      <point x="158" y="114" type="curve" smooth="yes"/>
      <point x="158" y="207" type="line" smooth="yes"/>
      <point x="158" y="220"/>
      <point x="165" y="227"/>
      <point x="178" y="227" type="curve" smooth="yes"/>
      <point x="553" y="227" type="line"/>
      <point x="553" y="249" type="line" smooth="yes"/>
      <point x="553" y="399"/>
      <point x="457" y="500"/>
      <point x="309" y="500" type="curve" smooth="yes"/>
      <point x="160" y="500"/>
      <point x="64" y="399"/>
      <point x="64" y="243" type="curve" smooth="yes"/>
      <point x="64" y="87"/>
      <point x="160" y="-14"/>
    </contour>
    <contour>
      <point x="178" y="263" type="line" smooth="yes"/>
      <point x="165" y="263"/>
      <point x="158" y="270"/>
      <point x="158" y="283" type="curve" smooth="yes"/>
      <point x="158" y="372" type="line" smooth="yes"/>
      <point x="158" y="390"/>
      <point x="163" y="403"/>
      <point x="173" y="413" type="curve" smooth="yes"/>
      <point x="208" y="448"/>
      <point x="257" y="464"/>
      <point x="309" y="464" type="curve" smooth="yes"/>
      <point x="361" y="464"/>
      <point x="410" y="448"/>
      <point x="445" y="413" type="curve" smooth="yes"/>
      <point x="455" y="403"/>
      <point x="460" y="390"/>
      <point x="460" y="372" type="curve" smooth="yes"/>
      <point x="460" y="283" type="line" smooth="yes"/>
      <point x="460" y="270"/>
      <point x="453" y="263"/>
      <point x="440" y="263" type="curve" smooth="yes"/>
    </contour>
  </outline>
</glyph>
<glyph name="leftArrow" format="2">
  <advance width="800"/>
  <unicode hex="2190"/>
  <outline>
    <contour>
      <point x="322" y="38" type="line"/>
      <point x="158" y="202" type="line"/>
      <point x="127" y="224" type="line"/>
      <point x="130" y="234" type="line"/>
      <point x="168" y="230" type="line"/>
      <point x="750" y="230" type="line"/>
      <point x="750" y="286" type="line"/>
      <point x="168" y="286" type="line"/>
      <point x="130" y="282" type="line"/>
      <point x="127" y="292" type="line"/>
      <point x="158" y="314" type="line"/>
      <point x="322" y="478" type="line"/>
      <point x="283" y="517" type="line"/>
      <point x="44" y="278" type="line"/>
      <point x="44" y="238" type="line"/>
      <point x="283" y="-1" type="line"/>
    </contour>
  </outline>
</glyph>
<glyph name="upArrow" format="2">
  <advance width="620"/>
  <unicode hex="2191"/>
  <outline>
    <contour>
      <point x="339" y="0" type="line"/>
      <point x="339" y="583" type="line"/>
      <point x="335" y="621" type="line"/>
      <point x="345" y="624" type="line"/>
      <point x="367" y="593" type="line"/>
      <point x="531" y="429" type="line"/>
      <point x="570" y="468" type="line"/>
      <point x="330" y="708" type="line"/>
      <point x="290" y="708" type="line"/>
      <point x="50" y="468" type="line"/>
      <point x="89" y="429" type="line"/>
      <point x="253" y="593" type="line"/>
      <point x="275" y="624" type="line"/>
      <point x="285" y="621" type="line"/>
      <point x="281" y="583" type="line"/>
      <point x="281" y="0" type="line"/>
    </contour>
  </outline>
</glyph>
<glyph name="downArrow" format="2">
  <advance width="620"/>
  <unicode hex="2193"/>
  <outline>
    <contour>
      <point x="330" y="-8" type="line"/>
      <point x="570" y="232" type="line"/>
      <point x="531" y="271" type="line"/>
      <point x="367" y="107" type="line"/>
      <point x="345" y="76" type="line"/>
      <point x="335" y="79" type="line"/>
      <point x="339" y="117" type="line"/>
      <point x="339" y="700" type="line"/>
      <point x="281" y="700" type="line"/>
      <point x="281" y="117" type="line"/>
      <point x="285" y="79" type="line"/>
      <point x="275" y="76" type="line"/>
      <point x="253" y="107" type="line"/>
      <point x="89" y="271" type="line"/>
      <point x="50" y="232" type="line"/>
      <point x="290" y="-8" type="line"/>
    </contour>
  </outline>
</glyph>
<glyph name="leftRightArrow" format="2">
  <advance width="800"/>
  <unicode hex="2194"/>
  <outline>
    <contour>
      <point x="756" y="238" type="line"/>
      <point x="756" y="278" type="line"/>
      <point x="517" y="517" type="line"/>
      <point x="478" y="478" type="line"/>
      <point x="642" y="314" type="line"/>
      <point x="673" y="292" type="line"/>
      <point x="670" y="282" type="line"/>
      <point x="632" y="286" type="line"/>
      <point x="400" y="286" type="line"/>
      <point x="400" y="230" type="line"/>
      <point x="632" y="230" type="line"/>
      <point x="670" y="234" type="line"/>
      <point x="673" y="224" type="line"/>
      <point x="642" y="202" type="line"/>
      <point x="478" y="38" type="line"/>
      <point x="517" y="-1" type="line"/>
    </contour>
    <contour>
      <point x="322" y="38" type="line"/>
      <point x="158" y="202" type="line"/>
      <point x="127" y="224" type="line"/>
      <point x="130" y="234" type="line"/>
      <point x="168" y="230" type="line"/>
      <point x="400" y="230" type="line"/>
      <point x="400" y="286" type="line"/>
      <point x="168" y="286" type="line"/>
      <point x="130" y="282" type="line"/>
      <point x="127" y="292" type="line"/>
      <point x="158" y="314" type="line"/>
      <point x="322" y="478" type="line"/>
      <point x="283" y="517" type="line"/>
      <point x="44" y="278" type="line"/>
      <point x="44" y="238" type="line"/>
      <point x="283" y="-1" type="line"/>
    </contour>
  </outline>
</glyph>
<glyph name="northEastArrow" format="2">
  <advance width="610"/>
  <unicode hex="2197"/>
  <outline>
    <contour>
      <point x="451" y="365" type="line"/>
      <point x="475" y="395" type="line"/>
      <point x="485" y="390" type="line"/>
      <point x="478" y="353" type="line"/>
      <point x="478" y="119" type="line"/>
      <point x="534" y="119" type="line"/>
      <point x="534" y="457" type="line"/>
      <point x="505" y="486" type="line"/>
      <point x="166" y="486" type="line"/>
      <point x="166" y="432" type="line"/>
      <point x="399" y="432" type="line"/>
      <point x="436" y="439" type="line"/>
      <point x="441" y="429" type="line"/>
      <point x="411" y="405" type="line"/>
      <point x="36" y="30" type="line"/>
      <point x="76" y="-10" type="line"/>
    </contour>
  </outline>
</glyph>
<glyph name="southWestArrow" format="2">
  <advance width="610"/>
  <unicode hex="2199"/>
  <outline>
    <contour>
      <point x="434" y="0" type="line"/>
      <point x="434" y="54" type="line"/>
      <point x="201" y="54" type="line"/>
      <point x="164" y="47" type="line"/>
      <point x="159" y="57" type="line"/>
      <point x="189" y="81" type="line"/>
      <point x="564" y="456" type="line"/>
      <point x="524" y="496" type="line"/>
      <point x="149" y="121" type="line"/>
      <point x="125" y="91" type="line"/>
      <point x="115" y="96" type="line"/>
      <point x="122" y="133" type="line"/>
      <point x="122" y="367" type="line"/>
      <point x="66" y="367" type="line"/>
      <point x="66" y="29" type="line"/>
      <point x="95" y="0" type="line"/>
    </contour>
  </outline>
</glyph>
<glyph name="partialdiff" format="2">
  <advance width="620"/>
  <unicode hex="2202"/>
  <outline>
    <contour>
      <point x="312" y="-14" type="curve" smooth="yes"/>
      <point x="466" y="-14"/>
      <point x="555" y="98"/>
      <point x="555" y="264" type="curve" smooth="yes"/>
      <point x="555" y="510"/>
      <point x="425" y="673"/>
      <point x="182" y="709" type="curve"/>
      <point x="171" y="650" type="line"/>
      <point x="304" y="635"/>
      <point x="439" y="558"/>
      <point x="468" y="430" type="curve"/>
      <point x="458" y="430" type="line"/>
      <point x="435" y="468"/>
      <point x="377" y="500"/>
      <point x="305" y="500" type="curve" smooth="yes"/>
      <point x="162" y="500"/>
      <point x="65" y="393"/>
      <point x="65" y="249" type="curve" smooth="yes"/>
      <point x="65" y="237" type="line" smooth="yes"/>
      <point x="65" y="92"/>
      <point x="166" y="-14"/>
    </contour>
    <contour>
      <point x="311" y="40" type="curve" smooth="yes"/>
      <point x="202" y="40"/>
      <point x="125" y="124"/>
      <point x="125" y="236" type="curve" smooth="yes"/>
      <point x="125" y="250" type="line" smooth="yes"/>
      <point x="125" y="358"/>
      <point x="202" y="446"/>
      <point x="311" y="446" type="curve" smooth="yes"/>
      <point x="417" y="446"/>
      <point x="495" y="361"/>
      <point x="495" y="249" type="curve" smooth="yes"/>
      <point x="495" y="134"/>
      <point x="429" y="40"/>
    </contour>
  </outline>
</glyph>
<glyph name="emptyset" format="2">
  <advance width="640"/>
  <unicode hex="2205"/>
  <outline>
    <contour>
      <point x="320" y="-14" type="curve" smooth="yes"/>
      <point x="470" y="-14"/>
      <point x="578" y="90"/>
      <point x="578" y="238" type="curve" smooth="yes"/>
      <point x="578" y="248" type="line" smooth="yes"/>
      <point x="578" y="396"/>
      <point x="470" y="500"/>
      <point x="320" y="500" type="curve" smooth="yes"/>
      <point x="170" y="500"/>
      <point x="62" y="396"/>
      <point x="62" y="248" type="curve" smooth="yes"/>
      <point x="62" y="238" type="line" smooth="yes"/>
      <point x="62" y="90"/>
      <point x="170" y="-14"/>
    </contour>
    <contour>
      <point x="320" y="40" type="curve" smooth="yes"/>
      <point x="205" y="40"/>
      <point x="120" y="116"/>
      <point x="120" y="238" type="curve" smooth="yes"/>
      <point x="120" y="248" type="line" smooth="yes"/>
      <point x="120" y="363"/>
      <point x="205" y="446"/>
      <point x="320" y="446" type="curve" smooth="yes"/>
      <point x="435" y="446"/>
      <point x="520" y="368"/>
      <point x="520" y="248" type="curve" smooth="yes"/>
      <point x="520" y="238" type="line" smooth="yes"/>
      <point x="520" y="120"/>
      <point x="435" y="40"/>
    </contour>
    <contour>
      <point x="489" y="559" type="line"/>
      <point x="438" y="582" type="line"/>
      <point x="151" y="-73" type="line"/>
      <point x="202" y="-96" type="line"/>
    </contour>
  </outline>
</glyph>
<glyph name="increment" format="2">
  <advance width="620"/>
  <unicode hex="2206"/>
  <outline>
    <contour>
      <point x="592" y="0" type="line"/>
      <point x="357" y="700" type="line"/>
      <point x="263" y="700" type="line"/>
      <point x="28" y="0" type="line"/>
    </contour>
    <contour>
      <point x="305" y="643" type="line"/>
      <point x="315" y="643" type="line"/>
      <point x="512" y="54" type="line"/>
      <point x="108" y="54" type="line"/>
    </contour>
  </outline>
</glyph>
<glyph name="summation" format="2">
  <advance width="620"/>
  <unicode hex="2211"/>
  <outline>
    <contour>
      <point x="554" y="-200" type="line"/>
      <point x="554" y="-144" type="line"/>
      <point x="115" y="-144" type="line"/>
      <point x="115" y="-134" type="line"/>
      <point x="399" y="250" type="line"/>
      <point x="115" y="634" type="line"/>
      <point x="115" y="644" type="line"/>
      <point x="554" y="644" type="line"/>
      <point x="554" y="700" type="line"/>
      <point x="54" y="700" type="line"/>
      <point x="54" y="616" type="line"/>
      <point x="325" y="250" type="line"/>
      <point x="54" y="-116" type="line"/>
      <point x="54" y="-200" type="line"/>
    </contour>
  </outline>
</glyph>
